<?xml version="1.0" encoding="UTF-8"?>
<svg xmlns="http://www.w3.org/2000/svg" xmlns:xlink="http://www.w3.org/1999/xlink" width="151pt" height="105pt" viewBox="0 0 151 105" version="1.1">
<g id="surface1">
<path style=" stroke:none;fill-rule:nonzero;fill:rgb(90.196078%,90.196078%,90.196078%);fill-opacity:1;" d="M 137.332031 54.789062 C 135.300781 60.570312 132.464844 66.035156 128.914062 71.019531 C 128.832031 71.136719 128.75 71.25 128.667969 71.363281 L 117.894531 67.859375 C 117.945312 67.746094 117.996094 67.621094 118.054688 67.484375 C 121.445312 59.417969 141.859375 10.25 139.691406 0 C 139.898438 0.84375 146.664062 28.6875 137.332031 54.789062 Z M 137.332031 54.789062 "/>
<path style=" stroke:none;fill-rule:nonzero;fill:rgb(90.196078%,90.196078%,90.196078%);fill-opacity:1;" d="M 130.992188 71.695312 C 130.863281 71.796875 130.726562 71.894531 130.589844 71.992188 L 122.507812 69.359375 C 122.605469 69.269531 122.71875 69.164062 122.847656 69.046875 C 124.960938 67.058594 131.246094 61.101562 137.332031 54.789062 C 143.875 48.007812 150.1875 40.8125 150.859375 37.679688 C 150.734375 38.394531 146.746094 60.117188 130.992188 71.695312 Z M 130.992188 71.695312 "/>
<path style=" stroke:none;fill-rule:nonzero;fill:rgb(18.431373%,18.039216%,25.490196%);fill-opacity:1;" d="M 143.164062 105.078125 L 4.644531 105.078125 C 2.078125 105.078125 0 102.988281 0 100.410156 C 50.214844 94.542969 99.484375 94.542969 147.8125 100.410156 C 147.8125 102.988281 145.730469 105.078125 143.164062 105.078125 Z M 143.164062 105.078125 "/>
<path style=" stroke:none;fill-rule:nonzero;fill:rgb(24.705882%,23.921569%,33.72549%);fill-opacity:1;" d="M 147.8125 100.683594 L 0 100.410156 L 17.132812 71.433594 L 17.210938 71.296875 L 17.210938 7.441406 C 17.210938 4.179688 19.839844 1.539062 23.085938 1.539062 L 123.90625 1.539062 C 127.148438 1.539062 129.777344 4.179688 129.777344 7.441406 L 129.777344 71.734375 Z M 147.8125 100.683594 "/>
<path style=" stroke:none;fill-rule:nonzero;fill:rgb(100%,100%,100%);fill-opacity:1;" d="M 22.949219 5.65625 C 21.894531 5.660156 21.039062 6.519531 21.039062 7.578125 L 21.039062 65.804688 C 21.039062 66.867188 21.894531 67.726562 22.949219 67.726562 L 124.859375 67.726562 C 125.914062 67.726562 126.773438 66.867188 126.773438 65.804688 L 126.773438 7.578125 C 126.773438 6.519531 125.914062 5.660156 124.859375 5.65625 Z M 22.949219 5.65625 "/>
<path style=" stroke:none;fill-rule:nonzero;fill:rgb(18.431373%,18.039216%,25.490196%);fill-opacity:1;" d="M 23.621094 75.417969 C 23.300781 75.417969 23.007812 75.605469 22.875 75.898438 L 17.597656 87.429688 C 17.480469 87.6875 17.5 87.984375 17.652344 88.21875 C 17.800781 88.457031 18.0625 88.601562 18.339844 88.601562 L 129.34375 88.601562 C 129.628906 88.601562 129.894531 88.453125 130.042969 88.210938 C 130.191406 87.964844 130.207031 87.664062 130.078125 87.40625 L 124.339844 75.871094 C 124.203125 75.59375 123.917969 75.414062 123.609375 75.417969 Z M 23.621094 75.417969 "/>
<path style=" stroke:none;fill-rule:nonzero;fill:rgb(100%,100%,100%);fill-opacity:1;" d="M 74.722656 3.460938 C 74.722656 4.144531 74.175781 4.695312 73.496094 4.695312 C 72.816406 4.695312 72.265625 4.144531 72.265625 3.460938 C 72.265625 2.777344 72.816406 2.226562 73.496094 2.226562 C 74.175781 2.226562 74.722656 2.777344 74.722656 3.460938 Z M 74.722656 3.460938 "/>
<path style=" stroke:none;fill-rule:nonzero;fill:rgb(18.431373%,18.039216%,25.490196%);fill-opacity:1;" d="M 62.585938 90.796875 C 62.214844 90.796875 61.890625 91.046875 61.792969 91.40625 L 60.46875 96.351562 C 60.402344 96.597656 60.457031 96.863281 60.609375 97.066406 C 60.765625 97.269531 61.003906 97.390625 61.261719 97.390625 L 86.441406 97.390625 C 86.707031 97.390625 86.957031 97.257812 87.109375 97.042969 C 87.261719 96.824219 87.300781 96.546875 87.214844 96.296875 L 85.515625 91.351562 C 85.398438 91.019531 85.085938 90.796875 84.738281 90.796875 Z M 62.585938 90.796875 "/>
<path style=" stroke:none;fill-rule:nonzero;fill:rgb(18.431373%,18.039216%,25.490196%);fill-opacity:1;" d="M 129.777344 70.335938 L 129.777344 71.433594 L 17.128906 71.433594 L 17.214844 71.296875 L 17.214844 70.335938 Z M 129.777344 70.335938 "/>
<path style=" stroke:none;fill-rule:nonzero;fill:rgb(90.196078%,90.196078%,90.196078%);fill-opacity:1;" d="M 94.757812 15.945312 L 68.179688 15.945312 L 68.179688 16.433594 L 94.757812 16.433594 C 97.480469 16.433594 99.691406 18.652344 99.691406 21.390625 C 99.691406 24.132812 97.480469 26.351562 94.757812 26.351562 L 54.539062 26.351562 C 51.816406 26.351562 49.605469 24.132812 49.605469 21.390625 C 49.605469 18.652344 51.816406 16.433594 54.539062 16.433594 L 56.042969 16.433594 L 56.042969 15.945312 L 54.539062 15.945312 C 51.546875 15.945312 49.125 18.382812 49.125 21.390625 C 49.125 24.398438 51.546875 26.835938 54.539062 26.839844 L 94.757812 26.839844 C 97.75 26.84375 100.179688 24.402344 100.179688 21.390625 C 100.179688 18.382812 97.75 15.945312 94.757812 15.945312 Z M 94.757812 15.945312 "/>
<path style=" stroke:none;fill-rule:nonzero;fill:rgb(90.196078%,90.196078%,90.196078%);fill-opacity:1;" d="M 94.757812 32.78125 L 68.179688 32.78125 L 68.179688 33.269531 L 94.757812 33.269531 C 97.480469 33.269531 99.6875 35.492188 99.6875 38.226562 C 99.6875 40.964844 97.480469 43.1875 94.757812 43.1875 L 54.539062 43.1875 C 51.816406 43.1875 49.605469 40.96875 49.605469 38.226562 C 49.605469 35.488281 51.816406 33.269531 54.539062 33.269531 L 56.042969 33.269531 L 56.042969 32.78125 L 54.539062 32.78125 C 51.546875 32.78125 49.125 35.21875 49.125 38.226562 C 49.125 41.234375 51.546875 43.671875 54.539062 43.675781 L 94.757812 43.675781 C 97.75 43.675781 100.179688 41.238281 100.179688 38.226562 C 100.179688 35.21875 97.75 32.777344 94.757812 32.78125 Z M 94.757812 32.78125 "/>
<path style=" stroke:none;fill-rule:nonzero;fill:rgb(90.196078%,90.196078%,90.196078%);fill-opacity:1;" d="M 94.757812 49.617188 L 68.179688 49.617188 L 68.179688 50.101562 L 94.757812 50.101562 C 97.480469 50.101562 99.691406 52.324219 99.691406 55.0625 C 99.691406 57.800781 97.480469 60.023438 94.757812 60.023438 L 54.539062 60.023438 C 51.816406 60.023438 49.605469 57.800781 49.605469 55.0625 C 49.605469 52.324219 51.816406 50.101562 54.539062 50.101562 L 56.042969 50.101562 L 56.042969 49.617188 L 54.539062 49.617188 C 51.546875 49.617188 49.121094 52.054688 49.121094 55.0625 C 49.121094 58.070312 51.546875 60.511719 54.539062 60.511719 L 94.757812 60.511719 C 97.75 60.511719 100.175781 58.070312 100.175781 55.0625 C 100.175781 52.054688 97.75 49.617188 94.757812 49.617188 Z M 94.757812 49.617188 "/>
<path style=" stroke:none;fill-rule:nonzero;fill:rgb(24.705882%,23.921569%,33.72549%);fill-opacity:1;" d="M 59.042969 14.65625 C 58.253906 14.667969 57.621094 15.3125 57.621094 16.105469 C 57.621094 16.898438 58.253906 17.542969 59.042969 17.558594 L 65.375 17.558594 C 66.171875 17.570312 66.828125 16.929688 66.839844 16.128906 C 66.851562 15.328125 66.21875 14.667969 65.421875 14.65625 C 65.40625 14.65625 65.390625 14.65625 65.375 14.65625 Z M 59.042969 14.65625 "/>
<path style=" stroke:none;fill-rule:nonzero;fill:rgb(24.705882%,23.921569%,33.72549%);fill-opacity:1;" d="M 59.042969 31.734375 C 58.253906 31.75 57.621094 32.394531 57.621094 33.1875 C 57.621094 33.976562 58.253906 34.625 59.042969 34.636719 L 65.375 34.636719 C 66.171875 34.648438 66.828125 34.011719 66.839844 33.210938 C 66.851562 32.40625 66.21875 31.75 65.421875 31.734375 C 65.40625 31.734375 65.390625 31.734375 65.375 31.734375 Z M 59.042969 31.734375 "/>
<path style=" stroke:none;fill-rule:nonzero;fill:rgb(24.705882%,23.921569%,33.72549%);fill-opacity:1;" d="M 59.042969 48.328125 C 58.253906 48.339844 57.621094 48.984375 57.621094 49.777344 C 57.621094 50.570312 58.253906 51.214844 59.042969 51.226562 L 65.375 51.226562 C 66.171875 51.242188 66.828125 50.601562 66.839844 49.800781 C 66.851562 49 66.21875 48.339844 65.421875 48.328125 C 65.40625 48.328125 65.390625 48.328125 65.375 48.328125 Z M 59.042969 48.328125 "/>
<path style=" stroke:none;fill-rule:nonzero;fill:rgb(33.333333%,65.882353%,99.215686%);fill-opacity:1;" d="M 56.53125 19.941406 C 55.742188 19.953125 55.109375 20.601562 55.109375 21.390625 C 55.109375 22.183594 55.742188 22.828125 56.53125 22.84375 L 92.71875 22.84375 C 93.515625 22.855469 94.171875 22.21875 94.183594 21.414062 C 94.199219 20.617188 93.5625 19.953125 92.765625 19.941406 C 92.75 19.941406 92.734375 19.941406 92.71875 19.941406 Z M 56.53125 19.941406 "/>
<path style=" stroke:none;fill-rule:nonzero;fill:rgb(33.333333%,65.882353%,99.215686%);fill-opacity:1;" d="M 56.53125 36.777344 C 55.742188 36.789062 55.109375 37.4375 55.109375 38.226562 C 55.109375 39.019531 55.742188 39.664062 56.53125 39.679688 L 92.71875 39.679688 C 93.515625 39.691406 94.171875 39.054688 94.183594 38.25 C 94.199219 37.449219 93.5625 36.789062 92.765625 36.777344 C 92.75 36.777344 92.734375 36.777344 92.71875 36.777344 Z M 56.53125 36.777344 "/>
<path style=" stroke:none;fill-rule:nonzero;fill:rgb(90.196078%,90.196078%,90.196078%);fill-opacity:1;" d="M 56.53125 53.613281 C 55.742188 53.625 55.109375 54.269531 55.109375 55.0625 C 55.109375 55.855469 55.742188 56.5 56.53125 56.515625 L 92.71875 56.515625 C 93.515625 56.527344 94.171875 55.886719 94.183594 55.085938 C 94.199219 54.285156 93.5625 53.625 92.765625 53.613281 C 92.75 53.613281 92.734375 53.613281 92.71875 53.613281 Z M 56.53125 53.613281 "/>
<path style=" stroke:none;fill-rule:nonzero;fill:rgb(33.333333%,65.882353%,99.215686%);fill-opacity:1;" d="M 45.980469 21.277344 C 45.980469 22.882812 44.6875 24.183594 43.089844 24.183594 C 41.496094 24.183594 40.199219 22.882812 40.199219 21.277344 C 40.199219 19.671875 41.496094 18.375 43.089844 18.375 C 44.6875 18.375 45.980469 19.671875 45.980469 21.277344 Z M 45.980469 21.277344 "/>
<path style=" stroke:none;fill-rule:nonzero;fill:rgb(100%,100%,100%);fill-opacity:1;" d="M 42.820312 22.472656 L 41.980469 21.382812 L 42.46875 21 L 42.867188 21.515625 L 44.214844 20.085938 L 44.667969 20.515625 Z M 42.820312 22.472656 "/>
<path style=" stroke:none;fill-rule:nonzero;fill:rgb(33.333333%,65.882353%,99.215686%);fill-opacity:1;" d="M 45.980469 38.113281 C 45.980469 39.71875 44.6875 41.019531 43.089844 41.019531 C 41.496094 41.019531 40.199219 39.71875 40.199219 38.113281 C 40.199219 36.507812 41.496094 35.207031 43.089844 35.207031 C 44.6875 35.207031 45.980469 36.507812 45.980469 38.113281 Z M 45.980469 38.113281 "/>
<path style=" stroke:none;fill-rule:nonzero;fill:rgb(100%,100%,100%);fill-opacity:1;" d="M 42.820312 39.304688 L 41.980469 38.21875 L 42.46875 37.835938 L 42.867188 38.351562 L 44.214844 36.921875 L 44.667969 37.351562 Z M 42.820312 39.304688 "/>
<path style=" stroke:none;fill-rule:nonzero;fill:rgb(90.196078%,90.196078%,90.196078%);fill-opacity:1;" d="M 45.980469 54.949219 C 45.980469 56.554688 44.6875 57.855469 43.089844 57.855469 C 41.496094 57.855469 40.199219 56.554688 40.199219 54.949219 C 40.199219 53.34375 41.496094 52.042969 43.089844 52.042969 C 44.6875 52.042969 45.980469 53.34375 45.980469 54.949219 Z M 45.980469 54.949219 "/>
<path style=" stroke:none;fill-rule:nonzero;fill:rgb(90.196078%,90.196078%,90.196078%);fill-opacity:1;" d="M 109.332031 21.277344 C 109.332031 22.882812 108.039062 24.183594 106.441406 24.183594 C 104.84375 24.183594 103.550781 22.882812 103.550781 21.277344 C 103.550781 19.671875 104.84375 18.375 106.441406 18.375 C 108.039062 18.375 109.332031 19.671875 109.332031 21.277344 Z M 109.332031 21.277344 "/>
<path style=" stroke:none;fill-rule:nonzero;fill:rgb(90.196078%,90.196078%,90.196078%);fill-opacity:1;" d="M 109.332031 38.113281 C 109.332031 39.71875 108.039062 41.019531 106.441406 41.019531 C 104.84375 41.019531 103.550781 39.71875 103.550781 38.113281 C 103.550781 36.507812 104.84375 35.207031 106.441406 35.207031 C 108.039062 35.207031 109.332031 36.507812 109.332031 38.113281 Z M 109.332031 38.113281 "/>
<path style=" stroke:none;fill-rule:nonzero;fill:rgb(90.196078%,90.196078%,90.196078%);fill-opacity:1;" d="M 109.332031 54.949219 C 109.332031 56.554688 108.039062 57.855469 106.441406 57.855469 C 104.84375 57.855469 103.550781 56.554688 103.550781 54.949219 C 103.550781 53.34375 104.84375 52.042969 106.441406 52.042969 C 108.039062 52.042969 109.332031 53.34375 109.332031 54.949219 Z M 109.332031 54.949219 "/>
<path style=" stroke:none;fill-rule:nonzero;fill:rgb(100%,100%,100%);fill-opacity:1;" d="M 42.820312 56.140625 L 41.980469 55.054688 L 42.46875 54.671875 L 42.867188 55.1875 L 44.214844 53.757812 L 44.667969 54.1875 Z M 42.820312 56.140625 "/>
<path style=" stroke:none;fill-rule:nonzero;fill:rgb(100%,100%,100%);fill-opacity:1;" d="M 105.46875 20.585938 L 105.710938 20.34375 L 107.328125 21.96875 L 107.085938 22.210938 Z M 105.46875 20.585938 "/>
<path style=" stroke:none;fill-rule:nonzero;fill:rgb(100%,100%,100%);fill-opacity:1;" d="M 105.554688 21.96875 L 107.171875 20.34375 L 107.414062 20.585938 L 105.796875 22.210938 Z M 105.554688 21.96875 "/>
<path style=" stroke:none;fill-rule:nonzero;fill:rgb(100%,100%,100%);fill-opacity:1;" d="M 105.46875 37.421875 L 105.710938 37.179688 L 107.328125 38.804688 L 107.085938 39.046875 Z M 105.46875 37.421875 "/>
<path style=" stroke:none;fill-rule:nonzero;fill:rgb(100%,100%,100%);fill-opacity:1;" d="M 105.554688 38.804688 L 107.171875 37.179688 L 107.414062 37.421875 L 105.796875 39.046875 Z M 105.554688 38.804688 "/>
<path style=" stroke:none;fill-rule:nonzero;fill:rgb(100%,100%,100%);fill-opacity:1;" d="M 105.46875 54.257812 L 105.710938 54.015625 L 107.328125 55.640625 L 107.085938 55.882812 Z M 105.46875 54.257812 "/>
<path style=" stroke:none;fill-rule:nonzero;fill:rgb(100%,100%,100%);fill-opacity:1;" d="M 105.554688 55.640625 L 107.171875 54.015625 L 107.414062 54.257812 L 105.796875 55.882812 Z M 105.554688 55.640625 "/>
<path style=" stroke:none;fill-rule:nonzero;fill:rgb(100%,72.156863%,72.156863%);fill-opacity:1;" d="M 43.648438 53.785156 C 44.15625 53.445312 44.492188 52.898438 44.566406 52.289062 C 44.640625 51.679688 44.445312 51.070312 44.03125 50.617188 L 41.257812 47.578125 L 38.59375 48.933594 L 40.632812 52.984375 C 40.902344 53.515625 41.386719 53.910156 41.960938 54.0625 C 42.535156 54.21875 43.148438 54.117188 43.648438 53.785156 Z M 43.648438 53.785156 "/>
<path style=" stroke:none;fill-rule:nonzero;fill:rgb(100%,72.156863%,72.156863%);fill-opacity:1;" d="M 7.78125 62.8125 C 8.386719 62.742188 8.929688 62.40625 9.273438 61.898438 C 9.613281 61.390625 9.710938 60.753906 9.546875 60.164062 L 8.4375 56.191406 L 5.449219 56.191406 L 5.449219 60.730469 C 5.449219 61.328125 5.707031 61.898438 6.148438 62.296875 C 6.59375 62.695312 7.1875 62.882812 7.78125 62.8125 Z M 7.78125 62.8125 "/>
<path style=" stroke:none;fill-rule:nonzero;fill:rgb(100%,72.156863%,72.156863%);fill-opacity:1;" d="M 25.035156 92.78125 L 30.675781 91.890625 L 28.351562 89.445312 L 25.035156 89.445312 Z M 25.035156 92.78125 "/>
<path style=" stroke:none;fill-rule:nonzero;fill:rgb(100%,72.156863%,72.156863%);fill-opacity:1;" d="M 6.890625 93.003906 L 12.753906 94.558594 C 11.671875 92.308594 11.007812 90.316406 11.425781 89 L 8.660156 88.664062 Z M 6.890625 93.003906 "/>
<path style=" stroke:none;fill-rule:nonzero;fill:rgb(34.117647%,35.294118%,53.333333%);fill-opacity:1;" d="M 8.105469 89.222656 L 11.535156 89.890625 L 20.941406 59.414062 L 24.921875 89.777344 L 28.574219 89.777344 L 28.242188 46.847656 L 14.082031 46.847656 Z M 8.105469 89.222656 "/>
<path style=" stroke:none;fill-rule:nonzero;fill:rgb(34.117647%,35.294118%,53.333333%);fill-opacity:1;" d="M 26.113281 94.132812 L 31.695312 92.285156 C 31.996094 92.1875 32.238281 91.960938 32.359375 91.667969 C 32.480469 91.375 32.46875 91.046875 32.328125 90.761719 C 32.132812 90.367188 31.71875 90.132812 31.28125 90.160156 L 30.015625 90.246094 L 29.519531 89.964844 C 29.414062 89.90625 29.28125 89.917969 29.1875 90 C 29.097656 90.082031 29.066406 90.214844 29.113281 90.328125 L 29.570312 91.445312 L 24.921875 91.113281 L 24.695312 92.957031 C 24.648438 93.328125 24.792969 93.699219 25.082031 93.9375 C 25.371094 94.175781 25.761719 94.25 26.113281 94.132812 Z M 26.113281 94.132812 "/>
<path style=" stroke:none;fill-rule:nonzero;fill:rgb(34.117647%,35.294118%,53.333333%);fill-opacity:1;" d="M 7.25 94.980469 L 13.316406 95.375 C 13.644531 95.394531 13.960938 95.273438 14.191406 95.039062 C 14.417969 94.804688 14.535156 94.484375 14.507812 94.15625 C 14.472656 93.703125 14.167969 93.316406 13.738281 93.175781 L 12.488281 92.765625 L 12.121094 92.304688 C 12.042969 92.203125 11.90625 92.164062 11.789062 92.207031 C 11.667969 92.25 11.589844 92.367188 11.589844 92.492188 L 11.597656 93.742188 L 7.265625 91.617188 L 6.339844 93.300781 C 6.148438 93.640625 6.148438 94.050781 6.335938 94.390625 C 6.519531 94.734375 6.863281 94.953125 7.25 94.980469 Z M 7.25 94.980469 "/>
<path style=" stroke:none;fill-rule:nonzero;fill:rgb(100%,72.156863%,72.156863%);fill-opacity:1;" d="M 24.261719 18.710938 C 24.261719 20.984375 22.425781 22.828125 20.164062 22.828125 C 17.90625 22.828125 16.074219 20.984375 16.074219 18.710938 C 16.074219 16.4375 17.90625 14.597656 20.164062 14.597656 C 22.425781 14.597656 24.261719 16.4375 24.261719 18.710938 Z M 24.261719 18.710938 "/>
<path style=" stroke:none;fill-rule:nonzero;fill:rgb(100%,72.156863%,72.156863%);fill-opacity:1;" d="M 17.511719 26.273438 L 23.152344 26.273438 L 23.152344 20.824219 L 17.511719 20.824219 C 17.976562 22.507812 17.917969 24.34375 17.511719 26.273438 Z M 17.511719 26.273438 "/>
<path style=" stroke:none;fill-rule:nonzero;fill:rgb(33.333333%,65.882353%,99.215686%);fill-opacity:1;" d="M 13.304688 47.40625 L 28.796875 47.625 L 30.34375 31.179688 C 30.34375 28.976562 28.949219 27.023438 26.878906 26.3125 L 24.480469 25.496094 L 23.152344 23.9375 C 21.476562 23.574219 19.652344 23.664062 17.730469 24.050781 L 16.292969 26.164062 L 14.746094 26.660156 C 12.582031 27.351562 11.136719 29.402344 11.203125 31.683594 C 12.355469 37.664062 13.25 43.226562 13.304688 47.40625 Z M 13.304688 47.40625 "/>
<path style=" stroke:none;fill-rule:nonzero;fill:rgb(33.333333%,65.882353%,99.215686%);fill-opacity:1;" d="M 4.898438 56.191406 L 8.769531 56.636719 L 13.195312 38.730469 L 13.636719 27.164062 L 13.507812 27.226562 C 11.429688 28.238281 9.949219 30.171875 9.507812 32.449219 Z M 4.898438 56.191406 "/>
<path style=" stroke:none;fill-rule:nonzero;fill:rgb(33.333333%,65.882353%,99.215686%);fill-opacity:1;" d="M 38.753906 49.515625 L 41.742188 48.070312 L 32.976562 31.636719 C 31.707031 29.25 29.636719 27.390625 27.136719 26.386719 L 28.796875 36.839844 Z M 38.753906 49.515625 "/>
<path style=" stroke:none;fill-rule:nonzero;fill:rgb(18.431373%,18.039216%,25.490196%);fill-opacity:1;" d="M 17.636719 22.414062 C 17.636719 22.414062 21.648438 22.175781 21.738281 21.476562 C 21.824219 20.78125 22.410156 19.1875 23.105469 19.273438 C 23.800781 19.363281 25.722656 17.035156 25.3125 16.097656 C 24.898438 15.160156 22.953125 11.707031 18.980469 13.296875 C 15.011719 14.890625 15.46875 18.882812 15.878906 19.820312 C 16.289062 20.757812 17.636719 22.414062 17.636719 22.414062 Z M 17.636719 22.414062 "/>
<path style=" stroke:none;fill-rule:nonzero;fill:rgb(33.333333%,65.882353%,99.215686%);fill-opacity:1;" d="M 115.875 72.851562 C 115.785156 72.851562 115.707031 72.914062 115.679688 73 L 115.359375 74.203125 C 115.34375 74.265625 115.355469 74.328125 115.394531 74.378906 C 115.429688 74.429688 115.488281 74.457031 115.550781 74.457031 L 121.683594 74.457031 C 121.746094 74.457031 121.808594 74.425781 121.847656 74.375 C 121.882812 74.320312 121.894531 74.253906 121.871094 74.191406 L 121.457031 72.988281 C 121.429688 72.90625 121.355469 72.851562 121.269531 72.851562 Z M 115.875 72.851562 "/>
<path style=" stroke:none;fill-rule:nonzero;fill:rgb(33.333333%,65.882353%,99.215686%);fill-opacity:1;" d="M 106.921875 72.851562 C 106.832031 72.851562 106.75 72.914062 106.726562 73 L 106.40625 74.203125 C 106.390625 74.265625 106.402344 74.328125 106.441406 74.378906 C 106.476562 74.429688 106.535156 74.457031 106.597656 74.457031 L 112.730469 74.457031 C 112.796875 74.457031 112.855469 74.425781 112.894531 74.375 C 112.929688 74.320312 112.941406 74.253906 112.917969 74.191406 L 112.503906 72.988281 C 112.476562 72.90625 112.402344 72.851562 112.316406 72.851562 Z M 106.921875 72.851562 "/>
</g>
</svg>
