<?xml version="1.0" encoding="UTF-8"?>
<svg xmlns="http://www.w3.org/2000/svg" xmlns:xlink="http://www.w3.org/1999/xlink" width="115pt" height="137pt" viewBox="0 0 115 137" version="1.1">
<g id="surface1">
<path style=" stroke:none;fill-rule:nonzero;fill:rgb(24.705882%,23.921569%,33.72549%);fill-opacity:1;" d="M 68.355469 32.523438 L 67.601562 32.523438 L 67.601562 11.921875 C 67.601562 5.335938 62.253906 0 55.660156 0 L 11.941406 0 C 5.347656 0 0 5.335938 0 11.921875 L 0 124.933594 C 0 131.519531 5.347656 136.859375 11.941406 136.859375 L 55.660156 136.859375 C 62.253906 136.859375 67.601562 131.519531 67.601562 124.933594 L 67.601562 47.1875 L 68.355469 47.1875 Z M 68.355469 32.523438 "/>
<path style=" stroke:none;fill-rule:nonzero;fill:rgb(100%,100%,100%);fill-opacity:1;" d="M 65.058594 12.003906 L 65.058594 124.851562 C 65.058594 129.296875 61.777344 133.058594 57.367188 133.671875 C 56.960938 133.726562 56.550781 133.757812 56.140625 133.757812 L 12.210938 133.757812 C 11.800781 133.757812 11.390625 133.726562 10.984375 133.671875 C 6.578125 133.058594 3.296875 129.296875 3.296875 124.851562 L 3.296875 12.003906 C 3.296875 7.089844 7.289062 3.101562 12.214844 3.101562 L 17.542969 3.101562 C 17.007812 4.40625 17.164062 5.890625 17.949219 7.058594 C 18.734375 8.230469 20.054688 8.929688 21.46875 8.929688 L 46.511719 8.929688 C 47.921875 8.929688 49.242188 8.230469 50.027344 7.058594 C 50.816406 5.890625 50.96875 4.40625 50.433594 3.101562 L 56.140625 3.101562 C 61.066406 3.101562 65.058594 7.089844 65.058594 12.003906 Z M 65.058594 12.003906 "/>
<path style=" stroke:none;fill-rule:nonzero;fill:rgb(90.196078%,90.196078%,90.196078%);fill-opacity:1;" d="M 65.058594 96.25 L 65.058594 124.851562 C 65.058594 129.296875 61.777344 133.058594 57.367188 133.671875 L 10.984375 133.671875 C 6.578125 133.058594 3.296875 129.296875 3.296875 124.851562 L 3.296875 96.25 Z M 65.058594 96.25 "/>
<path style=" stroke:none;fill-rule:nonzero;fill:rgb(100%,100%,100%);fill-opacity:1;" d="M 40.078125 114.960938 C 40.078125 118.214844 37.4375 120.851562 34.175781 120.851562 C 30.917969 120.851562 28.277344 118.214844 28.277344 114.960938 C 28.277344 111.707031 30.917969 109.070312 34.175781 109.070312 C 37.4375 109.070312 40.078125 111.707031 40.078125 114.960938 Z M 40.078125 114.960938 "/>
<path style=" stroke:none;fill-rule:nonzero;fill:rgb(90.196078%,90.196078%,90.196078%);fill-opacity:1;" d="M 37.71875 114.960938 L 34.53125 114.960938 L 34.53125 111.78125 L 33.824219 111.78125 L 33.824219 114.960938 L 30.636719 114.960938 L 30.636719 115.667969 L 33.824219 115.667969 L 33.824219 118.847656 L 34.53125 118.847656 L 34.53125 115.667969 L 37.71875 115.667969 Z M 37.71875 114.960938 "/>
<path style=" stroke:none;fill-rule:nonzero;fill:rgb(100%,72.54902%,72.54902%);fill-opacity:1;" d="M 44.652344 77.933594 L 44.652344 83.222656 L 41.933594 86.371094 C 41.933594 86.371094 40.785156 85.941406 40.785156 83.082031 L 40.355469 78.933594 Z M 44.652344 77.933594 "/>
<path style=" stroke:none;fill-rule:nonzero;fill:rgb(100%,72.54902%,72.54902%);fill-opacity:1;" d="M 41.933594 83.222656 C 41.933594 83.222656 46.371094 80.222656 46.515625 79.222656 C 46.65625 78.21875 50.773438 73.714844 51.957031 76.503906 C 53.074219 79.136719 48.550781 81.394531 48.550781 81.394531 C 48.550781 81.394531 45.367188 87.226562 43.21875 87.085938 C 41.074219 86.941406 41.074219 84.226562 41.933594 83.222656 Z M 41.933594 83.222656 "/>
<path style=" stroke:none;fill-rule:nonzero;fill:rgb(100%,72.54902%,72.54902%);fill-opacity:1;" d="M 39.355469 115.394531 L 38.925781 117.964844 L 41.214844 117.394531 L 41.214844 115.394531 Z M 39.355469 115.394531 "/>
<path style=" stroke:none;fill-rule:nonzero;fill:rgb(18.431373%,18.039216%,25.490196%);fill-opacity:1;" d="M 39.785156 116.824219 C 39.785156 116.824219 42.433594 115.257812 42.539062 115.96875 C 42.648438 116.679688 43.792969 119.394531 44.367188 119.683594 C 44.941406 119.96875 45.65625 123.113281 44.367188 122.96875 C 43.367188 122.859375 39.707031 120.949219 38.105469 120.09375 C 37.699219 119.871094 37.53125 119.371094 37.730469 118.949219 C 37.824219 118.777344 37.886719 118.589844 37.921875 118.394531 C 37.921875 118.109375 39.785156 116.824219 39.785156 116.824219 Z M 39.785156 116.824219 "/>
<path style=" stroke:none;fill-rule:nonzero;fill:rgb(18.431373%,18.039216%,25.490196%);fill-opacity:1;" d="M 38.496094 87.800781 C 38.496094 87.800781 48.949219 92.660156 47.945312 96.378906 C 46.945312 100.09375 43.21875 115.820312 43.21875 115.820312 C 43.21875 115.820312 39.066406 116.824219 38.78125 115.820312 C 38.496094 114.820312 41.5 99.238281 41.214844 98.664062 C 40.929688 98.09375 35.628906 94.375 35.628906 94.375 L 24.746094 89.800781 L 29.328125 85.511719 Z M 38.496094 87.800781 "/>
<path style=" stroke:none;fill-rule:nonzero;fill:rgb(100%,72.54902%,72.54902%);fill-opacity:1;" d="M 46.371094 116.25 L 47.660156 119.539062 L 45.367188 120.539062 L 43.9375 117.964844 Z M 46.371094 116.25 "/>
<path style=" stroke:none;fill-rule:nonzero;fill:rgb(100%,72.54902%,72.54902%);fill-opacity:1;" d="M 38.636719 64.351562 C 38.636719 64.351562 37.347656 66.066406 38.351562 66.925781 C 39.355469 67.785156 38.636719 70.929688 38.636719 70.929688 L 37.347656 74.503906 L 32.195312 73.503906 L 32.195312 67.640625 L 32.480469 64.78125 C 32.480469 64.78125 35.058594 62.351562 35.34375 60.492188 C 35.628906 58.632812 38.636719 64.351562 38.636719 64.351562 Z M 38.636719 64.351562 "/>
<path style=" stroke:none;fill-rule:nonzero;fill:rgb(18.431373%,18.039216%,25.490196%);fill-opacity:1;" d="M 30.046875 86.65625 C 30.046875 86.65625 36.777344 94.089844 36.777344 94.375 C 36.777344 94.664062 40.355469 100.523438 40.355469 100.523438 L 47.375 116.109375 C 47.375 116.109375 44.652344 119.824219 43.507812 119.539062 C 42.359375 119.253906 34.199219 102.667969 34.199219 102.667969 C 34.199219 102.667969 32.765625 98.949219 28.898438 98.09375 C 25.035156 97.234375 22.027344 94.234375 23.457031 90.800781 C 24.890625 87.371094 30.046875 86.65625 30.046875 86.65625 Z M 30.046875 86.65625 "/>
<path style=" stroke:none;fill-rule:nonzero;fill:rgb(100%,72.54902%,72.54902%);fill-opacity:1;" d="M 43.21875 60.777344 C 43.21875 63.304688 41.167969 65.351562 38.636719 65.351562 C 36.105469 65.351562 34.054688 63.304688 34.054688 60.777344 C 34.054688 58.25 36.105469 56.203125 38.636719 56.203125 C 41.167969 56.203125 43.21875 58.25 43.21875 60.777344 Z M 43.21875 60.777344 "/>
<path style=" stroke:none;fill-rule:nonzero;fill:rgb(33.333333%,65.882353%,99.215686%);fill-opacity:1;" d="M 38.496094 68.210938 C 38.496094 68.210938 37.921875 71.5 37.347656 71.785156 C 36.777344 72.074219 36.347656 73.074219 35.058594 71.644531 C 33.769531 70.214844 32.625 67.355469 32.625 67.355469 L 28.183594 72.789062 L 27.753906 87.800781 C 27.753906 87.800781 32.765625 86.511719 34.34375 87.800781 C 35.917969 89.085938 39.355469 88.941406 39.355469 88.941406 L 38.636719 86.085938 L 39.210938 81.222656 L 39.066406 76.789062 L 38.925781 73.644531 Z M 38.496094 68.210938 "/>
<path style=" stroke:none;fill-rule:nonzero;fill:rgb(24.705882%,23.921569%,33.72549%);fill-opacity:1;" d="M 37.992188 65.804688 C 37.992188 65.804688 39.925781 66.78125 40.070312 67.355469 C 40.214844 67.925781 42.792969 69.070312 42.792969 69.070312 C 42.792969 69.070312 43.792969 70.070312 43.792969 70.644531 C 43.792969 71.214844 40.355469 77.792969 40.355469 77.792969 C 40.355469 77.792969 39.640625 82.222656 39.925781 83.082031 C 40.214844 83.9375 39.355469 87.226562 39.355469 87.226562 L 41.074219 89.230469 L 39.496094 89.230469 C 39.496094 89.230469 37.777344 88.371094 37.777344 87.941406 C 37.777344 87.511719 38.066406 84.511719 38.207031 83.222656 C 38.351562 81.9375 38.351562 77.363281 38.066406 75.789062 C 37.777344 74.21875 37.921875 70.070312 37.921875 69.070312 C 37.921875 68.070312 37.992188 65.804688 37.992188 65.804688 Z M 37.992188 65.804688 "/>
<path style=" stroke:none;fill-rule:nonzero;fill:rgb(24.705882%,23.921569%,33.72549%);fill-opacity:1;" d="M 33.554688 63.636719 C 33.554688 63.636719 32.910156 63.78125 31.046875 64.351562 C 29.1875 64.925781 26.320312 65.78125 25.320312 66.925781 C 24.617188 67.773438 23.992188 68.679688 23.457031 69.640625 L 24.03125 79.9375 C 24.03125 79.9375 22.886719 82.082031 23.027344 83.222656 C 23.171875 84.367188 24.316406 84.511719 23.457031 86.941406 C 22.597656 89.371094 20.878906 91.515625 22.453125 91.804688 C 24.03125 92.089844 28.183594 91.089844 30.046875 91.660156 C 31.90625 92.230469 34.054688 89.515625 34.054688 89.515625 C 34.054688 89.515625 31.191406 89.800781 31.621094 88.65625 C 32.050781 87.511719 36.777344 74.648438 35.773438 71.785156 C 34.769531 68.929688 33.554688 63.636719 33.554688 63.636719 Z M 33.554688 63.636719 "/>
<path style=" stroke:none;fill-rule:nonzero;fill:rgb(24.705882%,23.921569%,33.72549%);fill-opacity:1;" d="M 43.078125 69.929688 L 43.792969 70.5 C 43.792969 70.5 45.796875 77.648438 45.226562 78.363281 C 44.652344 79.078125 40.070312 80.652344 39.785156 79.652344 C 39.496094 78.648438 43.078125 69.929688 43.078125 69.929688 Z M 43.078125 69.929688 "/>
<path style=" stroke:none;fill-rule:nonzero;fill:rgb(100%,72.54902%,72.54902%);fill-opacity:1;" d="M 21.882812 74.933594 C 21.882812 74.933594 19.734375 81.078125 19.734375 82.796875 C 19.734375 84.511719 20.019531 94.519531 20.019531 94.519531 C 20.019531 94.519531 21.453125 100.527344 24.460938 98.8125 C 27.46875 97.09375 23.171875 94.234375 23.171875 94.234375 C 23.171875 94.234375 23.316406 82.9375 24.460938 81.367188 C 25.605469 79.792969 26.035156 77.503906 26.035156 77.503906 Z M 21.882812 74.933594 "/>
<path style=" stroke:none;fill-rule:nonzero;fill:rgb(18.431373%,18.039216%,25.490196%);fill-opacity:1;" d="M 45.367188 119.394531 C 45.367188 119.394531 47.515625 118.253906 47.945312 119.109375 C 48.375 119.96875 50.667969 124.6875 50.382812 125.257812 C 50.09375 125.832031 48.519531 128.117188 46.65625 127.546875 C 44.796875 126.972656 44.652344 123.972656 44.652344 123.972656 L 44.507812 120.539062 Z M 45.367188 119.394531 "/>
<path style=" stroke:none;fill-rule:nonzero;fill:rgb(18.431373%,18.039216%,25.490196%);fill-opacity:1;" d="M 39.535156 59.671875 C 39.21875 59.820312 38.84375 59.910156 38.648438 60.195312 C 38.5 60.410156 38.484375 60.683594 38.378906 60.917969 C 38.132812 61.402344 37.558594 61.613281 37.058594 61.402344 C 37 61.117188 36.835938 60.863281 36.597656 60.699219 C 36.347656 60.535156 36.023438 60.554688 35.796875 60.742188 C 35.5 61.023438 35.605469 61.511719 35.46875 61.894531 C 35.335938 62.164062 35.160156 62.410156 34.941406 62.613281 C 34.628906 62.976562 34.378906 63.398438 34.003906 63.691406 C 33.625 63.988281 33.050781 64.113281 32.675781 63.816406 C 32.363281 63.566406 32.296875 63.105469 32.375 62.710938 C 32.449219 62.316406 32.640625 61.953125 32.746094 61.566406 C 33.09375 60.308594 32.539062 58.964844 32.710938 57.671875 C 32.929688 56.011719 34.34375 54.703125 35.917969 54.132812 C 36.574219 53.867188 37.292969 53.792969 37.988281 53.914062 C 38.710938 54.078125 39.328125 54.535156 40.015625 54.796875 C 40.753906 55.078125 41.558594 55.125 42.328125 55.289062 C 43.101562 55.453125 43.898438 55.769531 44.34375 56.417969 C 44.65625 56.871094 44.765625 57.433594 45.023438 57.917969 C 45.324219 58.472656 45.804688 58.90625 46.390625 59.140625 L 45.574219 59.09375 C 45.710938 59.457031 45.933594 59.78125 46.222656 60.042969 C 45.839844 60.121094 45.441406 60.066406 45.09375 59.894531 C 45.105469 60.230469 45.257812 60.550781 45.515625 60.769531 C 44.886719 60.753906 44.222656 60.722656 43.691406 60.386719 C 43.433594 60.222656 43.21875 59.996094 42.976562 59.808594 C 42.453125 59.410156 41.808594 59.222656 41.175781 59.039062 C 40.84375 58.945312 40.445312 58.8125 40.144531 59.027344 C 39.898438 59.203125 39.859375 59.519531 39.535156 59.671875 Z M 39.535156 59.671875 "/>
<path style=" stroke:none;fill-rule:nonzero;fill:rgb(24.705882%,23.921569%,33.72549%);fill-opacity:1;" d="M 25.605469 67.925781 L 23.457031 69.640625 L 20.59375 76.21875 C 20.59375 76.21875 24.601562 79.363281 25.605469 78.933594 C 26.609375 78.507812 28.328125 70.929688 28.328125 70.929688 Z M 25.605469 67.925781 "/>
<path style=" stroke:none;fill-rule:nonzero;fill:rgb(94.901961%,94.901961%,94.901961%);fill-opacity:1;" d="M 53.230469 77.714844 C 53.199219 77.6875 53.152344 77.695312 53.121094 77.730469 C 53.09375 77.765625 53.09375 77.816406 53.125 77.839844 C 53.152344 77.867188 53.199219 77.855469 53.230469 77.820312 C 53.261719 77.785156 53.257812 77.738281 53.230469 77.714844 Z M 53.230469 77.714844 "/>
<path style=" stroke:none;fill-rule:nonzero;fill:rgb(100%,100%,100%);fill-opacity:1;" d="M 51.160156 65.175781 C 50.648438 65.175781 50.230469 65.589844 50.230469 66.105469 L 50.230469 81.648438 C 50.230469 82.160156 50.648438 82.574219 51.160156 82.574219 L 113.925781 82.574219 C 114.4375 82.574219 114.855469 82.160156 114.855469 81.648438 L 114.855469 66.105469 C 114.855469 65.589844 114.4375 65.175781 113.925781 65.175781 Z M 51.160156 65.175781 "/>
<path style=" stroke:none;fill-rule:nonzero;fill:rgb(90.196078%,90.196078%,90.196078%);fill-opacity:1;" d="M 51.160156 65.175781 C 50.648438 65.175781 50.230469 65.589844 50.230469 66.105469 L 50.230469 81.648438 C 50.230469 82.160156 50.648438 82.574219 51.160156 82.574219 L 113.925781 82.574219 C 114.4375 82.574219 114.855469 82.160156 114.855469 81.648438 L 114.855469 66.105469 C 114.855469 65.589844 114.4375 65.175781 113.925781 65.175781 Z M 51.160156 65.175781 "/>
<path style=" stroke:none;fill-rule:nonzero;fill:rgb(100%,100%,100%);fill-opacity:1;" d="M 51.277344 81.53125 L 113.808594 81.53125 L 113.808594 66.21875 L 51.277344 66.21875 Z M 51.277344 81.53125 "/>
<path style=" stroke:none;fill-rule:nonzero;fill:rgb(33.333333%,65.882353%,99.215686%);fill-opacity:1;" d="M 64.179688 73.875 C 64.179688 76.566406 61.992188 78.75 59.296875 78.75 C 56.601562 78.75 54.414062 76.566406 54.414062 73.875 C 54.414062 71.183594 56.601562 69.003906 59.296875 69.003906 C 61.992188 69.003906 64.179688 71.183594 64.179688 73.875 Z M 64.179688 73.875 "/>
<path style=" stroke:none;fill-rule:nonzero;fill:rgb(90.196078%,90.196078%,90.196078%);fill-opacity:1;" d="M 70.570312 70.625 C 70.121094 70.628906 69.757812 70.992188 69.757812 71.4375 C 69.757812 71.886719 70.121094 72.25 70.570312 72.25 L 108.925781 72.25 C 109.378906 72.25 109.742188 71.886719 109.742188 71.4375 C 109.742188 70.992188 109.378906 70.625 108.925781 70.625 Z M 70.570312 70.625 "/>
<path style=" stroke:none;fill-rule:nonzero;fill:rgb(90.196078%,90.196078%,90.196078%);fill-opacity:1;" d="M 70.570312 75.5 C 70.121094 75.5 69.757812 75.863281 69.757812 76.3125 C 69.757812 76.761719 70.121094 77.125 70.570312 77.125 L 108.925781 77.125 C 109.378906 77.125 109.742188 76.761719 109.742188 76.3125 C 109.742188 75.863281 109.378906 75.5 108.925781 75.5 Z M 70.570312 75.5 "/>
<path style=" stroke:none;fill-rule:nonzero;fill:rgb(100%,100%,100%);fill-opacity:1;" d="M 10.984375 18.210938 C 10.605469 18.210938 10.300781 18.515625 10.300781 18.894531 L 10.300781 30.363281 C 10.300781 30.742188 10.605469 31.050781 10.984375 31.050781 L 57.304688 31.050781 C 57.683594 31.050781 57.988281 30.742188 57.988281 30.363281 L 57.988281 18.894531 C 57.988281 18.515625 57.683594 18.210938 57.304688 18.210938 Z M 10.984375 18.210938 "/>
<path style=" stroke:none;fill-rule:nonzero;fill:rgb(90.196078%,90.196078%,90.196078%);fill-opacity:1;" d="M 10.984375 18.210938 C 10.605469 18.210938 10.300781 18.515625 10.300781 18.894531 L 10.300781 30.363281 C 10.300781 30.742188 10.605469 31.050781 10.984375 31.050781 L 57.304688 31.050781 C 57.683594 31.050781 57.988281 30.742188 57.988281 30.363281 L 57.988281 18.894531 C 57.988281 18.515625 57.683594 18.210938 57.304688 18.210938 Z M 10.984375 18.210938 "/>
<path style=" stroke:none;fill-rule:nonzero;fill:rgb(100%,100%,100%);fill-opacity:1;" d="M 11.070312 30.28125 L 57.21875 30.28125 L 57.21875 18.980469 L 11.070312 18.980469 Z M 11.070312 30.28125 "/>
<path style=" stroke:none;fill-rule:nonzero;fill:rgb(33.333333%,65.882353%,99.215686%);fill-opacity:1;" d="M 20.59375 24.628906 C 20.59375 26.617188 18.980469 28.226562 16.988281 28.226562 C 15 28.226562 13.386719 26.617188 13.386719 24.628906 C 13.386719 22.644531 15 21.03125 16.988281 21.03125 C 18.980469 21.03125 20.59375 22.644531 20.59375 24.628906 Z M 20.59375 24.628906 "/>
<path style=" stroke:none;fill-rule:nonzero;fill:rgb(90.196078%,90.196078%,90.196078%);fill-opacity:1;" d="M 25.308594 22.230469 C 24.976562 22.230469 24.710938 22.5 24.710938 22.832031 C 24.710938 23.164062 24.976562 23.429688 25.308594 23.429688 L 53.613281 23.429688 C 53.945312 23.429688 54.214844 23.164062 54.214844 22.832031 C 54.214844 22.5 53.945312 22.230469 53.613281 22.230469 Z M 25.308594 22.230469 "/>
<path style=" stroke:none;fill-rule:nonzero;fill:rgb(90.196078%,90.196078%,90.196078%);fill-opacity:1;" d="M 25.308594 25.828125 C 24.976562 25.828125 24.710938 26.097656 24.710938 26.429688 C 24.710938 26.757812 24.976562 27.027344 25.308594 27.027344 L 53.613281 27.027344 C 53.828125 27.027344 54.027344 26.914062 54.136719 26.726562 C 54.242188 26.542969 54.242188 26.3125 54.136719 26.128906 C 54.027344 25.941406 53.828125 25.828125 53.613281 25.828125 Z M 25.308594 25.828125 "/>
<path style=" stroke:none;fill-rule:nonzero;fill:rgb(100%,100%,100%);fill-opacity:1;" d="M 10.984375 38.707031 C 10.605469 38.707031 10.300781 39.011719 10.300781 39.390625 L 10.300781 50.863281 C 10.300781 51.242188 10.605469 51.546875 10.984375 51.546875 L 57.304688 51.546875 C 57.683594 51.546875 57.988281 51.242188 57.988281 50.863281 L 57.988281 39.390625 C 57.988281 39.011719 57.683594 38.707031 57.304688 38.707031 Z M 10.984375 38.707031 "/>
<path style=" stroke:none;fill-rule:nonzero;fill:rgb(90.196078%,90.196078%,90.196078%);fill-opacity:1;" d="M 10.984375 38.707031 C 10.605469 38.707031 10.300781 39.011719 10.300781 39.390625 L 10.300781 50.863281 C 10.300781 51.242188 10.605469 51.546875 10.984375 51.546875 L 57.304688 51.546875 C 57.683594 51.546875 57.988281 51.242188 57.988281 50.863281 L 57.988281 39.390625 C 57.988281 39.011719 57.683594 38.707031 57.304688 38.707031 Z M 10.984375 38.707031 "/>
<path style=" stroke:none;fill-rule:nonzero;fill:rgb(100%,100%,100%);fill-opacity:1;" d="M 11.070312 50.777344 L 57.21875 50.777344 L 57.21875 39.476562 L 11.070312 39.476562 Z M 11.070312 50.777344 "/>
<path style=" stroke:none;fill-rule:nonzero;fill:rgb(33.333333%,65.882353%,99.215686%);fill-opacity:1;" d="M 20.59375 45.125 C 20.59375 47.113281 18.980469 48.722656 16.988281 48.722656 C 15 48.722656 13.386719 47.113281 13.386719 45.125 C 13.386719 43.140625 15 41.53125 16.988281 41.53125 C 18.980469 41.53125 20.59375 43.140625 20.59375 45.125 Z M 20.59375 45.125 "/>
<path style=" stroke:none;fill-rule:nonzero;fill:rgb(90.196078%,90.196078%,90.196078%);fill-opacity:1;" d="M 25.308594 42.730469 C 24.976562 42.730469 24.710938 42.996094 24.710938 43.328125 C 24.710938 43.660156 24.976562 43.929688 25.308594 43.929688 L 53.613281 43.929688 C 53.945312 43.929688 54.214844 43.660156 54.214844 43.328125 C 54.214844 42.996094 53.945312 42.730469 53.613281 42.730469 Z M 25.308594 42.730469 "/>
<path style=" stroke:none;fill-rule:nonzero;fill:rgb(90.196078%,90.196078%,90.196078%);fill-opacity:1;" d="M 25.308594 46.324219 C 24.976562 46.328125 24.710938 46.59375 24.710938 46.925781 C 24.710938 47.257812 24.976562 47.523438 25.308594 47.523438 L 53.613281 47.523438 C 53.945312 47.523438 54.214844 47.257812 54.214844 46.925781 C 54.214844 46.59375 53.945312 46.324219 53.613281 46.324219 Z M 25.308594 46.324219 "/>
</g>
</svg>
