<?xml version="1.0" encoding="UTF-8"?>
<svg xmlns="http://www.w3.org/2000/svg" xmlns:xlink="http://www.w3.org/1999/xlink" width="96pt" height="96pt" viewBox="0 0 96 96" version="1.1">
<g id="surface1">
<path style=" stroke:none;fill-rule:nonzero;fill:rgb(87.843137%,87.843137%,88.627451%);fill-opacity:1;" d="M 6 10.5 L 90 10.5 C 91.65625 10.5 93 11.84375 93 13.5 L 93 60 C 93 61.65625 91.65625 63 90 63 L 6 63 C 4.34375 63 3 61.65625 3 60 L 3 13.5 C 3 11.84375 4.34375 10.5 6 10.5 Z M 6 10.5 "/>
<path style=" stroke:none;fill-rule:nonzero;fill:rgb(37.254902%,30.196078%,21.568627%);fill-opacity:1;" d="M 45 6 L 51 6 L 51 10.5 L 45 10.5 Z M 45 6 "/>
<path style=" stroke:none;fill-rule:nonzero;fill:rgb(37.254902%,30.196078%,21.568627%);fill-opacity:1;" d="M 24 90 L 18 90 L 24 63 L 30 63 Z M 24 90 "/>
<path style=" stroke:none;fill-rule:nonzero;fill:rgb(37.254902%,30.196078%,21.568627%);fill-opacity:1;" d="M 72 90 L 78 90 L 72 63 L 66 63 Z M 72 90 "/>
<path style=" stroke:none;fill-rule:nonzero;fill:rgb(51.372549%,84.705882%,95.686275%);fill-opacity:1;" d="M 36 15 L 60 15 L 60 36 L 36 36 Z M 36 15 "/>
<path style=" stroke:none;fill-rule:nonzero;fill:rgb(100%,85.490196%,26.666667%);fill-opacity:1;" d="M 7.5 24 L 31.5 24 L 31.5 58.5 L 7.5 58.5 Z M 7.5 24 "/>
<path style=" stroke:none;fill-rule:nonzero;fill:rgb(100%,85.490196%,26.666667%);fill-opacity:1;" d="M 64.5 15 L 88.5 15 L 88.5 28.5 L 64.5 28.5 Z M 64.5 15 "/>
<path style=" stroke:none;fill-rule:nonzero;fill:rgb(100%,85.490196%,26.666667%);fill-opacity:1;" d="M 36 54 L 60 54 L 60 58.5 L 36 58.5 Z M 36 54 "/>
<path style=" stroke:none;fill-rule:nonzero;fill:rgb(100%,59.607843%,6.666667%);fill-opacity:1;" d="M 64.5 33 L 76.5 33 L 76.5 40.5 L 64.5 40.5 Z M 64.5 33 "/>
<path style=" stroke:none;fill-rule:nonzero;fill:rgb(100%,59.607843%,6.666667%);fill-opacity:1;" d="M 7.5 15 L 13.3125 15 L 13.3125 19.5 L 7.5 19.5 Z M 7.5 15 "/>
<path style=" stroke:none;fill-rule:nonzero;fill:rgb(100%,59.607843%,6.666667%);fill-opacity:1;" d="M 81 33 L 88.5 33 L 88.5 40.5 L 81 40.5 Z M 81 33 "/>
<path style=" stroke:none;fill-rule:nonzero;fill:rgb(0%,0%,0%);fill-opacity:1;" d="M 90 9 L 52.5 9 L 52.5 6 C 52.5 5.171875 51.828125 4.5 51 4.5 L 45 4.5 C 44.171875 4.5 43.5 5.171875 43.5 6 L 43.5 9 L 6 9 C 3.515625 9.003906 1.503906 11.015625 1.5 13.5 L 1.5 60 C 1.503906 62.484375 3.515625 64.496094 6 64.5 L 22.132812 64.5 L 16.796875 88.5 L 15 88.5 C 14.171875 88.5 13.5 89.171875 13.5 90 C 13.5 90.828125 14.171875 91.5 15 91.5 L 81 91.5 C 81.828125 91.5 82.5 90.828125 82.5 90 C 82.5 89.171875 81.828125 88.5 81 88.5 L 79.203125 88.5 L 73.867188 64.5 L 90 64.5 C 92.484375 64.496094 94.496094 62.484375 94.5 60 L 94.5 13.5 C 94.496094 11.015625 92.484375 9.003906 90 9 Z M 46.5 7.5 L 49.5 7.5 L 49.5 9 L 46.5 9 Z M 22.796875 88.5 L 19.867188 88.5 L 25.203125 64.5 L 28.132812 64.5 Z M 25.867188 88.5 L 31.203125 64.5 L 64.796875 64.5 L 70.132812 88.5 Z M 76.132812 88.5 L 73.203125 88.5 L 67.867188 64.5 L 70.796875 64.5 Z M 91.5 60 C 91.5 60.828125 90.828125 61.5 90 61.5 L 6 61.5 C 5.171875 61.5 4.5 60.828125 4.5 60 L 4.5 13.5 C 4.5 12.671875 5.171875 12 6 12 L 90 12 C 90.828125 12 91.5 12.671875 91.5 13.5 Z M 91.5 60 "/>
<path style=" stroke:none;fill-rule:nonzero;fill:rgb(0%,0%,0%);fill-opacity:1;" d="M 87 88.5 L 85.5 88.5 C 84.671875 88.5 84 89.171875 84 90 C 84 90.828125 84.671875 91.5 85.5 91.5 L 87 91.5 C 87.828125 91.5 88.5 90.828125 88.5 90 C 88.5 89.171875 87.828125 88.5 87 88.5 Z M 87 88.5 "/>
<path style=" stroke:none;fill-rule:nonzero;fill:rgb(0%,0%,0%);fill-opacity:1;" d="M 60 13.5 L 36 13.5 C 35.171875 13.5 34.5 14.171875 34.5 15 L 34.5 36 C 34.5 36.828125 35.171875 37.5 36 37.5 L 60 37.5 C 60.828125 37.5 61.5 36.828125 61.5 36 L 61.5 15 C 61.5 14.171875 60.828125 13.5 60 13.5 Z M 58.5 34.5 L 37.5 34.5 L 37.5 16.5 L 58.5 16.5 Z M 58.5 34.5 "/>
<path style=" stroke:none;fill-rule:nonzero;fill:rgb(0%,0%,0%);fill-opacity:1;" d="M 31.5 22.5 L 7.5 22.5 C 6.671875 22.5 6 23.171875 6 24 L 6 58.5 C 6 59.328125 6.671875 60 7.5 60 L 31.5 60 C 32.328125 60 33 59.328125 33 58.5 L 33 24 C 33 23.171875 32.328125 22.5 31.5 22.5 Z M 30 57 L 9 57 L 9 25.5 L 30 25.5 Z M 30 57 "/>
<path style=" stroke:none;fill-rule:nonzero;fill:rgb(0%,0%,0%);fill-opacity:1;" d="M 88.5 13.5 L 64.5 13.5 C 63.671875 13.5 63 14.171875 63 15 L 63 28.5 C 63 29.328125 63.671875 30 64.5 30 L 88.5 30 C 89.328125 30 90 29.328125 90 28.5 L 90 15 C 90 14.171875 89.328125 13.5 88.5 13.5 Z M 87 27 L 66 27 L 66 16.5 L 87 16.5 Z M 87 27 "/>
<path style=" stroke:none;fill-rule:nonzero;fill:rgb(0%,0%,0%);fill-opacity:1;" d="M 60 52.5 L 36 52.5 C 35.171875 52.5 34.5 53.171875 34.5 54 L 34.5 58.5 C 34.5 59.328125 35.171875 60 36 60 L 60 60 C 60.828125 60 61.5 59.328125 61.5 58.5 L 61.5 54 C 61.5 53.171875 60.828125 52.5 60 52.5 Z M 58.5 57 L 37.5 57 L 37.5 55.5 L 58.5 55.5 Z M 58.5 57 "/>
<path style=" stroke:none;fill-rule:nonzero;fill:rgb(0%,0%,0%);fill-opacity:1;" d="M 64.5 42 L 76.5 42 C 77.328125 42 78 41.328125 78 40.5 L 78 33 C 78 32.171875 77.328125 31.5 76.5 31.5 L 64.5 31.5 C 63.671875 31.5 63 32.171875 63 33 L 63 40.5 C 63 41.328125 63.671875 42 64.5 42 Z M 66 34.5 L 75 34.5 L 75 39 L 66 39 Z M 66 34.5 "/>
<path style=" stroke:none;fill-rule:nonzero;fill:rgb(0%,0%,0%);fill-opacity:1;" d="M 7.5 21 L 13.3125 21 C 14.140625 21 14.8125 20.328125 14.8125 19.5 L 14.8125 15 C 14.8125 14.171875 14.140625 13.5 13.3125 13.5 L 7.5 13.5 C 6.671875 13.5 6 14.171875 6 15 L 6 19.5 C 6 20.328125 6.671875 21 7.5 21 Z M 9 16.5 L 11.8125 16.5 L 11.8125 18 L 9 18 Z M 9 16.5 "/>
<path style=" stroke:none;fill-rule:nonzero;fill:rgb(0%,0%,0%);fill-opacity:1;" d="M 31.5 13.5 L 18 13.5 C 17.171875 13.5 16.5 14.171875 16.5 15 C 16.5 15.828125 17.171875 16.5 18 16.5 L 31.5 16.5 C 32.328125 16.5 33 15.828125 33 15 C 33 14.171875 32.328125 13.5 31.5 13.5 Z M 31.5 13.5 "/>
<path style=" stroke:none;fill-rule:nonzero;fill:rgb(0%,0%,0%);fill-opacity:1;" d="M 22.5 21 C 23.328125 21 24 20.328125 24 19.5 C 24 18.671875 23.328125 18 22.5 18 L 18 18 C 17.171875 18 16.5 18.671875 16.5 19.5 C 16.5 20.328125 17.171875 21 18 21 Z M 22.5 21 "/>
<path style=" stroke:none;fill-rule:nonzero;fill:rgb(0%,0%,0%);fill-opacity:1;" d="M 28.5 21 C 29.328125 21 30 20.328125 30 19.5 C 30 18.671875 29.328125 18 28.5 18 L 27 18 C 26.171875 18 25.5 18.671875 25.5 19.5 C 25.5 20.328125 26.171875 21 27 21 Z M 28.5 21 "/>
<path style=" stroke:none;fill-rule:nonzero;fill:rgb(0%,0%,0%);fill-opacity:1;" d="M 60 39 L 36 39 C 35.171875 39 34.5 39.671875 34.5 40.5 C 34.5 41.328125 35.171875 42 36 42 L 60 42 C 60.828125 42 61.5 41.328125 61.5 40.5 C 61.5 39.671875 60.828125 39 60 39 Z M 60 39 "/>
<path style=" stroke:none;fill-rule:nonzero;fill:rgb(0%,0%,0%);fill-opacity:1;" d="M 60 43.5 L 36 43.5 C 35.171875 43.5 34.5 44.171875 34.5 45 C 34.5 45.828125 35.171875 46.5 36 46.5 L 60 46.5 C 60.828125 46.5 61.5 45.828125 61.5 45 C 61.5 44.171875 60.828125 43.5 60 43.5 Z M 60 43.5 "/>
<path style=" stroke:none;fill-rule:nonzero;fill:rgb(0%,0%,0%);fill-opacity:1;" d="M 36 51 L 54 51 C 54.828125 51 55.5 50.328125 55.5 49.5 C 55.5 48.671875 54.828125 48 54 48 L 36 48 C 35.171875 48 34.5 48.671875 34.5 49.5 C 34.5 50.328125 35.171875 51 36 51 Z M 36 51 "/>
<path style=" stroke:none;fill-rule:nonzero;fill:rgb(0%,0%,0%);fill-opacity:1;" d="M 60 48 L 58.5 48 C 57.671875 48 57 48.671875 57 49.5 C 57 50.328125 57.671875 51 58.5 51 L 60 51 C 60.828125 51 61.5 50.328125 61.5 49.5 C 61.5 48.671875 60.828125 48 60 48 Z M 60 48 "/>
<path style=" stroke:none;fill-rule:nonzero;fill:rgb(0%,0%,0%);fill-opacity:1;" d="M 88.5 43.5 L 64.5 43.5 C 63.671875 43.5 63 44.171875 63 45 C 63 45.828125 63.671875 46.5 64.5 46.5 L 88.5 46.5 C 89.328125 46.5 90 45.828125 90 45 C 90 44.171875 89.328125 43.5 88.5 43.5 Z M 88.5 43.5 "/>
<path style=" stroke:none;fill-rule:nonzero;fill:rgb(0%,0%,0%);fill-opacity:1;" d="M 88.5 52.5 L 64.5 52.5 C 63.671875 52.5 63 53.171875 63 54 C 63 54.828125 63.671875 55.5 64.5 55.5 L 88.5 55.5 C 89.328125 55.5 90 54.828125 90 54 C 90 53.171875 89.328125 52.5 88.5 52.5 Z M 88.5 52.5 "/>
<path style=" stroke:none;fill-rule:nonzero;fill:rgb(0%,0%,0%);fill-opacity:1;" d="M 64.5 51 L 82.5 51 C 83.328125 51 84 50.328125 84 49.5 C 84 48.671875 83.328125 48 82.5 48 L 64.5 48 C 63.671875 48 63 48.671875 63 49.5 C 63 50.328125 63.671875 51 64.5 51 Z M 64.5 51 "/>
<path style=" stroke:none;fill-rule:nonzero;fill:rgb(0%,0%,0%);fill-opacity:1;" d="M 88.5 48 L 87 48 C 86.171875 48 85.5 48.671875 85.5 49.5 C 85.5 50.328125 86.171875 51 87 51 L 88.5 51 C 89.328125 51 90 50.328125 90 49.5 C 90 48.671875 89.328125 48 88.5 48 Z M 88.5 48 "/>
<path style=" stroke:none;fill-rule:nonzero;fill:rgb(0%,0%,0%);fill-opacity:1;" d="M 82.5 57 L 64.5 57 C 63.671875 57 63 57.671875 63 58.5 C 63 59.328125 63.671875 60 64.5 60 L 82.5 60 C 83.328125 60 84 59.328125 84 58.5 C 84 57.671875 83.328125 57 82.5 57 Z M 82.5 57 "/>
<path style=" stroke:none;fill-rule:nonzero;fill:rgb(0%,0%,0%);fill-opacity:1;" d="M 88.5 57 L 87 57 C 86.171875 57 85.5 57.671875 85.5 58.5 C 85.5 59.328125 86.171875 60 87 60 L 88.5 60 C 89.328125 60 90 59.328125 90 58.5 C 90 57.671875 89.328125 57 88.5 57 Z M 88.5 57 "/>
<path style=" stroke:none;fill-rule:nonzero;fill:rgb(0%,0%,0%);fill-opacity:1;" d="M 88.5 31.5 L 81 31.5 C 80.171875 31.5 79.5 32.171875 79.5 33 L 79.5 40.5 C 79.5 41.328125 80.171875 42 81 42 L 88.5 42 C 89.328125 42 90 41.328125 90 40.5 L 90 33 C 90 32.171875 89.328125 31.5 88.5 31.5 Z M 87 39 L 82.5 39 L 82.5 34.5 L 87 34.5 Z M 87 39 "/>
</g>
</svg>
