<?xml version="1.0" encoding="UTF-8"?>
<svg xmlns="http://www.w3.org/2000/svg" xmlns:xlink="http://www.w3.org/1999/xlink" width="250pt" height="129pt" viewBox="0 0 250 129" version="1.1">
<g id="surface1">
<path style=" stroke:none;fill-rule:nonzero;fill:rgb(81.568627%,80.392157%,88.235294%);fill-opacity:1;" d="M 12.542969 120.578125 L 23.28125 103.488281 L 12.539062 122.441406 L 12.535156 124.386719 C 11.769531 124.378906 11.007812 124.347656 10.257812 124.300781 L 11.136719 99.28125 L 11.125 99.089844 L 11.144531 99.054688 L 11.226562 96.6875 L 0 77.957031 L 11.238281 94.917969 L 11.273438 95.417969 L 11.933594 76.519531 L 2.28125 57.140625 L 12.007812 73.199219 L 12.460938 34.023438 L 12.464844 33.890625 L 12.464844 34.019531 L 12.683594 64.90625 L 21.90625 52.550781 L 12.675781 67.566406 L 12.632812 84.484375 L 21.191406 68.148438 L 12.628906 86.972656 L 12.605469 96.378906 L 25.035156 73.628906 L 12.597656 99.660156 Z M 12.542969 120.578125 "/>
<path style=" stroke:none;fill-rule:nonzero;fill:rgb(24.705882%,23.921569%,33.72549%);fill-opacity:1;" d="M 160.230469 48.441406 L 163.25 48.441406 L 163.25 69.9375 L 160.230469 69.9375 Z M 160.230469 48.441406 "/>
<path style=" stroke:none;fill-rule:nonzero;fill:rgb(24.705882%,23.921569%,33.72549%);fill-opacity:1;" d="M 50.417969 5.5 L 51.554688 2.695312 L 163.257812 48.167969 L 162.121094 50.972656 Z M 50.417969 5.5 "/>
<path style=" stroke:none;fill-rule:nonzero;fill:rgb(81.568627%,80.392157%,88.235294%);fill-opacity:1;" d="M 249.875 123.421875 C 245.199219 131.257812 -0.246094 130.601562 0.125 123.421875 C 4.800781 115.589844 250.246094 116.246094 249.875 123.421875 Z M 249.875 123.421875 "/>
<path style=" stroke:none;fill-rule:nonzero;fill:rgb(24.705882%,23.921569%,33.72549%);fill-opacity:1;" d="M 192.832031 91.738281 L 219.09375 91.738281 L 219.09375 102.03125 L 192.832031 102.03125 Z M 192.832031 91.738281 "/>
<path style=" stroke:none;fill-rule:nonzero;fill:rgb(24.705882%,23.921569%,33.72549%);fill-opacity:1;" d="M 87.183594 100.820312 L 216.679688 100.820312 L 216.679688 112.324219 L 87.183594 112.324219 Z M 87.183594 100.820312 "/>
<path style=" stroke:none;fill-rule:nonzero;fill:rgb(81.568627%,80.392157%,88.235294%);fill-opacity:1;" d="M 195.398438 106.570312 L 164.308594 106.570312 L 164.308594 67.363281 L 187.550781 67.363281 L 195.398438 87.140625 Z M 195.398438 106.570312 "/>
<path style=" stroke:none;fill-rule:nonzero;fill:rgb(100%,100%,100%);fill-opacity:1;" d="M 169.136719 69.785156 L 182.417969 69.785156 L 182.417969 83.109375 L 169.136719 83.109375 Z M 169.136719 69.785156 "/>
<path style=" stroke:none;fill-rule:nonzero;fill:rgb(100%,100%,100%);fill-opacity:1;" d="M 192.378906 83.257812 L 183.925781 83.257812 L 183.925781 69.9375 L 187.550781 69.9375 Z M 192.378906 83.257812 "/>
<path style=" stroke:none;fill-rule:nonzero;fill:rgb(24.705882%,23.921569%,33.72549%);fill-opacity:1;" d="M 169.742188 90.675781 L 172.757812 90.675781 L 172.757812 96.429688 L 169.742188 96.429688 Z M 169.742188 90.675781 "/>
<path style=" stroke:none;fill-rule:nonzero;fill:rgb(24.705882%,23.921569%,33.72549%);fill-opacity:1;" d="M 186.492188 78.414062 L 186.644531 78.414062 C 188.226562 78.414062 189.511719 79.703125 189.511719 81.292969 C 189.511719 82.878906 188.226562 84.167969 186.644531 84.167969 L 186.492188 84.167969 Z M 186.492188 78.414062 "/>
<path style=" stroke:none;fill-rule:nonzero;fill:rgb(24.705882%,23.921569%,33.72549%);fill-opacity:1;" d="M 74.203125 100.820312 L 74.355469 100.820312 C 75.9375 100.820312 77.222656 102.105469 77.222656 103.695312 C 77.222656 105.285156 75.9375 106.570312 74.355469 106.570312 L 74.203125 106.570312 Z M 74.203125 100.820312 "/>
<path style=" stroke:none;fill-rule:nonzero;fill:rgb(81.568627%,80.392157%,88.235294%);fill-opacity:1;" d="M 207.472656 100.777344 C 212.074219 100.777344 216.210938 103.011719 219.082031 106.570312 L 224.980469 106.570312 L 219.246094 90.546875 L 192.53125 85.261719 L 193.285156 106.570312 L 195.863281 106.570312 C 198.734375 103.011719 202.871094 100.777344 207.472656 100.777344 Z M 207.472656 100.777344 "/>
<path style=" stroke:none;fill-rule:nonzero;fill:rgb(24.705882%,23.921569%,33.72549%);fill-opacity:1;" d="M 220.90625 110.355469 C 220.90625 117.628906 215.027344 123.527344 207.773438 123.527344 C 200.523438 123.527344 194.644531 117.628906 194.644531 110.355469 C 194.644531 103.082031 200.523438 97.1875 207.773438 97.1875 C 215.027344 97.1875 220.90625 103.082031 220.90625 110.355469 Z M 220.90625 110.355469 "/>
<path style=" stroke:none;fill-rule:nonzero;fill:rgb(81.568627%,80.392157%,88.235294%);fill-opacity:1;" d="M 214.683594 110.355469 C 214.683594 114.183594 211.589844 117.289062 207.773438 117.289062 C 203.957031 117.289062 200.863281 114.183594 200.863281 110.355469 C 200.863281 106.527344 203.957031 103.425781 207.773438 103.425781 C 211.589844 103.425781 214.683594 106.527344 214.683594 110.355469 Z M 214.683594 110.355469 "/>
<path style=" stroke:none;fill-rule:nonzero;fill:rgb(24.705882%,23.921569%,33.72549%);fill-opacity:1;" d="M 100.617188 111.871094 C 100.617188 118.222656 95.480469 123.375 89.144531 123.375 C 82.808594 123.375 77.675781 118.222656 77.675781 111.871094 C 77.675781 105.515625 82.808594 100.367188 89.144531 100.367188 C 95.480469 100.367188 100.617188 105.515625 100.617188 111.871094 Z M 100.617188 111.871094 "/>
<path style=" stroke:none;fill-rule:nonzero;fill:rgb(81.568627%,80.392157%,88.235294%);fill-opacity:1;" d="M 95.183594 111.871094 C 95.183594 115.214844 92.480469 117.925781 89.144531 117.925781 C 85.8125 117.925781 83.109375 115.214844 83.109375 111.871094 C 83.109375 108.527344 85.8125 105.816406 89.144531 105.816406 C 92.480469 105.816406 95.183594 108.527344 95.183594 111.871094 Z M 95.183594 111.871094 "/>
<path style=" stroke:none;fill-rule:nonzero;fill:rgb(24.705882%,23.921569%,33.72549%);fill-opacity:1;" d="M 158.875 61.914062 L 165.210938 61.914062 L 165.210938 107.78125 L 158.875 107.78125 Z M 158.875 61.914062 "/>
<path style=" stroke:none;fill-rule:nonzero;fill:rgb(24.705882%,23.921569%,33.72549%);fill-opacity:1;" d="M 74.050781 99.457031 L 165.210938 99.457031 L 165.210938 102.183594 L 74.050781 102.183594 Z M 74.050781 99.457031 "/>
<path style=" stroke:none;fill-rule:nonzero;fill:rgb(24.705882%,23.921569%,33.72549%);fill-opacity:1;" d="M 25.265625 109.457031 L 124.683594 82.328125 L 125.398438 84.957031 L 25.980469 112.085938 Z M 25.265625 109.457031 "/>
<path style=" stroke:none;fill-rule:nonzero;fill:rgb(24.705882%,23.921569%,33.72549%);fill-opacity:1;" d="M 116.195312 86.890625 L 117.898438 85.632812 L 128.355469 99.910156 L 126.652344 101.164062 Z M 116.195312 86.890625 "/>
<path style=" stroke:none;fill-rule:nonzero;fill:rgb(24.705882%,23.921569%,33.72549%);fill-opacity:1;" d="M 185.285156 83.863281 L 188.304688 83.863281 L 188.304688 85.074219 L 185.285156 85.074219 Z M 185.285156 83.863281 "/>
<path style=" stroke:none;fill-rule:nonzero;fill:rgb(24.705882%,23.921569%,33.72549%);fill-opacity:1;" d="M 161.742188 92.949219 L 122.199219 92.949219 C 122.046875 92.949219 121.921875 92.835938 121.898438 92.6875 C 121.878906 92.539062 121.96875 92.398438 122.113281 92.355469 L 160.75 80.851562 C 160.835938 80.824219 160.929688 80.839844 161.007812 80.890625 C 161.082031 80.941406 161.128906 81.023438 161.136719 81.117188 L 162.042969 92.621094 C 162.050781 92.707031 162.019531 92.789062 161.964844 92.851562 C 161.90625 92.914062 161.824219 92.949219 161.742188 92.949219 Z M 124.277344 92.34375 L 161.414062 92.34375 L 160.5625 81.535156 Z M 124.277344 92.34375 "/>
<path style=" stroke:none;fill-rule:nonzero;fill:rgb(24.705882%,23.921569%,33.72549%);fill-opacity:1;" d="M 54.660156 79.625 L 54.65625 79.625 L 45.992188 79.542969 C 45.90625 79.542969 45.824219 79.507812 45.769531 79.441406 C 45.710938 79.378906 45.6875 79.292969 45.695312 79.207031 L 50.199219 39.804688 C 50.214844 39.652344 50.34375 39.535156 50.496094 39.535156 L 50.5 39.535156 C 50.652344 39.535156 50.78125 39.652344 50.796875 39.804688 L 54.960938 79.292969 C 54.96875 79.378906 54.941406 79.460938 54.886719 79.527344 C 54.828125 79.589844 54.746094 79.625 54.660156 79.625 Z M 46.332031 78.941406 L 54.324219 79.015625 L 50.484375 42.601562 Z M 46.332031 78.941406 "/>
<path style=" stroke:none;fill-rule:nonzero;fill:rgb(24.705882%,23.921569%,33.72549%);fill-opacity:1;" d="M 221.21875 96.164062 L 221.078125 96.214844 C 219.597656 96.777344 217.941406 96.027344 217.378906 94.542969 C 216.820312 93.058594 217.566406 91.398438 219.046875 90.835938 L 219.1875 90.78125 Z M 221.21875 96.164062 "/>
<path style=" stroke:none;fill-rule:nonzero;fill:rgb(24.705882%,23.921569%,33.72549%);fill-opacity:1;" d="M 29.1875 100.292969 L 37.605469 97.929688 L 37.980469 99.269531 L 29.5625 101.632812 Z M 29.1875 100.292969 "/>
<path style=" stroke:none;fill-rule:nonzero;fill:rgb(33.333333%,65.882353%,99.215686%);fill-opacity:1;" d="M 98.578125 81.171875 L 96.953125 82.0625 L 30.929688 100.597656 L 29.949219 99.375 C 28.25 97.285156 27.164062 94.761719 26.8125 92.089844 C 26.5625 90.09375 26.746094 87.988281 28.136719 86.710938 L 25.613281 66.3125 L 62.128906 56.011719 L 79.449219 63.484375 C 79.449219 63.484375 86.082031 61.496094 90.964844 65.003906 C 92.507812 66.117188 93.878906 67.78125 94.808594 70.234375 L 95.605469 72.546875 Z M 98.578125 81.171875 "/>
<path style=" stroke:none;fill-rule:nonzero;fill:rgb(24.705882%,23.921569%,33.72549%);fill-opacity:1;" d="M 92.453125 84.90625 C 92.453125 89.597656 88.660156 93.398438 83.984375 93.398438 C 79.308594 93.398438 75.519531 89.597656 75.519531 84.90625 C 75.519531 80.21875 79.308594 76.414062 83.984375 76.414062 C 88.660156 76.414062 92.453125 80.21875 92.453125 84.90625 Z M 92.453125 84.90625 "/>
<path style=" stroke:none;fill-rule:nonzero;fill:rgb(81.568627%,80.392157%,88.235294%);fill-opacity:1;" d="M 88.441406 84.90625 C 88.441406 87.375 86.445312 89.375 83.984375 89.375 C 81.523438 89.375 79.527344 87.375 79.527344 84.90625 C 79.527344 82.4375 81.523438 80.4375 83.984375 80.4375 C 86.445312 80.4375 88.441406 82.4375 88.441406 84.90625 Z M 88.441406 84.90625 "/>
<path style=" stroke:none;fill-rule:nonzero;fill:rgb(24.705882%,23.921569%,33.72549%);fill-opacity:1;" d="M 52.222656 96.203125 C 52.222656 100.890625 48.429688 104.695312 43.753906 104.695312 C 39.078125 104.695312 35.289062 100.890625 35.289062 96.203125 C 35.289062 91.511719 39.078125 87.710938 43.753906 87.710938 C 48.429688 87.710938 52.222656 91.511719 52.222656 96.203125 Z M 52.222656 96.203125 "/>
<path style=" stroke:none;fill-rule:nonzero;fill:rgb(81.568627%,80.392157%,88.235294%);fill-opacity:1;" d="M 48.210938 96.203125 C 48.210938 98.671875 46.214844 100.671875 43.753906 100.671875 C 41.292969 100.671875 39.300781 98.671875 39.300781 96.203125 C 39.300781 93.734375 41.292969 91.734375 43.753906 91.734375 C 46.214844 91.734375 48.210938 93.734375 48.210938 96.203125 Z M 48.210938 96.203125 "/>
<path style=" stroke:none;fill-rule:nonzero;fill:rgb(100%,100%,100%);fill-opacity:1;" d="M 73.460938 63.722656 L 47.265625 71.074219 L 45.058594 63.167969 L 61.765625 58.476562 Z M 73.460938 63.722656 "/>
<path style=" stroke:none;fill-rule:nonzero;fill:rgb(100%,100%,100%);fill-opacity:1;" d="M 31.425781 66.992188 L 41.847656 64.066406 L 44.054688 71.976562 L 33.632812 74.902344 Z M 31.425781 66.992188 "/>
<path style=" stroke:none;fill-rule:nonzero;fill:rgb(24.705882%,23.921569%,33.72549%);fill-opacity:1;" d="M 48.910156 76.972656 L 50.246094 76.597656 L 50.957031 79.144531 L 49.621094 79.519531 Z M 48.910156 76.972656 "/>
<path style=" stroke:none;fill-rule:nonzero;fill:rgb(24.705882%,23.921569%,33.72549%);fill-opacity:1;" d="M 71.289062 66.789062 L 71.664062 68.128906 L 69.125 68.839844 L 68.75 67.5 Z M 71.289062 66.789062 "/>
<path style=" stroke:none;fill-rule:nonzero;fill:rgb(24.705882%,23.921569%,33.72549%);fill-opacity:1;" d="M 68.285156 62.222656 L 68.433594 62.183594 C 69.976562 61.75 71.578125 62.652344 72.007812 64.199219 C 72.441406 65.75 71.539062 67.355469 69.996094 67.785156 L 69.851562 67.828125 Z M 68.285156 62.222656 "/>
<path style=" stroke:none;fill-rule:nonzero;fill:rgb(24.705882%,23.921569%,33.72549%);fill-opacity:1;" d="M 95.605469 72.546875 C 93.582031 73.359375 91.269531 72.59375 90.125 70.734375 C 88.980469 68.871094 89.332031 66.457031 90.964844 65.003906 C 92.507812 66.117188 93.878906 67.78125 94.808594 70.234375 Z M 95.605469 72.546875 "/>
<path style=" stroke:none;fill-rule:nonzero;fill:rgb(24.705882%,23.921569%,33.72549%);fill-opacity:1;" d="M 48.847656 2.726562 L 51.867188 2.726562 L 51.867188 46.929688 L 48.847656 46.929688 Z M 48.847656 2.726562 "/>
<path style=" stroke:none;fill-rule:nonzero;fill:rgb(24.705882%,23.921569%,33.72549%);fill-opacity:1;" d="M 54.582031 4.238281 C 54.582031 6.578125 52.691406 8.476562 50.355469 8.476562 C 48.023438 8.476562 46.128906 6.578125 46.128906 4.238281 C 46.128906 1.898438 48.023438 0 50.355469 0 C 52.691406 0 54.582031 1.898438 54.582031 4.238281 Z M 54.582031 4.238281 "/>
<path style=" stroke:none;fill-rule:nonzero;fill:rgb(24.705882%,23.921569%,33.72549%);fill-opacity:1;" d="M 165.96875 49.046875 C 165.96875 51.386719 164.074219 53.285156 161.742188 53.285156 C 159.40625 53.285156 157.515625 51.386719 157.515625 49.046875 C 157.515625 46.707031 159.40625 44.808594 161.742188 44.808594 C 164.074219 44.808594 165.96875 46.707031 165.96875 49.046875 Z M 165.96875 49.046875 "/>
</g>
</svg>
