<?xml version="1.0" encoding="UTF-8"?>
<svg xmlns="http://www.w3.org/2000/svg" xmlns:xlink="http://www.w3.org/1999/xlink" width="180pt" height="145pt" viewBox="0 0 180 145" version="1.1">
<g id="surface1">
<path style=" stroke:none;fill-rule:nonzero;fill:rgb(24.705882%,23.921569%,33.72549%);fill-opacity:1;" d="M 0 134.839844 L 179.859375 134.839844 L 179.859375 135.261719 L 0 135.261719 Z M 0 134.839844 "/>
<path style=" stroke:none;fill-rule:nonzero;fill:rgb(100%,72.156863%,72.156863%);fill-opacity:1;" d="M 112.847656 62.933594 C 112.847656 62.933594 104.78125 69.296875 108.8125 70.742188 C 112.847656 72.1875 115.441406 65.535156 115.441406 65.535156 Z M 112.847656 62.933594 "/>
<path style=" stroke:none;fill-rule:nonzero;fill:rgb(81.176471%,80%,87.843137%);fill-opacity:1;" d="M 113.136719 60.617188 L 111.40625 63.511719 C 111.40625 63.511719 114.285156 63.511719 114.863281 67.847656 L 117.167969 64.957031 Z M 113.136719 60.617188 "/>
<path style=" stroke:none;fill-rule:nonzero;fill:rgb(100%,72.156863%,72.156863%);fill-opacity:1;" d="M 151.453125 126.566406 L 151.742188 135.246094 L 148.285156 137.269531 L 146.84375 136.402344 L 147.132812 126.566406 Z M 151.453125 126.566406 "/>
<path style=" stroke:none;fill-rule:nonzero;fill:rgb(100%,72.156863%,72.156863%);fill-opacity:1;" d="M 131 124.253906 L 131.574219 133.507812 L 123.507812 136.980469 L 124.082031 132.0625 C 124.082031 132.0625 126.386719 128.300781 125.8125 124.253906 Z M 131 124.253906 "/>
<path style=" stroke:none;fill-rule:nonzero;fill:rgb(18.431373%,18.039216%,25.490196%);fill-opacity:1;" d="M 143.386719 54.542969 C 143.386719 54.542969 147.996094 66.691406 148.863281 74.214844 C 149.726562 81.734375 151.167969 101.691406 151.167969 101.691406 L 154.046875 127.433594 L 145.980469 128.59375 L 142.523438 102.558594 L 134.742188 76.816406 L 133.015625 102.558594 L 131.574219 125.988281 L 124.082031 126.277344 L 123.507812 101.980469 L 120.339844 71.03125 L 122.066406 56.277344 Z M 143.386719 54.542969 "/>
<path style=" stroke:none;fill-rule:nonzero;fill:rgb(18.431373%,18.039216%,25.490196%);fill-opacity:1;" d="M 147.710938 135.824219 C 147.710938 135.824219 148.183594 130.964844 151.691406 133.683594 L 152.320312 133.21875 L 155.199219 139.582031 C 155.199219 139.582031 158.65625 144.5 152.609375 145.078125 C 146.558594 145.65625 147.132812 139.582031 147.132812 139.582031 L 146.558594 136.980469 L 146.84375 135.273438 Z M 147.710938 135.824219 "/>
<path style=" stroke:none;fill-rule:nonzero;fill:rgb(18.431373%,18.039216%,25.490196%);fill-opacity:1;" d="M 131 130.039062 C 132.441406 130.867188 133.324219 132.417969 133.304688 134.085938 C 133.304688 136.980469 133.015625 137.269531 133.015625 137.269531 L 128.695312 138.425781 C 128.695312 138.425781 125.8125 138.136719 124.082031 139.871094 C 122.355469 141.609375 113.710938 142.765625 113.710938 140.453125 C 113.710938 138.136719 120.914062 134.378906 120.914062 134.378906 C 120.914062 134.378906 123.054688 130.75 124.578125 131.117188 C 126.101562 131.484375 126.675781 132.0625 126.675781 132.351562 C 126.675781 132.640625 125.8125 134.667969 125.8125 134.667969 C 125.8125 134.667969 130.710938 133.507812 131 130.039062 Z M 131 130.039062 "/>
<path style=" stroke:none;fill-rule:nonzero;fill:rgb(100%,72.156863%,72.156863%);fill-opacity:1;" d="M 137.625 11.734375 C 137.625 15.726562 134.402344 18.964844 130.421875 18.964844 C 126.445312 18.964844 123.21875 15.726562 123.21875 11.734375 C 123.21875 7.742188 126.445312 4.503906 130.421875 4.503906 C 134.402344 4.503906 137.625 7.742188 137.625 11.734375 Z M 137.625 11.734375 "/>
<path style=" stroke:none;fill-rule:nonzero;fill:rgb(100%,72.156863%,72.156863%);fill-opacity:1;" d="M 135.753906 13.613281 L 138.921875 20.847656 L 130.277344 33.28125 C 130.277344 33.28125 129.703125 19.6875 127.972656 17.375 C 126.246094 15.058594 135.753906 13.613281 135.753906 13.613281 Z M 135.753906 13.613281 "/>
<path style=" stroke:none;fill-rule:nonzero;fill:rgb(81.176471%,80%,87.843137%);fill-opacity:1;" d="M 131.71875 28.65625 L 133.160156 24.894531 L 134.3125 25.183594 L 135.753906 24.027344 L 137.769531 17.664062 L 140.648438 19.6875 L 144.394531 57.582031 L 121.058594 58.160156 L 124.226562 31.835938 L 127.109375 24.316406 L 129.1875 21.554688 L 130.566406 25.761719 Z M 131.71875 28.65625 "/>
<path style=" stroke:none;fill-rule:nonzero;fill:rgb(34.117647%,35.294118%,53.72549%);fill-opacity:1;" d="M 138.34375 44.851562 L 139.226562 18.6875 C 139.226562 18.6875 140.9375 18.820312 141.515625 19.6875 C 142.089844 20.554688 151.597656 22.292969 151.597656 22.292969 L 149.871094 49.191406 C 149.871094 49.191406 157.074219 70.597656 154.480469 71.753906 C 151.886719 72.910156 147.277344 72.621094 147.277344 72.621094 Z M 138.34375 44.851562 "/>
<path style=" stroke:none;fill-rule:nonzero;fill:rgb(34.117647%,35.294118%,53.72549%);fill-opacity:1;" d="M 124.371094 41.527344 L 127.429688 23.894531 L 120.625 28.511719 L 122.355469 41.238281 L 120.914062 49.914062 C 120.914062 49.914062 115.441406 73.921875 117.167969 74.792969 C 118.898438 75.660156 120.914062 74.792969 120.914062 74.792969 L 124.371094 50.492188 Z M 124.371094 41.527344 "/>
<path style=" stroke:none;fill-rule:nonzero;fill:rgb(34.117647%,35.294118%,53.72549%);fill-opacity:1;" d="M 122.644531 27.933594 L 120.625 28.511719 L 119.761719 40.082031 L 118.320312 50.207031 L 111.40625 62.644531 C 111.40625 62.644531 114.863281 60.328125 116.304688 66.980469 L 123.921875 53.671875 Z M 122.644531 27.933594 "/>
<path style=" stroke:none;fill-rule:nonzero;fill:rgb(100%,72.156863%,72.156863%);fill-opacity:1;" d="M 145.117188 60.617188 C 145.117188 60.617188 137.050781 66.980469 141.082031 68.429688 C 145.117188 69.875 147.710938 63.222656 147.710938 63.222656 Z M 145.117188 60.617188 "/>
<path style=" stroke:none;fill-rule:nonzero;fill:rgb(81.176471%,80%,87.843137%);fill-opacity:1;" d="M 150.015625 63.800781 L 147.421875 66.980469 L 143.964844 60.90625 L 145.40625 58.304688 Z M 150.015625 63.800781 "/>
<path style=" stroke:none;fill-rule:nonzero;fill:rgb(34.117647%,35.294118%,53.72549%);fill-opacity:1;" d="M 149.4375 23.304688 L 151.742188 22.148438 C 151.742188 22.148438 153.472656 24.460938 153.761719 26.484375 C 154.046875 28.511719 155.488281 31.113281 155.488281 32.5625 C 155.488281 34.007812 159.523438 47.601562 159.523438 47.601562 L 150.300781 66.402344 C 150.300781 66.402344 148.285156 59.460938 143.964844 58.882812 L 151.167969 48.757812 L 147.132812 41.527344 Z M 149.4375 23.304688 "/>
<path style=" stroke:none;fill-rule:nonzero;fill:rgb(18.431373%,18.039216%,25.490196%);fill-opacity:1;" d="M 136.453125 4.84375 L 137.808594 4.296875 C 137.808594 4.296875 134.96875 1.160156 131.019531 1.433594 L 132.128906 0.203125 C 132.128906 0.203125 129.414062 -0.886719 126.945312 1.980469 C 125.644531 3.484375 124.144531 5.257812 123.207031 7.25 L 121.753906 7.25 L 122.359375 8.59375 L 120.234375 9.933594 L 122.414062 9.695312 C 122.285156 10.429688 122.265625 11.179688 122.355469 11.921875 C 122.449219 12.660156 122.828125 13.335938 123.40625 13.804688 C 123.40625 13.804688 125.089844 10.304688 125.089844 9.757812 L 125.089844 11.121094 C 125.089844 11.121094 126.449219 9.894531 126.449219 9.074219 L 127.191406 10.03125 L 127.5625 8.527344 L 132.128906 10.03125 L 131.390625 8.800781 L 134.230469 9.210938 L 133.117188 7.710938 C 133.117188 7.710938 136.328125 9.484375 136.453125 10.984375 C 136.574219 12.488281 137.515625 13.910156 137.515625 13.910156 C 137.515625 13.910156 140.03125 6.890625 136.453125 4.84375 Z M 136.453125 4.84375 "/>
<path style=" stroke:none;fill-rule:nonzero;fill:rgb(100%,72.156863%,72.156863%);fill-opacity:1;" d="M 137.136719 10.578125 C 137.136719 10.019531 136.773438 9.566406 136.328125 9.566406 C 135.882812 9.566406 135.523438 10.019531 135.523438 10.578125 C 135.523438 11.136719 135.882812 11.589844 136.328125 11.589844 C 136.773438 11.589844 137.136719 11.136719 137.136719 10.578125 Z M 137.136719 10.578125 "/>
<path style=" stroke:none;fill-rule:nonzero;fill:rgb(33.333333%,65.882353%,99.215686%);fill-opacity:1;" d="M 33.339844 59.617188 L 8.46875 59.617188 L 8.46875 52.621094 L 21.449219 52.621094 Z M 33.339844 59.617188 "/>
<path style=" stroke:none;fill-rule:nonzero;fill:rgb(24.705882%,23.921569%,33.72549%);fill-opacity:1;" d="M 8.398438 58.65625 L 8.398438 79.097656 L 89.164062 79.097656 L 89.164062 58.65625 Z M 39.898438 75.667969 L 13.660156 75.667969 L 13.660156 72.789062 L 39.898438 72.789062 Z M 83.902344 70.316406 L 13.660156 70.316406 L 13.660156 67.4375 L 83.902344 67.4375 Z M 83.902344 64.96875 L 13.660156 64.96875 L 13.660156 62.085938 L 83.902344 62.085938 Z M 83.902344 64.96875 "/>
<path style=" stroke:none;fill-rule:nonzero;fill:rgb(33.333333%,65.882353%,99.215686%);fill-opacity:1;" d="M 33.339844 26.550781 L 8.46875 26.550781 L 8.46875 19.554688 L 21.449219 19.554688 Z M 33.339844 26.550781 "/>
<path style=" stroke:none;fill-rule:nonzero;fill:rgb(24.705882%,23.921569%,33.72549%);fill-opacity:1;" d="M 8.398438 26.003906 L 8.398438 46.445312 L 89.164062 46.445312 L 89.164062 26.003906 Z M 39.898438 43.015625 L 13.660156 43.015625 L 13.660156 40.132812 L 39.898438 40.132812 Z M 55.070312 37.664062 L 13.660156 37.664062 L 13.660156 34.785156 L 55.070312 34.785156 Z M 83.902344 32.316406 L 13.660156 32.316406 L 13.660156 29.433594 L 83.902344 29.433594 Z M 83.902344 32.316406 "/>
<path style=" stroke:none;fill-rule:nonzero;fill:rgb(33.333333%,65.882353%,99.215686%);fill-opacity:1;" d="M 33.339844 91.996094 L 8.46875 91.996094 L 8.46875 84.996094 L 21.449219 84.996094 Z M 33.339844 91.996094 "/>
<path style=" stroke:none;fill-rule:nonzero;fill:rgb(24.705882%,23.921569%,33.72549%);fill-opacity:1;" d="M 8.398438 90.621094 L 8.398438 111.066406 L 89.164062 111.066406 L 89.164062 90.621094 Z M 55.070312 107.632812 L 13.660156 107.632812 L 13.660156 104.753906 L 55.070312 104.753906 Z M 55.070312 102.285156 L 13.660156 102.285156 L 13.660156 99.402344 L 55.070312 99.402344 Z M 83.902344 96.933594 L 13.660156 96.933594 L 13.660156 94.054688 L 83.902344 94.054688 Z M 83.902344 96.933594 "/>
<path style=" stroke:none;fill-rule:nonzero;fill:rgb(24.705882%,23.921569%,33.72549%);fill-opacity:1;" d="M 112.054688 41.917969 L 100.574219 41.917969 L 100.574219 30.394531 L 108.367188 30.394531 L 108.367188 30.667969 L 100.851562 30.667969 L 100.851562 41.644531 L 111.78125 41.644531 L 111.78125 36.15625 L 112.054688 36.15625 Z M 112.054688 41.917969 "/>
<path style=" stroke:none;fill-rule:nonzero;fill:rgb(33.333333%,65.882353%,99.215686%);fill-opacity:1;" d="M 106.257812 38.914062 C 105.992188 38.125 102.664062 35.453125 104.703125 35.003906 L 106.375 37.242188 L 114.058594 29.527344 L 114.832031 30.300781 Z M 106.257812 38.914062 "/>
<path style=" stroke:none;fill-rule:nonzero;fill:rgb(24.705882%,23.921569%,33.72549%);fill-opacity:1;" d="M 112.054688 74.570312 L 100.574219 74.570312 L 100.574219 63.046875 L 108.367188 63.046875 L 108.367188 63.320312 L 100.851562 63.320312 L 100.851562 74.296875 L 111.78125 74.296875 L 111.78125 68.808594 L 112.054688 68.808594 Z M 112.054688 74.570312 "/>
<path style=" stroke:none;fill-rule:nonzero;fill:rgb(33.333333%,65.882353%,99.215686%);fill-opacity:1;" d="M 106.257812 71.5625 C 105.992188 70.777344 102.664062 68.105469 104.703125 67.65625 L 106.375 69.894531 L 114.058594 62.179688 L 114.832031 62.953125 Z M 106.257812 71.5625 "/>
<path style=" stroke:none;fill-rule:nonzero;fill:rgb(24.705882%,23.921569%,33.72549%);fill-opacity:1;" d="M 112.054688 107.085938 L 100.574219 107.085938 L 100.574219 95.5625 L 108.367188 95.5625 L 108.367188 95.835938 L 100.851562 95.835938 L 100.851562 106.8125 L 111.78125 106.8125 L 111.78125 101.324219 L 112.054688 101.324219 Z M 112.054688 107.085938 "/>
<path style=" stroke:none;fill-rule:nonzero;fill:rgb(33.333333%,65.882353%,99.215686%);fill-opacity:1;" d="M 106.257812 104.078125 C 105.992188 103.292969 102.664062 100.621094 104.703125 100.171875 L 106.375 102.410156 L 114.058594 94.695312 L 114.832031 95.46875 Z M 106.257812 104.078125 "/>
</g>
</svg>
