<svg xmlns="http://www.w3.org/2000/svg" xmlns:xlink="http://www.w3.org/1999/xlink" width="287pt" height="252"
  viewBox="0 0 287 189" name="confirmation">
  <defs>
    <clipPath id="b">
      <path d="M0 0h287v189H0z"></path>
    </clipPath>
    <clipPath id="c">
      <path d="M0 0h287v189H0z"></path>
    </clipPath>
    <clipPath id="d">
      <path d="M0 0h287v189H0z"></path>
    </clipPath>
    <clipPath id="e">
      <path d="M0 0h287v189H0z"></path>
    </clipPath>
    <clipPath id="f">
      <path d="M0 0h287v189H0z"></path>
    </clipPath>
    <clipPath id="g">
      <path d="M0 0h287v189H0z"></path>
    </clipPath>
    <clipPath id="h">
      <path d="M0 0h287v189H0z"></path>
    </clipPath>
    <clipPath id="i">
      <path d="M0 0h287v189H0z"></path>
    </clipPath>
    <clipPath id="j">
      <path d="M0 0h287v189H0z"></path>
    </clipPath>
    <clipPath id="k">
      <path d="M0 0h287v189H0z"></path>
    </clipPath>
    <clipPath id="l">
      <path d="M0 0h287v189H0z"></path>
    </clipPath>
    <clipPath id="m">
      <path d="M0 0h287v189H0z"></path>
    </clipPath>
    <clipPath id="n">
      <path d="M0 0h287v189H0z"></path>
    </clipPath>
    <clipPath id="o">
      <path d="M0 0h287v189H0z"></path>
    </clipPath>
    <clipPath id="p">
      <path d="M0 0h287v189H0z"></path>
    </clipPath>
    <clipPath id="q">
      <path d="M0 0h287v189H0z"></path>
    </clipPath>
    <clipPath id="r">
      <path d="M0 0h287v189H0z"></path>
    </clipPath>
    <clipPath id="s">
      <path d="M0 0h287v189H0z"></path>
    </clipPath>
    <clipPath id="t">
      <path d="M0 0h287v189H0z"></path>
    </clipPath>
    <clipPath id="u">
      <path d="M0 0h287v189H0z"></path>
    </clipPath>
    <clipPath id="v">
      <path d="M0 0h287v189H0z"></path>
    </clipPath>
    <clipPath id="w">
      <path d="M0 0h287v189H0z"></path>
    </clipPath>
    <clipPath id="x">
      <path d="M0 0h287v189H0z"></path>
    </clipPath>
    <clipPath id="y">
      <path d="M0 0h287v189H0z"></path>
    </clipPath>
    <clipPath id="z">
      <path d="M0 0h287v189H0z"></path>
    </clipPath>
    <clipPath id="A">
      <path d="M0 0h287v189H0z"></path>
    </clipPath>
    <clipPath id="B">
      <path d="M0 0h287v189H0z"></path>
    </clipPath>
    <clipPath id="C">
      <path d="M0 0h287v189H0z"></path>
    </clipPath>
    <clipPath id="D">
      <path d="M0 0h287v189H0z"></path>
    </clipPath>
    <clipPath id="E">
      <path d="M0 0h287v189H0z"></path>
    </clipPath>
    <clipPath id="F">
      <path d="M0 0h287v189H0z"></path>
    </clipPath>
    <clipPath id="G">
      <path d="M0 0h287v189H0z"></path>
    </clipPath>
    <clipPath id="H">
      <path d="M0 0h287v189H0z"></path>
    </clipPath>
    <clipPath id="I">
      <path d="M0 0h287v189H0z"></path>
    </clipPath>
    <clipPath id="J">
      <path d="M0 0h287v189H0z"></path>
    </clipPath>
    <clipPath id="K">
      <path d="M0 0h287v189H0z"></path>
    </clipPath>
    <clipPath id="L">
      <path d="M0 0h287v189H0z"></path>
    </clipPath>
    <clipPath id="M">
      <path d="M0 0h287v189H0z"></path>
    </clipPath>
    <clipPath id="N">
      <path d="M0 0h287v189H0z"></path>
    </clipPath>
    <clipPath id="O">
      <path d="M0 0h287v189H0z"></path>
    </clipPath>
    <clipPath id="P">
      <path d="M0 0h287v189H0z"></path>
    </clipPath>
    <clipPath id="Q">
      <path d="M0 0h287v189H0z"></path>
    </clipPath>
    <clipPath id="R">
      <path d="M0 0h287v189H0z"></path>
    </clipPath>
    <clipPath id="S">
      <path d="M0 0h287v189H0z"></path>
    </clipPath>
    <clipPath id="T">
      <path d="M0 0h287v189H0z"></path>
    </clipPath>
    <clipPath id="U">
      <path d="M0 0h287v189H0z"></path>
    </clipPath>
    <clipPath id="V">
      <path d="M0 0h287v189H0z"></path>
    </clipPath>
    <clipPath id="W">
      <path d="M0 0h287v189H0z"></path>
    </clipPath>
    <clipPath id="X">
      <path d="M0 0h287v189H0z"></path>
    </clipPath>
    <clipPath id="Y">
      <path d="M0 0h287v189H0z"></path>
    </clipPath>
    <mask id="aa">
      <g filter="url(#a)">
        <path fill-opacity=".102" d="M0 0h287v189H0z"></path>
      </g>
    </mask>
    <mask id="ad">
      <g filter="url(#a)">
        <path fill-opacity=".102" d="M0 0h287v189H0z"></path>
      </g>
    </mask>
    <mask id="af">
      <g filter="url(#a)">
        <path fill-opacity=".102" d="M0 0h287v189H0z"></path>
      </g>
    </mask>
    <mask id="ah">
      <g filter="url(#a)">
        <path fill-opacity=".102" d="M0 0h287v189H0z"></path>
      </g>
    </mask>
    <mask id="aj">
      <g filter="url(#a)">
        <path fill-opacity=".102" d="M0 0h287v189H0z"></path>
      </g>
    </mask>
    <mask id="al">
      <g filter="url(#a)">
        <path fill-opacity=".102" d="M0 0h287v189H0z"></path>
      </g>
    </mask>
    <mask id="an">
      <g filter="url(#a)">
        <path fill-opacity=".102" d="M0 0h287v189H0z"></path>
      </g>
    </mask>
    <mask id="ap">
      <g filter="url(#a)">
        <path fill-opacity=".102" d="M0 0h287v189H0z"></path>
      </g>
    </mask>
    <mask id="ar">
      <g filter="url(#a)">
        <path fill-opacity=".102" d="M0 0h287v189H0z"></path>
      </g>
    </mask>
    <mask id="at">
      <g filter="url(#a)">
        <path fill-opacity=".102" d="M0 0h287v189H0z"></path>
      </g>
    </mask>
    <mask id="av">
      <g filter="url(#a)">
        <path fill-opacity=".102" d="M0 0h287v189H0z"></path>
      </g>
    </mask>
    <mask id="ax">
      <g filter="url(#a)">
        <path fill-opacity=".102" d="M0 0h287v189H0z"></path>
      </g>
    </mask>
    <mask id="az">
      <g filter="url(#a)">
        <path fill-opacity=".102" d="M0 0h287v189H0z"></path>
      </g>
    </mask>
    <mask id="aB">
      <g filter="url(#a)">
        <path fill-opacity=".102" d="M0 0h287v189H0z"></path>
      </g>
    </mask>
    <mask id="aD">
      <g filter="url(#a)">
        <path fill-opacity=".102" d="M0 0h287v189H0z"></path>
      </g>
    </mask>
    <mask id="aF">
      <g filter="url(#a)">
        <path fill-opacity=".102" d="M0 0h287v189H0z"></path>
      </g>
    </mask>
    <mask id="aH">
      <g filter="url(#a)">
        <path fill-opacity=".102" d="M0 0h287v189H0z"></path>
      </g>
    </mask>
    <mask id="aJ">
      <g filter="url(#a)">
        <path fill-opacity=".102" d="M0 0h287v189H0z"></path>
      </g>
    </mask>
    <mask id="aL">
      <g filter="url(#a)">
        <path fill-opacity=".102" d="M0 0h287v189H0z"></path>
      </g>
    </mask>
    <mask id="aN">
      <g filter="url(#a)">
        <path fill-opacity=".102" d="M0 0h287v189H0z"></path>
      </g>
    </mask>
    <mask id="aP">
      <g filter="url(#a)">
        <path fill-opacity=".102" d="M0 0h287v189H0z"></path>
      </g>
    </mask>
    <mask id="aR">
      <g filter="url(#a)">
        <path fill-opacity=".102" d="M0 0h287v189H0z"></path>
      </g>
    </mask>
    <mask id="aT">
      <g filter="url(#a)">
        <path fill-opacity=".102" d="M0 0h287v189H0z"></path>
      </g>
    </mask>
    <mask id="aV">
      <g filter="url(#a)">
        <path fill-opacity=".102" d="M0 0h287v189H0z"></path>
      </g>
    </mask>
    <mask id="aX">
      <g filter="url(#a)">
        <path fill-opacity=".102" d="M0 0h287v189H0z"></path>
      </g>
    </mask>
    <mask id="aZ">
      <g filter="url(#a)">
        <path fill-opacity=".102" d="M0 0h287v189H0z"></path>
      </g>
    </mask>
    <mask id="bb">
      <g filter="url(#a)">
        <path fill-opacity=".102" d="M0 0h287v189H0z"></path>
      </g>
    </mask>
    <mask id="bd">
      <g filter="url(#a)">
        <path fill-opacity=".102" d="M0 0h287v189H0z"></path>
      </g>
    </mask>
    <mask id="bf">
      <g filter="url(#a)">
        <path fill-opacity=".102" d="M0 0h287v189H0z"></path>
      </g>
    </mask>
    <mask id="bh">
      <g filter="url(#a)">
        <path fill-opacity=".102" d="M0 0h287v189H0z"></path>
      </g>
    </mask>
    <mask id="bj">
      <g filter="url(#a)">
        <path fill-opacity=".102" d="M0 0h287v189H0z"></path>
      </g>
    </mask>
    <mask id="bl">
      <g filter="url(#a)">
        <path fill-opacity=".702" d="M0 0h287v189H0z"></path>
      </g>
    </mask>
    <mask id="bo">
      <g filter="url(#a)">
        <path fill-opacity=".051" d="M0 0h287v189H0z"></path>
      </g>
    </mask>
    <mask id="bq">
      <g filter="url(#a)">
        <path fill-opacity=".102" d="M0 0h287v189H0z"></path>
      </g>
    </mask>
    <mask id="bs">
      <g filter="url(#a)">
        <path fill-opacity=".102" d="M0 0h287v189H0z"></path>
      </g>
    </mask>
    <mask id="bu">
      <g filter="url(#a)">
        <path fill-opacity=".102" d="M0 0h287v189H0z"></path>
      </g>
    </mask>
    <mask id="bw">
      <g filter="url(#a)">
        <path fill-opacity=".102" d="M0 0h287v189H0z"></path>
      </g>
    </mask>
    <mask id="by">
      <g filter="url(#a)">
        <path fill-opacity=".102" d="M0 0h287v189H0z"></path>
      </g>
    </mask>
    <mask id="bA">
      <g filter="url(#a)">
        <path fill-opacity=".102" d="M0 0h287v189H0z"></path>
      </g>
    </mask>
    <mask id="bC">
      <g filter="url(#a)">
        <path fill-opacity=".102" d="M0 0h287v189H0z"></path>
      </g>
    </mask>
    <mask id="bE">
      <g filter="url(#a)">
        <path fill-opacity=".102" d="M0 0h287v189H0z"></path>
      </g>
    </mask>
    <mask id="bG">
      <g filter="url(#a)">
        <path fill-opacity=".102" d="M0 0h287v189H0z"></path>
      </g>
    </mask>
    <mask id="bI">
      <g filter="url(#a)">
        <path fill-opacity=".502" d="M0 0h287v189H0z"></path>
      </g>
    </mask>
    <mask id="bK">
      <g filter="url(#a)">
        <path fill-opacity=".502" d="M0 0h287v189H0z"></path>
      </g>
    </mask>
    <mask id="bM">
      <g filter="url(#a)">
        <path fill-opacity=".502" d="M0 0h287v189H0z"></path>
      </g>
    </mask>
    <mask id="bO">
      <g filter="url(#a)">
        <path fill-opacity=".502" d="M0 0h287v189H0z"></path>
      </g>
    </mask>
    <mask id="bQ">
      <g filter="url(#a)">
        <path fill-opacity=".502" d="M0 0h287v189H0z"></path>
      </g>
    </mask>
    <mask id="bS">
      <g filter="url(#a)">
        <path fill-opacity=".502" d="M0 0h287v189H0z"></path>
      </g>
    </mask>
    <mask id="bU">
      <g filter="url(#a)">
        <path fill-opacity=".502" d="M0 0h287v189H0z"></path>
      </g>
    </mask>
    <mask id="bW">
      <g filter="url(#a)">
        <path fill-opacity=".502" d="M0 0h287v189H0z"></path>
      </g>
    </mask>
    <g id="Z" clip-path="url(#b)">
      <path
        d="M266.172 154.984a67.266 67.266 0 01-2.746 2.297c-.156.13-.32.25-.48.383a96.415 96.415 0 01-10.489 7.09l-.684.398c-.164.102-.328.192-.5.286-3.812 2.203-7.765 4.23-11.765 6.148l-.043.023-.305.145a245.801 245.801 0 01-9.824 4.445l-.082.028a259.184 259.184 0 01-4.496 1.847c-.61.25-1.227.48-1.84.719-1.156.441-2.316.879-3.484 1.293l-.145.055-.25.09-.312.113a170.061 170.061 0 01-9.27 3.02l-.055.015a158.97 158.97 0 01-6.59 1.77l-.304.074c-3.246.785-6.547 1.46-9.867 2l-.762.12c-2.43.384-4.875.696-7.336.938-13.836 1.336-27.836.25-41.586-1.617-27.766-3.77-55.164-10.836-80.152-21.914a232.304 232.304 0 01-14.106-6.824c-.039-.02-.07-.04-.11-.059a204.995 204.995 0 01-8.163-4.539c-.79-.453-1.57-.918-2.348-1.387a213.869 213.869 0 01-6.602-4.145l-.581-.39-.227-.152-.945-.64c-11.739-8-22.207-17.696-27.153-29.829-5.715-14-2.058-31.75 12.098-40.023 4.863-2.852 10.52-4.399 16.234-5.676l.586-.133c.965-.21 1.934-.414 2.895-.621 3.37-.715 6.758-1.426 10.11-2.219 1.75-.41 3.48-.843 5.202-1.312l.703-.192a84.319 84.319 0 0012.141-4.28h.027c.422-.188.84-.384 1.246-.583.266-.125.532-.25.797-.387 4.246-2.117 8.743-5.05 12.204-8.543.273-.28.546-.566.808-.851.2-.223.402-.45.594-.672 2.426-2.832 4.101-5.973 4.422-9.309a11.93 11.93 0 00-.149-3.355c-.39-2.098-.773-4.152-1.05-6.152-.524-3.766-.7-7.364.023-10.829.738-3.535 2.41-6.937 5.598-10.238.48-.5 1-1 1.558-1.5a32.732 32.732 0 018.649-5.469c.39-.168.78-.336 1.175-.5 8.762-3.55 19.293-4.293 29.13-3.8 9.187.472 18.32 1.746 27.288 3.8.711.16 1.426.325 2.133.5a188.561 188.561 0 0122.48 6.957c19.079 7.18 37.083 17.153 53.907 28.16.164.106.328.215.5.325.703.457 1.402.918 2.094 1.379 1.343.89 2.68 1.789 4 2.691l.89.61 1.313.902 1.336.926c.062.039.125.082.18.129l1.14.789c.66.46 1.313.925 1.969 1.39l1.41 1c.293.207.586.414.879.63l1.5 1.093.336.25c.066.05.137.101.207.156l.039.027c4.062 2.98 8.027 6.075 11.742 9.352l.48.426.047.043c.407.363.813.726 1.207 1.094 4.852 4.421 9.2 9.171 12.75 14.421 16.317 24.25 11.473 57.825-11.226 77.793zm0 0"
        fill="#55a8fd"></path>
    </g>
    <g id="ac" clip-path="url(#c)">
      <path
        d="M212.246 87.8l-2.289 1.571s-3.48.113-5.969-.5a6.88 6.88 0 01-1.273-.43s0-.043.023-.125v-.027c.215-.957.512-1.894.883-2.8.145-.344.309-.696.484-1.048.684-1.32 1.645-2.613 2.961-3.25a4.084 4.084 0 011.559-.41h.207l.074.156 1.156 2.38zm0 0">
      </path>
    </g>
    <g id="ae" clip-path="url(#d)">
      <path
        d="M251.043 119.477s4.906-.47 5.34-.118c.43.352 3.219 2.164 4.87 1.024 1.65-1.14.548-5.11.548-5.27 0-.156-.156-5.777-.156-5.777l-2.946-3.969-3.691-6.953-7.54-.75.196 11.043-.039 5.66zm0 0">
      </path>
    </g>
    <g id="ag" clip-path="url(#e)">
      <path
        d="M207.848 80.57s-.387 4.793-3.387 4.871c0 0-.844-.5-1.98-1.363l-.25-.328a3.845 3.845 0 001.632.441c.75.016 1.594-.25 2.137-1.347.313-.617.59-1.25.828-1.903a5.81 5.81 0 00.3-1.18zm0 0">
      </path>
    </g>
    <g id="ai" clip-path="url(#f)">
      <path
        d="M248.605 52.664c-.398.805-.59.883-.34 1.75-1.706 1.832-3.874 3.832-6.57 3.832a9.271 9.271 0 01-4.16-.973c-.273-2.18-.863-4.687-.863-4.687s13.035-2.125 11.933.078zm0 0">
      </path>
    </g>
    <g id="ak" clip-path="url(#g)">
      <path
        d="M252.395 110.363c-1.25 0-5.36.047-9.965.121h-.059l-1.52.024h-.046c-5.465.086-10.848-.98-13.008-.778-4.598.434 1.648-4.25 1.648-4.25a38.361 38.361 0 0010.465 1.06l1.32-.071c4.176-.235 8.372-.625 10.567-1.285.152 1.218.375 2.988.598 5.18zm0 0">
      </path>
    </g>
    <g id="am" clip-path="url(#h)">
      <path
        d="M239.184 60.691l-7.227 3.38-5.574 43.144s3.297-1.5 5.183-.55c1.887.948 7.696.081 7.696.081s4.246-.25 4.867.234c.621.485 8.016-1.964 8.016-1.964s1.332-2.989.312-3.457c-1.023-.473.313-5.118.313-5.118l-.625-31.129-1.25-4-3.38-2.042-3.452 2.75-1.649.238zm0 0">
      </path>
    </g>
    <g id="ao" clip-path="url(#i)">
      <path
        d="M239.063 62.215s2.085 2.476 2.046 2.988c-.043.512-.12 1.727-.12 1.727l-1.56 3.183s-.863 3.973-.863 4.797c0 .824-1.37 7.977-1.37 7.977l-1.653 11-2.082 14.425 2.121 3.657 2.512-2.125 3.336-25.7.707-5.07s.75-9.117.75-10.058c0-.942-.434-3.422-.434-3.422s.512-2.356 2.633-2.906c2.121-.551-.156-.122-.156-.122l-1.22-.98-1.058.43s-2.957-.903-3.59.199zm0 0">
      </path>
    </g>
    <g id="aq" clip-path="url(#j)">
      <path d="M237.457 57.852s-.316.234-.394 1.808c-.079 1.574-1.18 5.11-1.18 5.11s4.086-2.829 6.129-2.516zm0 0">
      </path>
    </g>
    <g id="as" clip-path="url(#k)">
      <path d="M248.61 56.594l-6.43 5.66s5.418 3.223 6.125 4c.707.777 1.414-7.703 1.414-7.703zm0 0"></path>
    </g>
    <g id="au" clip-path="url(#l)">
      <path
        d="M237.684 57.852s-.707-.356-1.375.668c-.668 1.023-1.922 1.5-1.922 1.5s-7.149 1.14-7.426 2.082l-3.336.195s-1.18.144-1.29 2.644c-.108 2.5-.75 2.707-.75 2.707s-1.374 2.438-1.245 3.696c.125 1.258-1.063 1.89-1.063 1.89l4.918 12.758s.157 5.27-.75 7.192c-.906 1.925-2.593 10.457-2.593 10.457s.707-.157.668.312c-.04.473-.864 5.621-.864 5.621s-.234 2.043-.629 2.75c-.39.707-.43 4.403-.43 4.403l-.648 2.671s1.5 3.34 3.774 2.868c2.27-.47 6.398-9.391 6.398-9.391l2.629-9.629 2.043-9.512.59-6.445.941-14.266 1.375-9.433s1.54-5.07.985-5.738zm0 0">
      </path>
    </g>
    <g id="aw" clip-path="url(#m)">
      <path
        d="M212.246 87.8l-2.289 1.571s-3.48.113-5.969-.5l-1.27-.562-.25-.11.262.082c1.313.39 2.34.383 3.145.11 3.223-1.082 2.867-6.41 2.746-7.618 0-.117-.02-.195-.023-.226-.004-.004-.004-.008 0-.016l.02.031c.042.075.089.145.144.208.047.054.093.105.144.152l1.137 2.277v.098zm0 0">
      </path>
    </g>
    <g id="ay" clip-path="url(#n)">
      <path
        d="M247.703 61.309l1.14-5.188s.5 1.691 1.02 2.082c.524.395 1.692 1.3 1.692 1.3s1.687.786 2.273.786c.586 0 3.774.824 4.164 1.25.395.426 1.965.117 1.965.117s1.297.434 2.434.707c1.14.278 1.687 2.164 1.453 2.91a2.272 2.272 0 00.547 2.122c.472.472.707 2 .707 2a2.296 2.296 0 011.336 1.14c.394.863.277 2.75.277 2.75l-5.852 8.25s.079 3.184-.156 3.89c-.234.708.824 12.735.824 12.735l1.215 20.672s-1.605 1.375-1.96 1.531c-.356.16-.708-7.308-.708-7.582 0-.277-9.07-13.601-9.07-13.601s-1.219-1.965-1.219-2.399c0-.43-1.14-4.398-1.14-4.398l-1.72-7.649zm0 0">
      </path>
    </g>
    <g id="aA" clip-path="url(#o)">
      <path
        d="M224.762 178.074c-.614.25-1.227.48-1.84.719-1.926-.563-3.727-1.227-3.727-1.227 1.864.067 3.723.239 5.567.508zm0 0">
      </path>
    </g>
    <g id="aC" clip-path="url(#p)">
      <path d="M243.344 157.09s4.676 1.101 4.949 1.847zm0 0"></path>
    </g>
    <g id="aE" clip-path="url(#q)">
      <path d="M225.32 160.469s-2.433.707-.078 2.125c2.36 1.414.078-2.125.078-2.125zm0 0"></path>
    </g>
    <g id="aG" clip-path="url(#r)">
      <path d="M236.121 122.691c.274 0 4.555-1.418 6.047-.785 1.488.63 3.34.625 3.34.625zm0 0"></path>
    </g>
    <g id="aI" clip-path="url(#s)">
      <path
        d="M236.684 127.191l-.043.387-3.66 9.586s-.59 2.91-1.102 4.559a29.936 29.936 0 00-.766 3.414l3.246-20.117zm0 0">
      </path>
    </g>
    <g id="aK" clip-path="url(#t)">
      <path d="M223.164 66.813s1.727.789 2.117 1.886c.39 1.102-2.117-1.886-2.117-1.886zm0 0"></path>
    </g>
    <g id="aM" clip-path="url(#u)">
      <path d="M217.82 78.605s-2.511 3.067-1.5 4.25c1.016 1.184 1.5-4.25 1.5-4.25zm0 0"></path>
    </g>
    <g id="aO" clip-path="url(#v)">
      <path d="M262.742 68.543s-2.355.234-2.433 2.281zm0 0"></path>
    </g>
    <g id="aQ" clip-path="url(#w)">
      <path d="M240.91 100.77c.25-.235 5.656-8.25 6.91-7.543zm0 0"></path>
    </g>
    <g id="aS" clip-path="url(#x)">
      <path
        d="M251.043 48.656a9.316 9.316 0 01-1.106 4.414h-.07c-.594-.125-.898-.816-1.351-1.25a1.836 1.836 0 00-2.121-.297 2.14 2.14 0 00-1.04 2.016c-.3-1.25-.207-2.598-.5-3.855-.296-1.262-1.171-2.54-2.375-2.563-.52 0-1.125.195-1.5-.195-.226-.235-.273-.606-.44-.89-.864-1.395-3.481-.688-4.552.026-1.066.715-2.308 1.856-3.636 2.47.109-5.114 4.3-9.188 9.41-9.153 5.11.039 9.242 4.172 9.281 9.285zm0 0">
      </path>
    </g>
    <g id="aU" clip-path="url(#y)">
      <path
        d="M260.898 105.441l-.976.805c-.863-1.437-4.402-4.305-4.402-4.305l.152-.148c.328-.082.516-.125.516-.125zm0 0">
      </path>
    </g>
    <g id="aW" clip-path="url(#z)">
      <path
        d="M262 98.176l.516 8.77c-1.223-1.9-4.57-6.766-6.723-6.61l5.223-6c.218-.238.418-.496.597-.77.2 2.496.387 4.61.387 4.61zm0 0">
      </path>
    </g>
    <g id="aY" clip-path="url(#A)">
      <path d="M261.844 103.992s-.356.875-.715 1.633c-1.371-1.879-3.25-4.098-4.746-4.512l.715-.699zm0 0"></path>
    </g>
    <g id="ba" clip-path="url(#B)">
      <path d="M267.848 75.941s-3.297 2.434-2.59 3.223c.707.785 2.59-3.223 2.59-3.223zm0 0"></path>
    </g>
    <g id="bc" clip-path="url(#C)">
      <path d="M268.008 85.992s6.125-1.965 6.742 0zm0 0"></path>
    </g>
    <g id="be" clip-path="url(#D)">
      <path d="M224.793 75.46s0 8.962-.77 9.845c-.765.886.77-9.844.77-9.844zm0 0"></path>
    </g>
    <g id="bg" clip-path="url(#E)">
      <path d="M260.191 78.348l1.137 3.203s.453-3.145-1.137-3.203zm0 0"></path>
    </g>
    <g id="bi" clip-path="url(#F)">
      <path
        d="M232.438 43.996c.289-.738-.465-1.46-.567-2.25-.098.223-.14.465-.121.707.047.598.496 1.156.605 1.707.032-.05.06-.11.083-.164zm0 0M245.457 52.46c-.281-1.25-.2-2.554-.484-3.788-.286-1.238-1.172-2.543-2.375-2.563-.52 0-1.121.192-1.496-.195-.23-.238-.274-.605-.446-.89-.86-1.395-3.476-.688-4.547.027-1.605 1.066-3.812 3.3-5.87 2.797a8.946 8.946 0 00-.27.726c2.105.656 4.379-1.664 6.023-2.75 1.07-.715 3.688-1.422 4.547-.027.172.285.215.656.445.89.371.387.977.188 1.496.2 1.204.02 2.086 1.297 2.375 2.554.293 1.262.2 2.602.5 3.86a2.18 2.18 0 01.102-.84zm0 0M251.363 50.984c-.215.625-.773 1.2-1.379 1.07-.605-.128-.898-.816-1.351-1.25a1.841 1.841 0 00-2.121-.292 2.13 2.13 0 00-1.04 1.902c.157-.48.485-.887.923-1.14.699-.364 1.55-.243 2.117.3.453.43.75 1.117 1.355 1.25.606.13 1.164-.445 1.38-1.07.108-.371.183-.75.214-1.133a3.537 3.537 0 01-.098.363zm0 0M253.21 45.633c-.444 1.164-1.25 2.168-1.5 3.394-.054.25-.085.5-.112.75.265-1.218 1.062-2.222 1.496-3.386.199-.524.32-1.07.363-1.63-.059.298-.14.587-.246.872zm0 0">
      </path>
    </g>
    <g id="bk" clip-path="url(#G)">
      <path
        d="M130.59 125.496s3.21-1.062 5.57.95c0 0-1.27 1.382-4.648.3zm0 0M130.227 125.504s-1.684 2.937-.184 5.652c0 0 1.605-.965 1.223-4.5zm0 0M127.645 121.547s.93-2.637 6.742-.102c0 0-.438 1.75-2.793 2-2.352.25-3.125-.718-3.95-1.898zm0 0M127.277 121.441s-2.789.133-2.035 6.446c0 0 1.793.082 2.703-2.106.914-2.183.22-3.226-.668-4.34zm0 0M124.867 116.691s.852-4.52 6.93-2.39c0 0-.64 4.125-6.117 3.75zm0 0M122.117 110.578s2.207-4.789 7.996-1.617c0 0-1.148 4.344-7.312 3.086zm0 0M120.516 104.602s2.75-4.516 8.496-1.38c0 0-2.649 4-8.328 2.391zm0 0M119.035 98.785s2.766-4.695 8.281-1.57c0 0-3.28 4.281-8.12 2.539zm0 0M118.496 93.496s2.746-5.914 7.902-3.047c0 0-3.128 5.207-7.746 4.059zm0 0M118.336 87.238s2.973-5.902 8.07-2.574c0 0-3.789 5.316-7.91 3.543zm0 0M118.727 81.563s3.726-5.7 8.007-4.364c0 0-3.867 6.04-7.992 5.715zm0 0M119.473 76.121s4.246-6.93 7.613-5.394c0 0-3.09 5.335-7.809 6.597zm0 0M120.785 69.734s3.77-5.71 7.313-5.02c0 0-3.078 5.79-7.676 6.673zm0 0M121.938 63.773s4.289-5.578 6.624-5.097c0 0-2.792 5.875-6.671 6.187zm0 0M123.121 58.246s3.434-6.387 5.883-6.332c0 0-1.82 5.5-5.793 6.906zm0 0M124.184 50.887s3.14-4.98 5.222-5.309c0 0-2.097 6.309-5.152 6.75zm0 0M124.727 46.012l2.246-9.676s1.52 8.168-2.446 11.434zm0 0M124.613 35.762s-.61-7.672-1.105-8.223c0 0 3.68 5.863 1.625 11.574zm0 0M124.707 116.605s-4.246-1.77-5.789 4.5c0 0 3.8 1.723 6.496-3.074zm0 0M121.957 110.352s-5.078-1.391-6.383 5.09c0 0 4.059 1.917 7.063-3.614zm0 0M120.36 105s-4.032-3.414-8.497 1.379c0 0 3.778 2.957 8.657-.367zm0 0M118.918 98.805s-4.102-3.582-8.348 1.136c0 0 4.461 3.024 8.508-.164zm0 0M118.516 93.648s-3.375-5.578-8.188-2.164c0 0 3.68 4.836 8.137 3.188zm0 0"
        fill="#55a8fd"></path>
      <path
        d="M118.637 87.16s-3.38-5.683-8.242-2c0 0 4.152 5.04 8.14 2.98zm0 0M119.242 81.512s-2.027-6.5-6.512-6.39c0 0 2.07 6.87 6.122 7.683zm0 0M119.582 76.113s-1.664-7.957-5.348-7.648c0 0 1.11 6.066 5.125 8.847zm0 0M121.121 69.441s-2.164-6.5-5.766-6.75c0 0 1.477 6.387 5.688 8.43zm0 0M122.36 63.754s-1.165-6.941-3.45-7.617c0 0-.297 6.5 2.98 8.601zm0 0M123.281 58.14s-1.453-7.1-3.816-7.75c0 0 .164 5.786 3.566 8.282zm0 0M124.582 51.406s-.957-5.812-2.75-6.926c0 0-.523 6.63 2.117 8.23zm0 0"
        fill="#55a8fd"></path>
      <path
        d="M124.496 45.754l-3.094-9.438s-.789 8.274 3.45 11.172zm0 0M123.234 36.082s-4.972-5.875-4.996-6.613c0 0 1.524 6.75 6.996 9.355zm0 0M123.379 34.086s-5.192-8.648-6.992-9.125c0 0 5.715 1.828 7.242 8.809zm0 0"
        fill="#55a8fd"></path>
      <path
        d="M124.242 52.39l-.265-.038c1.468-10.68 1.195-17.305-.774-18.649l.152-.219c2.086 1.422 2.391 7.957.887 18.907zm0 0"
        fill="#444053"></path>
      <path
        d="M119.516 77.61l-.395-.07c.18-.99.383-2 .606-2.99 1.941-8.644 3.5-16.652 4.324-22.75l.297-.214c-.836 6.098-2.285 14.387-4.23 23.043-.22 1-.427 2-.602 2.98zm0 0"
        fill="#444053"></path>
      <path
        d="M136.465 132.363c-.059-.047-6.04-4.925-11.137-14.078a58.057 58.057 0 01-6.293-17.18c-1.469-7.53-1.246-16.25.223-24.355l.351.297c-3.308 18.219 1.5 32.59 6.164 40.957 5.047 9.07 10.957 13.894 11.016 13.941zm0 0"
        fill="#444053"></path>
    </g>
    <g id="bn" clip-path="url(#H)">
      <path
        d="M40.297 143.379c.86 1.46.992 3.238.36 4.812-.606 1.52-.673 3.418-.61 4.813a192.269 192.269 0 01-5.203-3.14 194.251 194.251 0 01-3.735-2.4l-.582-.39-.226-.152a.445.445 0 00-.07-.098c-.336-.355-2.29-3.152-3.446-5.281-.21-.39-.394-.75-.539-1.082v-.012c-.25-.558-.367-1-.293-1.207a2.49 2.49 0 011.215-1.5c1.437-.75 3.746-.058 6.027 1.047a41.841 41.841 0 015.633 3.43l.2.148.019.016c.75.531 1.187.883 1.187.883s.02.039.063.113zm0 0">
      </path>
    </g>
    <g id="bp" clip-path="url(#I)">
      <path
        d="M27.164 141.871c1.816.637 4.496 1.48 5.953 1.5a2.5 2.5 0 00.453-.02c1.028-.14 4.192.083 7.098.348 1.164.102 2.285.207 3.21.305l2.329.25v-.902a58.161 58.161 0 00-2.203-1.438c-3.55-2.195-8.211-4.437-10.445-2.805-3.145-1.523-6.336-2.25-7.243.453-.105.352.278 1.247.848 2.31zm0 0">
      </path>
    </g>
    <g id="br" clip-path="url(#J)">
      <path
        d="M45.8 143.129l.419.043v.203l-2.328-.25c-2.332-.234-5.895-.57-8.246-.668 1.628-.144 7.011.352 10.156.672zm0 0M18.45 120.36l2.304-2.301 1.539.37-1.922 1.93a4.694 4.694 0 000 .575c.05 1.347.555 4.84 4.172 8.375 4.61 4.5 2.645 10.968 2.645 10.968s4.542 1.79 7.148 2.157c-.25-.004-.5.011-.746.043-.153.02-.3.027-.453.02-2.371-.06-7.867-2.22-7.867-2.22s1.964-6.468-2.645-10.968c-3.633-3.536-4.137-7.028-4.188-8.368a4.81 4.81 0 01.012-.582zm0 0">
      </path>
    </g>
    <g id="bt" clip-path="url(#K)">
      <path
        d="M18.438 120.922c.859.156 1.921.445 1.921.89 0 .75 11.989 4.801 11.989 4.801s-.45 1.051.75 2.852c1.199 1.8 10.949 12.152 10.949 12.152l-.031.305-.125 1.191-.598 5.703s3.75-1.347 4.95-1.199c.386.047.808-.199 1.194-.558a5.76 5.76 0 00-.78-1.918s-.973-.766-2.438-1.778v-19.129l-25.465-6.187-2.305 2.297c-.015.191-.02.383-.012.578zm0 0">
      </path>
    </g>
    <g id="bv" clip-path="url(#L)">
      <path d="M43.633 102.516s-10.008 2.472-13.887 8.718zm0 0"></path>
    </g>
    <g id="bx" clip-path="url(#M)">
      <path d="M40.54 113.484s-1.892 12.715-1.368 13.672c.527.957 1.367-13.672 1.367-13.672zm0 0"></path>
    </g>
    <g id="bz" clip-path="url(#N)">
      <path
        d="M41.215 120.012c.73.957 3.687 8.328 3.687 8.328l-.855 12.379-.75 7.199s3.746-1.352 4.95-1.2c.534.067 1.128-.429 1.616-1-.777-4.218-2.441-13.042-2.746-13.21-.398-.227-2.422-7.317-2.527-9.285-.11-1.97-2.926-6.41-2.926-6.41s-1.18 2.246-.45 3.199zm0 0">
      </path>
    </g>
    <g id="bB" clip-path="url(#O)">
      <path
        d="M44.047 107.86c.183.562.473 3.824.473 3.824.203 2.879 2.378 3.82 3.726 4.117.031-.2.078-.399.145-.59.898-2.547 12.59-27.156 12.59-27.156a16.187 16.187 0 00-.465-3.703c-2.547-.75-6.578.402-6.578.402-1.165-.152-4.961 7.41-4.961 7.41s-2.536 5.793-2.813 6.582c-.277.785 0 2.082-.113 2.535-.11.45-1.293.84-1.461 1.461-.168.621-.059 1.852-.172 2.078-.113.227-.566 2.477-.371 3.04zm0 0">
      </path>
    </g>
    <g id="bD" clip-path="url(#P)">
      <path
        d="M35.262 94.441c1.582 1.63 4.168 1.633 6.23.805 2.063-.824 3.813-2.336 5.73-3.5 1.247-.75 2.555-1.383 3.782-2.164.18-.117.355-.234.523-.355 1.414-1 2.637-2.282 4.098-3.2a6.372 6.372 0 013.293-1.054 3.764 3.764 0 011.57.328c.086.039.168.082.25.133.48.277.922.613 1.325 1 .41.37.808.77 1.246 1.113.027-.121.046-.25.07-.371.023-.168.043-.332.047-.5.332.031.664.05 1 .05a9.443 9.443 0 003.156-.562c0-.039.016-.082.023-.121.36-1.89.997-3.895 2.528-4.957.879-.617 2.289-.867 3.508-1.336a9.607 9.607 0 00-3.973-10.688 9.579 9.579 0 00-11.375.657 9.603 9.603 0 00-2.727 11.07c-1.546-.203-3.746 0-6.742 1.266-7.047 3-8.695 3.148-8.695 3.148l-3.52 4.652c.383.586.813 1.16.852 1.844.082 1.266-1.137 2.137-2.2 2.742zm0 0">
      </path>
    </g>
    <g id="bF" clip-path="url(#Q)">
      <path
        d="M36.008 87.156c.008-.097.027-.195.054-.293.403.637.903 1.25.95 2 .011.172 0 .348-.043.516-.446-.723-1.024-1.395-.961-2.223zm0 0M41.043 92.39c2.066-.828 3.812-2.335 5.727-3.5 1.421-.867 2.945-1.554 4.312-2.519 1.414-1 2.64-2.281 4.102-3.195 1.46-.914 3.296-1.434 4.859-.727 1.176.531 1.996 1.66 3.059 2.422 1.062.762 2.68 1.059 3.484.012.363-.469.469-1.086.582-1.68.36-1.887.996-3.887 2.527-4.953 1.653-1.156 5.153-1.023 5.785-3.46a3.69 3.69 0 00.082-1.325c.41 1.082.618 2.172.372 3.12-.637 2.438-4.137 2.31-5.79 3.466-1.519 1.062-2.167 3.062-2.527 4.953-.113.59-.219 1.215-.578 1.68-.809 1.046-2.434.75-3.496-.012-1.066-.766-1.883-1.89-3.063-2.426-1.562-.703-3.398-.187-4.859.73-1.46.915-2.684 2.2-4.098 3.196-1.367.969-2.89 1.652-4.316 2.52-1.91 1.171-3.66 2.675-5.727 3.5-2.066.824-4.644.824-6.226-.805.41-.223.797-.48 1.16-.774 1.441.528 3.168.364 4.629-.222zm0 0">
      </path>
    </g>
    <g id="bH" clip-path="url(#R)">
      <path
        d="M188.281 150.504s-7.636-.461-6.746 4.894c-.094.559.18 1.114.68 1.375 0 0 0-.394.785-.261.273.047.55.062.828.039a1.705 1.705 0 001.016-.414s2.144-.89 2.984-4.403c0 0 .613-.765.59-.964l-1.29.554s.442.93.095 1.7c0 0-.04-1.669-.29-1.63-.05 0-.667.325-.667.325s.75 1.617.183 2.797c0 0 .219-2-.422-2.68l-.906.527s.883 1.676.285 3.043c0 0 .156-2.097-.476-2.91l-.825.64s.833 1.65.329 2.786c0 0-.067-2.442-.5-2.625 0 0-.72.633-.832.894 0 0 .57 1.2.218 1.832 0 0-.218-1.628-.394-1.632 0 0-.719 1.074-.793 1.812.035-.683.25-1.344.617-1.918a2.16 2.16 0 00-1.098.57s.114-.75 1.278-.832c0 0 .59-.812.746-.863 0 0-1.156-.097-1.856.215 0 0 .618-.719 2.067-.39l.812-.665s-1.52-.21-2.168.02c0 0 .75-.637 2.387-.172l.887-.527s-1.301-.282-2.075-.18c0 0 .817-.441 2.333.035l.632-.285s-.953-.188-1.23-.215c-.281-.027-.293-.105-.293-.105a3.284 3.284 0 011.785.199s1.348-.504 1.324-.586zm0 0"
        fill="#55a8fd"></path>
    </g>
    <g id="bJ" clip-path="url(#S)">
      <path
        d="M174.574 113.086s-3.879 6.605 1.301 8.234a1.314 1.314 0 001.535.02s-.347-.192.121-.817a3.8 3.8 0 00.414-.722c.145-.348.176-.73.086-1.098 0 0 .184-2.316-2.562-4.656 0 0-.403-.899-.59-.969l-.094 1.402s1.028.032 1.559.692c0 0-1.5-.723-1.582-.484-.016.05-.02.75-.02.75s1.79.058 2.578 1.105c0 0-1.68-1.102-2.578-.84l.059 1.05s1.894-.03 2.836 1.126c0 0-1.793-1.09-2.805-.899l.195 1.024s1.848 0 2.625.973c0 0-2.199-1.047-2.562-.75 0 0 .25.93.418 1.148 0 0 1.328.035 1.73.637 0 0-1.547-.543-1.633-.39 0 0 .633 1.128 1.247 1.53a3.919 3.919 0 01-1.426-1.422 2.196 2.196 0 000 1.25s-.625-.445-.156-1.5c0 0-.461-.898-.434-1.062 0 0-.61.988-.649 1.75 0 0-.363-.879.586-2.027l-.218-1.024s-.875 1.266-.965 1.945c0 0-.227-.953.93-2.207l-.07-1.027s-.84 1.031-1.098 1.766c0 0-.024-.93 1.09-2.063l.035-.695s-.602.766-.75 1c-.149.238-.227.215-.227.215a3.288 3.288 0 01.984-1.5s.176-1.446.09-1.465zm0 0"
        fill="#55a8fd"></path>
    </g>
    <g id="bL" clip-path="url(#T)">
      <path
        d="M150.313 60.41s-3.875 6.606 1.304 8.23c.45.34 1.07.348 1.531.024 0 0-.347-.195.125-.82.165-.223.301-.465.41-.723.149-.344.18-.73.087-1.094 0 0 .187-2.316-2.563-4.656 0 0-.402-.898-.59-.965l-.094 1.395s1.032.031 1.559.691c0 0-1.5-.719-1.582-.48-.016.047-.016.75-.016.75s1.786.058 2.575 1.101c0 0-1.68-1.097-2.579-.84l.063 1.051s1.89-.027 2.832 1.125c0 0-1.793-1.086-2.805-.898l.196 1.027s1.847 0 2.629.973c0 0-2.204-1.047-2.567-.75 0 0 .25.93.422 1.148 0 0 1.324.035 1.727.637 0 0-1.547-.547-1.633-.39 0 0 .633 1.128 1.25 1.53a3.99 3.99 0 01-1.43-1.421 2.211 2.211 0 000 1.234s-.625-.445-.156-1.512c0 0-.457-.898-.43-1.062 0 0-.61.988-.652 1.75 0 0-.36-.88.59-2.024l-.223-1.027s-.875 1.266-.965 1.945c0 0-.226-.953.93-2.207l-.07-1.027s-.836 1.031-1.098 1.766c0 0-.024-.93 1.09-2.063l.035-.691s-.602.761-.75 1c-.149.234-.227.21-.227.21a3.289 3.289 0 011-1.5s.16-1.406.075-1.437zm0 0"
        fill="#55a8fd"></path>
    </g>
    <g id="bN" clip-path="url(#U)">
      <path
        d="M66.797 10.387s-14.438 10.5-4.879 18.816c0 0 1.078 1.973 3.262 1.473 0 0-.567-.735 1.02-1.633a8.22 8.22 0 001.554-1.16 4.027 4.027 0 001.207-2.25s2.55-4.785-1.148-12.352c0 0-.024-2.297-.36-2.613l-1.5 2.906s2.172 1.02 2.695 2.93c0 0-2.55-2.95-2.937-2.5-.078.086-.73 1.574-.73 1.574s3.769 1.793 4.484 4.766c0 0-2.567-3.922-4.746-4.207l-.848 2.304s4.074 1.7 5.02 5.051c0 0-2.829-4-5.172-4.539l-.528 2.379s3.942 1.738 4.707 4.531c0 0-3.746-4.297-4.793-3.976 0 0-.355 2.207-.167 2.84 0 0 2.804 1.312 3.101 2.976 0 0-2.8-2.605-3.129-2.355 0 0 .305 3 1.266 4.441 0 0-1.574-2.023-1.735-4.367 0 0-1.07 1.25-1.129 2.652 0 0-.93-1.539 1.067-3.383 0 0-.145-2.351.07-2.675 0 0-2.23 1.543-3.031 3.14 0 0 .047-2.207 3.148-3.777l.48-2.395s-3.05 1.88-3.874 3.25c0 0 .398-2.25 4.043-3.855l.808-2.266s-2.746 1.426-3.996 2.75c0 0 .817-2 4.246-3.39l.72-1.45s-2 1.075-2.536 1.434c-.539.36-.687.25-.687.25a7.704 7.704 0 013.511-2.293s1.684-2.91 1.516-3.027zm0 0"
        fill="#55a8fd"></path>
    </g>
    <g id="bP" clip-path="url(#V)">
      <path
        d="M52.773 45.035s-18.68-7.86-21.125 6.313c0 0-1.277 2.21.5 4.035 0 0 .38-.98 2.188.031.644.36 1.328.637 2.039.832a4.59 4.59 0 002.902-.156s6.137-.332 11.305-8.375c0 0 2.215-1.371 2.328-1.887l-3.707.25s.285 2.715-1.246 4.344c0 0 1.36-4.211.707-4.328-.133-.028-1.957.215-1.957.215s.473 4.714-2 7.156c0 0 2.293-4.797 1.297-7.074l-2.73.53s.75 4.962-1.954 7.845c0 0 2.22-5.098 1.364-7.688l-2.618.879s.63 4.852-1.629 7.25c0 0 1.973-6.152 1.043-7 0 0-2.351.957-2.855 1.5 0 0 .371 3.5-1.066 4.762 0 0 .882-4.25.449-4.422 0 0-2.738 2.058-3.57 3.836 0 0 1.039-2.715 3.222-4.25 0 0-1.832-.313-3.246.457 0 0 .945-1.8 3.91-.95 0 0 2.196-1.519 2.633-1.5 0 0-2.8-1.25-4.828-1.093 0 0 2.172-1.25 5.516.84l2.605-.946s-3.621-1.859-5.438-1.851c0 0 2.415-.934 6.114 1.664l2.676-.55s-3-1.84-5.024-2.263c0 0 2.426-.386 5.793 2.137l1.828-.152s-2.215-1.305-2.883-1.625c-.671-.317-.64-.52-.64-.52a8.74 8.74 0 014.289 2.063s3.789-.078 3.808-.309zm0 0"
        fill="#55a8fd"></path>
    </g>
    <g id="bR" clip-path="url(#W)">
      <path
        d="M41.59 25.191s-6.621-15.32-16.14-8.293c0 0-2.016.586-2 2.676 0 0 .784-.367 1.277 1.266.187.578.437 1.133.75 1.652a3.755 3.755 0 001.816 1.563s3.836 3.304 11.488 1.472c0 0 2.094.45 2.457.207l-2.343-1.968s-1.372 1.777-3.215 1.863c0 0 3.203-1.727 2.883-2.168-.067-.09-1.286-.984-1.286-.984s-2.406 3.07-5.246 3.117c0 0 4.094-1.547 4.793-3.465l-1.922-1.25s-2.414 3.383-5.66 3.562c0 0 4.223-1.765 5.188-3.793l-2.055-.957s-2.387 3.25-5.09 3.372c0 0 4.676-2.532 4.602-3.563 0 0-1.942-.773-2.555-.73 0 0-1.766 2.289-3.344 2.222 0 0 2.946-2.023 2.785-2.375 0 0-2.796-.336-4.304.25 0 0 2.164-1.02 4.332-.683 0 0-.91-1.235-2.184-1.575 0 0 1.59-.535 2.863 1.66 0 0 2.168.352 2.422.61 0 0-.949-2.348-2.25-3.402 0 0 2 .5 2.801 3.64l2.086.93s-1.09-3.172-2.176-4.2c0 0 1.969.821 2.688 4.477l1.894 1.196s-.734-2.801-1.691-4.207c0 0 1.66 1.156 2.223 4.574l1.175.949s-.574-2.035-.793-2.606c-.218-.57-.078-.675-.078-.675a7.229 7.229 0 011.371 3.672s2.297 2.097 2.438 1.964zm0 0"
        fill="#55a8fd"></path>
    </g>
    <g id="bT" clip-path="url(#X)">
      <path
        d="M170.645 33.16s-1.56-7.5-6.493-5.222a1.304 1.304 0 00-1.148 1.015s.387-.09.457.688c.027.277.09.55.18.812.125.356.359.66.672.871 0 0 1.417 1.84 5.023 1.727 0 0 .902.394 1.086.32l-.871-1.101s-.781.671-1.617.539c0 0 1.597-.48 1.5-.707-.024-.051-.489-.563-.489-.563s-1.363 1.156-2.648.914c0 0 1.98-.316 2.473-1.113l-.75-.738s-1.383 1.296-2.856 1.074c0 0 2.059-.403 2.684-1.223l-.836-.625s-1.375 1.235-2.602 1.043c0 0 2.336-.707 2.399-1.176 0 0-.797-.527-1.082-.566 0 0-.997.867-1.704.691 0 0 1.497-.636 1.47-.808 0 0-1.227-.41-1.958-.29a3.908 3.908 0 012.012.094 2.162 2.162 0 00-.836-.91s.762-.093 1.133 1c0 0 .941.356 1.031.5 0 0-.21-1.144-.695-1.75 0 0 .855.407.922 1.895l.851.613s-.195-1.527-.59-2.09c0 0 .809.551.793 2.25l.75.715s-.07-1.328-.37-2.05c0 0 .636.675.573 2.25l.442.538s-.07-.968-.113-1.25c-.047-.28.023-.312.023-.312.258.555.351 1.172.277 1.781 0 0 .832 1.207.907 1.164zm0 0"
        fill="#55a8fd"></path>
    </g>
    <g id="bV" clip-path="url(#Y)">
      <path
        d="M143.766 172.191s-1.559-7.5-6.496-5.222a1.308 1.308 0 00-1.153 1.015s.39-.093.461.688c.027.277.086.55.18.812.125.356.36.66.672.871 0 0 1.418 1.84 5.023 1.723 0 0 .902.399 1.086.32l-.871-1.097s-.781.668-1.617.535c0 0 1.597-.477 1.496-.707-.02-.047-.484-.563-.484-.563s-1.364 1.16-2.653.918c0 0 1.985-.316 2.477-1.113l-.75-.75s-1.367 1.3-2.848 1.07c0 0 2.063-.402 2.684-1.222l-.836-.625s-1.371 1.234-2.598 1.043c0 0 2.336-.703 2.399-1.176 0 0-.801-.527-1.083-.566 0 0-1 .867-1.707.69 0 0 1.5-.636 1.473-.812 0 0-1.226-.41-1.96-.285a3.964 3.964 0 012.015.09 2.185 2.185 0 00-.84-.906s.762-.094 1.133 1c0 0 .945.355 1.035.5 0 0-.211-1.145-.695-1.75 0 0 .855.406.918 1.894l.855.61s-.2-1.524-.594-2.09c0 0 .813.555.797 2.25l.75.715s-.07-1.324-.375-2.047c0 0 .64.672.578 2.25l.442.539s-.07-.969-.118-1.25c-.042-.281.028-.309.028-.309.254.555.351 1.168.277 1.778 0 0 .828 1.215.899 1.18zm0 0"
        fill="#55a8fd"></path>
    </g>
    <linearGradient id="ab" gradientUnits="userSpaceOnUse" x1="974.2" y1="792.81" x2="974.2" y2="205.4"
      gradientTransform="matrix(.24978 0 0 .25 -6.354 -18.06)">
      <stop offset="0" stop-color="gray" stop-opacity=".251"></stop>
      <stop offset=".54" stop-color="gray" stop-opacity=".122"></stop>
      <stop offset="1" stop-color="gray" stop-opacity=".102"></stop>
    </linearGradient>
    <linearGradient id="bm" gradientUnits="userSpaceOnUse" x1="215.55" y1="703.96" x2="215.55" y2="309.97"
      gradientTransform="matrix(.24978 0 0 .25 -6.354 -18.06)">
      <stop offset="0" stop-color="gray" stop-opacity=".251"></stop>
      <stop offset=".54" stop-color="gray" stop-opacity=".122"></stop>
      <stop offset="1" stop-color="gray" stop-opacity=".102"></stop>
    </linearGradient>
    <filter id="a" filterUnits="objectBoundingBox" x="0%" y="0%" width="100%" height="100%">
      <feColorMatrix in="SourceGraphic" values="0 0 0 0 1 0 0 0 0 1 0 0 0 0 1 0 0 0 1 0"></feColorMatrix>
    </filter>
  </defs>
  <use xlink:href="#Z" mask="url(#aa)"></use>
  <use xlink:href="#ac" mask="url(#ad)"></use>
  <use xlink:href="#ag" mask="url(#ah)"></use>
  <path
    d="M206.55 89.254l-.671-.863-2.25-2.914-1.164-1.489a3.845 3.845 0 001.633.442c.75.02 1.593-.25 2.136-1.348.313-.617.59-1.25.825-1.902.375-1.059.367-1.606.234-1.79-.133-.187.832.712 1.297 1.157l.02.012.214.207.082.16 1.137 2.277v.094c.105.723.484 5.308-3.492 5.957zm0 0"
    fill="#e7effd"></path>
  <path
    d="M117.96 128.848s2.75-1.973 5.606-.75c0 0-.8 1.695-4.347 1.672zm0 0M117.621 128.96s-.734 3.31 1.496 5.454c0 0 1.25-1.398-.164-4.656zm0 0M113.977 125.953s.105-2.793 6.421-2.11c0 0 .098 1.798-2.074 2.731-2.172.938-3.21.258-4.347-.62zm0 0M113.59 125.941s-2.621.954-.028 6.762c0 0 1.747-.46 1.958-2.816.21-2.36-.747-3.125-1.93-3.946zm0 0M109.883 122.137s-.531-4.57 5.906-4.348c0 0 .613 4.133-4.727 5.402zm0 0M105.441 117.125s.684-5.227 7.16-3.926c0 0 .196 4.5-6.062 5.125zm0 0M102.137 111.895s1.281-5.125 7.699-3.844c0 0-1.34 4.605-7.246 4.75zm0 0M98.992 106.785s1.25-5.305 7.438-3.96c0 0-1.86 5.062-6.993 4.84zm0 0M96.902 101.898s.864-6.457 6.649-5.261c0 0-1.442 5.902-6.188 6.18zm0 0M94.895 95.969s1.082-6.52 6.937-4.86c0 0-2.035 6.2-6.492 5.75zm0 0M93.578 90.441s1.863-6.554 6.352-6.55c0 0-1.899 6.918-5.926 7.832zm0 0M92.672 85.016s2-7.875 5.664-7.414c0 0-1.36 6.011-5.496 8.625zm0 0M92.023 78.531s1.907-6.578 5.497-6.972c0 0-1.223 6.445-5.348 8.652zm0 0M91.36 72.492s2.433-6.601 4.808-6.836c0 0-.922 6.442-4.531 7.895zm0 0M90.844 66.867s1.383-7.12 3.73-7.797c0 0-.101 5.785-3.472 8.317zm0 0M89.668 59.523s1.52-5.691 3.41-6.62c0 0-.125 6.644-2.91 7.98zm0 0M88.738 54.707l-.726-9.906s3.875 7.347 1.05 11.64zm0 0M85.586 44.953s-2.863-7.14-3.496-7.52c0 0 5.242 4.5 4.996 10.567zm0 0M109.707 122.11s-4.574-.422-4.195 6.011c0 0 4.144.5 5.281-4.863zm0 0M105.223 116.96s-5.266.185-4.582 6.75c0 0 4.445.618 5.668-5.554zm0 0M102.105 112.324s-4.863-2.058-7.699 3.844c0 0 4.485 1.7 8.156-2.926zm0 0M98.89 106.836s-4.984-2.195-7.64 3.566c0 0 5.164 1.559 8.074-2.683zm0 0M96.969 102.035s-4.875-4.32-8.457.375c0 0 4.949 3.516 8.715.617zm0 0"
    fill="#55a8fd"></path>
  <path
    d="M95.156 95.809s-4.914-4.422-8.453.535c0 0 5.461 3.57 8.66.422zm0 0M94.059 90.234s-3.871-5.605-8.114-4.16c0 0 4.016 5.938 8.121 5.5zm0 0M92.777 84.977s-3.953-7.098-7.382-5.711c0 0 2.863 5.464 7.523 6.925zm0 0M92.262 78.148s-3.996-5.55-7.508-4.718c0 0 3.308 5.656 7.937 6.355zm0 0M91.754 72.352s-3.172-6.282-5.559-6.25c0 0 1.653 6.293 5.399 7.324zm0 0M90.957 66.723s-3.5-6.352-5.95-6.27c0 0 1.876 5.473 5.86 6.844zm0 0M90.203 59.898s-2.64-5.261-4.676-5.789c0 0 1.465 6.48 4.465 7.223zm0 0"
    fill="#55a8fd"></path>
  <path
    d="M88.441 54.531l-5.757-8.09s1.707 8.13 6.613 9.637zm0 0M84.363 45.672s-6.492-4.129-6.742-4.824c0 0 3.461 6 9.465 6.847zm0 0M83.91 43.719s-7.527-6.707-9.383-6.63c0 0 5.996.048 9.543 6.25zm0 0"
    fill="#55a8fd"></path>
  <path
    d="M90.176 60.941l-.266.043c-1.773-10.636-3.996-16.879-6.281-17.574l.074-.25c2.418.73 4.652 6.883 6.473 17.781zm0 0"
    fill="#444053"></path>
  <path
    d="M93.156 86.426l-.398.05c-.121-1-.223-2.015-.309-3.03-.719-8.837-1.62-16.938-2.629-23l.22-.298c1 6.075 2.089 14.418 2.812 23.25.078 1.024.183 2.043.304 3.028zm0 0"
    fill="#444053"></path>
  <path
    d="M125.617 133.652c-.074-.03-7.23-2.902-14.82-10.125a58.114 58.114 0 01-11.106-14.53c-3.636-6.75-6.02-15.13-7.023-23.321l.422.183c2.25 18.38 11.125 30.664 18.058 37.262 7.516 7.16 14.594 10 14.66 10.035zm0 0"
    fill="#444053"></path>
  <use xlink:href="#bk" mask="url(#bl)"></use>
  <use xlink:href="#bn" mask="url(#bo)"></use>
  <path
    d="M203.71 67.852l-10.237-10.309a5.428 5.428 0 00-3.852-1.637 5.425 5.425 0 00-3.871 1.582l-64.313 63.82-27.19-27.425a5.42 5.42 0 00-7.669-.055l-10.348 10.25a5.506 5.506 0 00-.054 7.73l41.293 41.653a5.494 5.494 0 007.726.055l78.461-77.938a5.443 5.443 0 00.055-7.727zm0 0"
    fill="#3acc6c"></path>
  <use xlink:href="#bH" mask="url(#bI)"></use>
  <use xlink:href="#bJ" mask="url(#bK)"></use>
  <use xlink:href="#bL" mask="url(#bM)"></use>
  <use xlink:href="#bN" mask="url(#bO)"></use>
  <use xlink:href="#bP" mask="url(#bQ)"></use>
  <use xlink:href="#bR" mask="url(#bS)"></use>
  <use xlink:href="#bT" mask="url(#bU)"></use>
  <use xlink:href="#bV" mask="url(#bW)"></use>
</svg>