<?xml version="1.0" encoding="UTF-8"?>
<svg xmlns="http://www.w3.org/2000/svg" xmlns:xlink="http://www.w3.org/1999/xlink" width="11pt" height="11pt" viewBox="0 0 11 11" version="1.1">
<g id="surface1">
<path style=" stroke:none;fill-rule:nonzero;fill:rgb(69.019608%,15.294118%,12.941176%);fill-opacity:1;" d="M 9.90625 5.160156 L 5.523438 1.785156 L 1.144531 5.160156 C 0.917969 5.335938 0.59375 5.308594 0.402344 5.101562 C 0.179688 4.863281 0.210938 4.488281 0.464844 4.289062 L 5.148438 0.625 L 5.523438 0.277344 L 5.902344 0.625 L 10.582031 4.289062 C 10.839844 4.488281 10.867188 4.863281 10.648438 5.101562 C 10.453125 5.308594 10.132812 5.335938 9.90625 5.160156 Z M 9.90625 5.160156 "/>
<path style=" stroke:none;fill-rule:nonzero;fill:rgb(69.019608%,15.294118%,12.941176%);fill-opacity:1;" d="M 9.90625 5.160156 L 5.523438 1.785156 L 1.144531 5.160156 C 0.917969 5.335938 0.59375 5.308594 0.402344 5.101562 C 0.179688 4.863281 0.210938 4.488281 0.464844 4.289062 L 5.148438 0.625 L 5.523438 0.277344 L 5.902344 0.625 L 10.582031 4.289062 C 10.839844 4.488281 10.867188 4.863281 10.648438 5.101562 C 10.453125 5.308594 10.132812 5.335938 9.90625 5.160156 Z M 9.90625 5.160156 "/>
<path style=" stroke:none;fill-rule:nonzero;fill:rgb(87.843137%,88.235294%,88.627451%);fill-opacity:1;" d="M 5.523438 1.785156 L 1.289062 5.046875 L 1.289062 10.589844 L 9.761719 10.589844 L 9.761719 5.046875 Z M 5.523438 1.785156 "/>
<path style=" stroke:none;fill-rule:nonzero;fill:rgb(87.843137%,88.235294%,88.627451%);fill-opacity:1;" d="M 10.863281 8.746094 C 10.761719 8.746094 10.679688 8.828125 10.679688 8.929688 L 10.679688 9.117188 L 10.496094 9.117188 L 10.496094 8.929688 C 10.496094 8.828125 10.414062 8.746094 10.3125 8.746094 C 10.210938 8.746094 10.128906 8.828125 10.128906 8.929688 L 10.128906 9.117188 L 9.761719 9.117188 C 9.660156 9.117188 9.574219 9.199219 9.574219 9.300781 C 9.574219 9.402344 9.660156 9.484375 9.761719 9.484375 L 10.128906 9.484375 L 10.128906 10.035156 L 9.761719 10.035156 C 9.660156 10.035156 9.574219 10.117188 9.574219 10.21875 C 9.574219 10.320312 9.660156 10.40625 9.761719 10.40625 L 10.128906 10.40625 L 10.128906 10.589844 C 10.128906 10.691406 10.210938 10.773438 10.3125 10.773438 C 10.414062 10.773438 10.496094 10.691406 10.496094 10.589844 L 10.496094 10.40625 L 10.679688 10.40625 L 10.679688 10.589844 C 10.679688 10.691406 10.761719 10.773438 10.863281 10.773438 C 10.964844 10.773438 11.050781 10.691406 11.050781 10.589844 L 11.050781 8.929688 C 11.050781 8.828125 10.964844 8.746094 10.863281 8.746094 Z M 10.496094 10.035156 L 10.496094 9.484375 L 10.679688 9.484375 L 10.679688 10.035156 Z M 10.496094 10.035156 "/>
<path style=" stroke:none;fill-rule:nonzero;fill:rgb(87.843137%,88.235294%,88.627451%);fill-opacity:1;" d="M 1.289062 9.484375 C 1.390625 9.484375 1.472656 9.402344 1.472656 9.300781 C 1.472656 9.199219 1.390625 9.117188 1.289062 9.117188 L 0.921875 9.117188 L 0.921875 8.929688 C 0.921875 8.828125 0.839844 8.746094 0.738281 8.746094 C 0.636719 8.746094 0.550781 8.828125 0.550781 8.929688 L 0.550781 9.117188 L 0.367188 9.117188 L 0.367188 8.929688 C 0.367188 8.828125 0.285156 8.746094 0.183594 8.746094 C 0.0820312 8.746094 0 8.828125 0 8.929688 L 0 10.589844 C 0 10.691406 0.0820312 10.773438 0.183594 10.773438 C 0.285156 10.773438 0.367188 10.691406 0.367188 10.589844 L 0.367188 10.40625 L 0.550781 10.40625 L 0.550781 10.589844 C 0.550781 10.691406 0.636719 10.773438 0.738281 10.773438 C 0.839844 10.773438 0.921875 10.691406 0.921875 10.589844 L 0.921875 10.40625 L 1.289062 10.40625 C 1.390625 10.40625 1.472656 10.320312 1.472656 10.21875 C 1.472656 10.117188 1.390625 10.035156 1.289062 10.035156 L 0.921875 10.035156 L 0.921875 9.484375 Z M 0.550781 10.035156 L 0.367188 10.035156 L 0.367188 9.484375 L 0.550781 9.484375 Z M 0.550781 10.035156 "/>
<path style=" stroke:none;fill-rule:nonzero;fill:rgb(33.333333%,37.647059%,50.196078%);fill-opacity:1;" d="M 2.761719 4.878906 L 4.972656 4.878906 L 4.972656 6.351562 L 2.761719 6.351562 Z M 2.761719 4.878906 "/>
<path style=" stroke:none;fill-rule:nonzero;fill:rgb(33.333333%,37.647059%,50.196078%);fill-opacity:1;" d="M 2.761719 7.457031 L 4.972656 7.457031 L 4.972656 9.300781 L 2.761719 9.300781 Z M 2.761719 7.457031 "/>
<path style=" stroke:none;fill-rule:nonzero;fill:rgb(33.333333%,37.647059%,50.196078%);fill-opacity:1;" d="M 6.078125 4.878906 L 8.285156 4.878906 L 8.285156 6.351562 L 6.078125 6.351562 Z M 6.078125 4.878906 "/>
<path style=" stroke:none;fill-rule:nonzero;fill:rgb(33.333333%,37.647059%,50.196078%);fill-opacity:1;" d="M 6.078125 7.457031 L 8.285156 7.457031 L 8.285156 10.589844 L 6.078125 10.589844 Z M 6.078125 7.457031 "/>
<path style=" stroke:none;fill-rule:nonzero;fill:rgb(45.098039%,51.372549%,74.901961%);fill-opacity:1;" d="M 6.078125 4.878906 L 8.285156 4.878906 L 8.285156 5.984375 L 6.078125 5.984375 Z M 6.078125 4.878906 "/>
<path style=" stroke:none;fill-rule:nonzero;fill:rgb(45.098039%,51.372549%,74.901961%);fill-opacity:1;" d="M 2.761719 4.878906 L 4.972656 4.878906 L 4.972656 5.390625 L 2.761719 5.390625 Z M 2.761719 4.878906 "/>
<path style=" stroke:none;fill-rule:nonzero;fill:rgb(45.098039%,51.372549%,74.901961%);fill-opacity:1;" d="M 4.050781 8.195312 L 4.050781 7.457031 L 3.683594 7.457031 L 3.683594 8.195312 L 2.761719 8.195312 L 2.761719 8.5625 L 3.683594 8.5625 L 3.683594 9.300781 L 4.050781 9.300781 L 4.050781 8.5625 L 4.972656 8.5625 L 4.972656 8.195312 Z M 4.050781 8.195312 "/>
</g>
</svg>
