<svg xmlns="http://www.w3.org/2000/svg" xmlns:xlink="http://www.w3.org/1999/xlink" width="268pt" height="146pt" viewBox="0 0 268 146" name="notfound"><defs><clipPath id="b"><path d="M0 0h268v146H0z"></path></clipPath><clipPath id="c"><path d="M0 0h268v146H0z"></path></clipPath><clipPath id="d"><path d="M0 0h268v146H0z"></path></clipPath><clipPath id="e"><path d="M0 0h268v146H0z"></path></clipPath><clipPath id="f"><path d="M0 0h268v146H0z"></path></clipPath><clipPath id="g"><path d="M0 0h268v146H0z"></path></clipPath><clipPath id="h"><path d="M0 0h268v146H0z"></path></clipPath><mask id="j"><g filter="url(#a)"><path fill-opacity=".102" d="M0 0h268v146H0z"></path></g></mask><mask id="l"><g filter="url(#a)"><path fill-opacity=".102" d="M0 0h268v146H0z"></path></g></mask><mask id="n"><g filter="url(#a)"><path fill-opacity=".102" d="M0 0h268v146H0z"></path></g></mask><mask id="p"><g filter="url(#a)"><path fill-opacity=".102" d="M0 0h268v146H0z"></path></g></mask><mask id="r"><g filter="url(#a)"><path fill-opacity=".102" d="M0 0h268v146H0z"></path></g></mask><mask id="t"><g filter="url(#a)"><path fill-opacity=".302" d="M0 0h268v146H0z"></path></g></mask><mask id="v"><g filter="url(#a)"><path fill-opacity=".302" d="M0 0h268v146H0z"></path></g></mask><g id="i" clip-path="url(#b)"><path d="M125.418 19.902c-4.523 0-8.27-4.316-8.926-9.949-.07.586-.105 1.176-.105 1.77 0 6.472 4.043 11.718 9.031 11.718s9.031-5.246 9.031-11.718c0-.594-.035-1.184-.105-1.77-.656 5.633-4.403 9.95-8.926 9.95zm0 0"></path></g><g id="k" clip-path="url(#c)"><path d="M143.793 46.047c-.195.797-1.031 1.437-1.957 1.887-1.945.937-4.348 1.218-6.676 1.312-.594.035-1.191.024-1.785-.035a5.1 5.1 0 01-3.055-1.406.417.417 0 01-.191-.36.424.424 0 01.2-.351c1.241-1.364 3.312-2.203 5.394-2.805 1.582-.457 4.34-1.64 6.062-1.48 1.668.156 2.254 2.23 2.008 3.238zm0 0"></path></g><g id="m" clip-path="url(#d)"><path d="M132.879 1.336c-.043 0-.082.004-.121.004a3.22 3.22 0 013.101 3.222 3.22 3.22 0 01-3.101 3.223c.039 0 .078.004.12.004a3.223 3.223 0 003.22-3.226 3.223 3.223 0 00-3.22-3.227zm0 0"></path></g><g id="o" clip-path="url(#e)"><path d="M117.566 1.336c.04 0 .079.004.118.004a3.223 3.223 0 00-3.102 3.222 3.223 3.223 0 003.102 3.223c-.04 0-.079.004-.118.004a3.226 3.226 0 010-6.453zm0 0"></path></g><g id="q" clip-path="url(#f)"><path d="M128.16 10.07c-.539.407-1.2.63-1.879.63h-3.765c-.68 0-1.34-.223-1.883-.63zm0 0"></path></g><g id="s" clip-path="url(#g)"><path d="M146.71 88.777c0 .692-.558 1.25-1.245 1.25a1.25 1.25 0 010-2.5 1.25 1.25 0 011.246 1.25zm0 0" fill="#55a8fd"></path></g><g id="u" clip-path="url(#h)"><path d="M116.27 88.777a1.248 1.248 0 11-2.497 0c0-.687.559-1.25 1.25-1.25a1.25 1.25 0 011.247 1.25zm0 0" fill="#55a8fd"></path></g><filter id="a" filterUnits="objectBoundingBox" x="0%" y="0%" width="100%" height="100%"><feColorMatrix in="SourceGraphic" values="0 0 0 0 1 0 0 0 0 1 0 0 0 0 1 0 0 0 1 0"></feColorMatrix></filter></defs><path d="M266.54 137.328c0-4.824-58.935-8.73-131.63-8.73-72.7 0-131.629 3.906-131.629 8.73 0 4.82 58.93 8.73 131.63 8.73 72.694 0 131.628-3.91 131.628-8.73zm0 0" fill="#f2f2f2"></path><path d="M129.863 41.754c-21.445 0-36.843 13.785-36.843 45.95 0 36.452 15.398 46.1 36.843 46.1 21.446 0 37.762-10.57 37.762-46.1 0-37.985-16.316-45.95-37.762-45.95zm.14 79.95c-14.85 0-22.612-8.731-22.612-33.977 0-22.278 8.078-34.028 22.933-34.028 14.852 0 22.93 7.719 22.93 34.028 0 24.609-8.395 33.976-23.25 33.976zm0 0" fill="#2f2e41"></path><path d="M80.18 108.379h-8.868v-26.16a5.235 5.235 0 00-5.23-5.239h-2.078a5.235 5.235 0 00-5.23 5.239v26.16H33.765a2.983 2.983 0 01-2.559-1.445 3.001 3.001 0 01-.082-2.942l26.473-50.195a5.24 5.24 0 00-2.39-7.184l-1.563-.742a5.227 5.227 0 00-6.848 2.27l-32.285 60.507a7.146 7.146 0 00-.836 3.348c0 3.926 3.176 7.106 7.09 7.106h38.007v16.539c0 3.468 2.809 6.28 6.27 6.28 3.46 0 6.27-2.812 6.27-6.28V119.1h8.867c2.953 0 5.347-2.402 5.347-5.363 0-2.96-2.394-5.36-5.347-5.36zm0 0M244.371 108.379h-8.867v-26.16a5.232 5.232 0 00-5.23-5.239h-2.079a5.231 5.231 0 00-5.226 5.239v26.16h-25.012a2.987 2.987 0 01-2.64-4.387l26.472-50.195a5.24 5.24 0 00.336-4.106 5.228 5.228 0 00-2.727-3.078l-1.562-.742a5.223 5.223 0 00-6.844 2.27l-32.285 60.507a7.103 7.103 0 00-.84 3.348c0 3.926 3.176 7.106 7.094 7.106h38.008v16.539c0 3.468 2.804 6.28 6.265 6.28 3.465 0 6.27-2.812 6.27-6.28V119.1h8.867a5.357 5.357 0 005.352-5.363c0-2.96-2.395-5.36-5.352-5.36zm0 0" fill="#55a8fd"></path><path d="M394.17 579.15h-35.534V474.51c0-11.579-9.377-20.954-20.961-20.954h-8.328c-11.569 0-20.945 9.375-20.945 20.954v104.64H208.168a11.992 11.992 0 01-10.253-5.797 11.954 11.954 0 01-.33-11.75l106.089-200.781c2.661-5.063 3.162-11 1.346-16.422a20.998 20.998 0 00-10.926-12.328l-6.262-2.953c-10.097-4.766-22.166-.781-27.426 9.078L131.024 580.228a28.325 28.325 0 00-3.365 13.39c0 15.688 12.727 28.423 28.412 28.423h152.33v66.156c0 13.875 11.24 25.125 25.11 25.125s25.125-11.25 25.125-25.125v-66.156h35.535c11.834 0 21.446-9.61 21.446-21.453 0-11.844-9.612-21.438-21.446-21.438zm0 0M1060.74 579.15h-35.535V474.51c0-11.579-9.377-20.954-20.96-20.954h-8.313c-11.584 0-20.961 9.375-20.961 20.954v104.64H874.737a11.946 11.946 0 01-10.237-5.797 11.916 11.916 0 01-.345-11.75l106.088-200.781a20.924 20.924 0 001.347-16.422 20.947 20.947 0 00-10.927-12.328l-6.262-2.953c-10.097-4.766-22.166-.781-27.426 9.078L797.594 580.228a28.325 28.325 0 00-3.366 13.39c0 15.688 12.727 28.423 28.428 28.423h152.315v66.156c0 13.875 11.24 25.125 25.125 25.125 13.87 0 25.11-11.25 25.11-25.125v-66.156h35.534c11.85 0 21.446-9.61 21.446-21.453 0-11.844-9.596-21.438-21.446-21.438zm0 0M603.09 313.869c-85.956 0-147.649 55.14-147.649 183.797 0 145.812 61.693 184.406 147.65 184.406 85.941 0 151.329-42.266 151.329-184.406-.016-151.938-65.388-183.797-151.33-183.797zm.564 319.812c-59.532 0-90.637-34.922-90.637-135.922 0-89.109 32.373-136.109 91.905-136.109 59.533 0 91.906 30.875 91.906 136.11 0 98.453-33.656 135.921-93.174 135.921zm0 0" transform="matrix(.24953 0 0 .25 -15.734 -39.471)" fill="none" stroke="#3f3d56" stroke-miterlimit="10"></path><path d="M251.246 104.887a5.186 5.186 0 005.793-1.594 5.208 5.208 0 00.418-6.004 5.19 5.19 0 00-5.52-2.379l.133 2.676-1.265-2.293a5.179 5.179 0 00-2.965 4.336 5.201 5.201 0 003.406 5.258zm0 0" fill="#57b894"></path><path d="M1094.991 701.681c-1.784-9.109 5.965-17.187 13.62-22.437 7.67-5.25 16.608-10.406 19.223-19.313 3.757-12.812-7.436-24.53-16.14-34.656a124.956 124.956 0 01-16.515-24.547c-1.816-3.531-3.475-7.234-3.96-11.172-.69-5.672 1.142-11.328 2.974-16.734a1214.764 1214.764 0 0119.63-53.656" transform="matrix(.24953 0 0 .25 -15.734 -39.471)" fill="none" stroke="#3f3d56" stroke-miterlimit="10"></path><path d="M1070.774 574.681a20.837 20.837 0 0023.215-6.375 20.827 20.827 0 001.675-24.015c-4.602-7.547-13.478-11.375-22.119-9.532l.517 10.72-5.057-9.188a20.773 20.773 0 00-10.691 11.718 20.489 20.489 0 00-1.19 5.641 20.816 20.816 0 0013.65 21.031zm0 0" transform="matrix(.24953 0 0 .25 -15.734 -39.471)" fill="none" stroke="#3f3d56" stroke-miterlimit="10"></path><path d="M256.871 89.398a5.19 5.19 0 013.738-3.3l.426 2.547.793-2.676a5.206 5.206 0 012.871 9.484 5.183 5.183 0 01-6.12-.164 5.206 5.206 0 01-1.708-5.89zm0 0" fill="#57b894"></path><path d="M1093.598 511.79a20.764 20.764 0 0114.981-13.187l1.706 10.172 3.178-10.687a20.788 20.788 0 0119.6 14.765 20.81 20.81 0 01-8.094 23.172 20.803 20.803 0 01-24.53-.656c-7.17-5.531-9.925-15.063-6.84-23.578zm0 0" transform="matrix(.24953 0 0 .25 -15.734 -39.471)" fill="none" stroke="#3f3d56" stroke-miterlimit="10"></path><path d="M260.762 116.902a5.188 5.188 0 006.418-2.574 5.207 5.207 0 00-1.825-6.683l-.605 2.054-.434-2.574c-.003-.004-.007-.004-.011-.004-2.7-.984-5.68.41-6.657 3.113a5.205 5.205 0 003.114 6.668zm0 0" fill="#57b894"></path><path d="M1109.033 621.76c9.94 3.609 21.024-.813 25.735-10.282 4.712-9.484 1.566-20.984-7.31-26.734l-2.442 8.219-1.738-10.313c-.015 0-.031-.015-.047-.015-10.817-3.922-22.76 1.656-26.674 12.468-3.93 10.813 1.66 22.75 12.476 26.657zm0 0" transform="matrix(.24953 0 0 .25 -15.734 -39.471)" fill="none" stroke="#3f3d56" stroke-miterlimit="10"></path><path d="M255.355 125.543a5.193 5.193 0 004.938 4.297 5.203 5.203 0 002.426-9.883 5.182 5.182 0 00-6.364 1.512l2.313 3.488-3.16-1.852a5.154 5.154 0 00-.153 2.438zm0 0" fill="#57b894"></path><path d="M1087.242 657.29c1.691 9.688 9.957 16.86 19.787 17.188 9.815.328 18.535-6.265 20.899-15.812 2.348-9.547-2.317-19.438-11.177-23.719-8.86-4.266-19.506-1.734-25.501 6.047l9.267 13.953-12.664-7.406a20.58 20.58 0 00-.61 9.75zm0 0" transform="matrix(.24953 0 0 .25 -15.734 -39.471)" fill="none" stroke="#3f3d56" stroke-miterlimit="10"></path><path d="M2.246 117.563a3.415 3.415 0 003.809-1.047 3.425 3.425 0 00.273-3.946 3.407 3.407 0 00-3.625-1.562l.086 1.758-.832-1.508a3.414 3.414 0 00-1.95 2.851 3.421 3.421 0 002.24 3.454zm0 0" fill="#57b894"></path><path d="M88.539 709.76c-1.174-5.985 3.913-11.282 8.954-14.735 5.025-3.453 10.911-6.844 12.617-12.687 2.474-8.422-4.884-16.125-10.597-22.766a82.664 82.664 0 01-10.864-16.14 22.144 22.144 0 01-2.583-7.329c-.454-3.734.735-7.437 1.94-11a811.3 811.3 0 0112.9-35.25" transform="matrix(.24953 0 0 .25 -15.734 -39.471)" fill="none" stroke="#3f3d56" stroke-miterlimit="10"></path><path d="M72.619 626.322a13.701 13.701 0 0015.262-4.188 13.681 13.681 0 001.096-15.78 13.664 13.664 0 00-14.527-6.25l.345 7.03-3.335-6.03a13.666 13.666 0 00-7.028 7.702 14.2 14.2 0 00-.783 3.703c-.423 6.094 3.24 11.735 8.97 13.813zm0 0" transform="matrix(.24953 0 0 .25 -15.734 -39.471)" fill="none" stroke="#3f3d56" stroke-miterlimit="10"></path><path d="M5.941 107.383a3.412 3.412 0 012.457-2.164l.282 1.672.52-1.758a3.415 3.415 0 013.214 2.426 3.42 3.42 0 01-1.328 3.804 3.413 3.413 0 01-4.024-.105 3.435 3.435 0 01-1.12-3.875zm0 0" fill="#57b894"></path><path d="M87.615 585.01c1.597-4.375 5.307-7.657 9.847-8.672l1.127 6.687 2.082-7.031c5.949.094 11.161 4.015 12.883 9.703a13.691 13.691 0 01-5.322 15.234 13.673 13.673 0 01-16.124-.437 13.7 13.7 0 01-4.493-15.485zm0 0" transform="matrix(.24953 0 0 .25 -15.734 -39.471)" fill="none" stroke="#3f3d56" stroke-miterlimit="10"></path><path d="M8.5 125.457a3.41 3.41 0 004.215-1.691 3.422 3.422 0 00-1.195-4.391l-.403 1.348-.281-1.692c-.004 0-.008 0-.012-.004a3.41 3.41 0 00-4.37 2.047 3.422 3.422 0 002.046 4.383zm0 0" fill="#57b894"></path><path d="M97.76 657.26c6.543 2.375 13.806-.547 16.906-6.766 3.1-6.219 1.033-13.781-4.806-17.563l-1.597 5.407-1.143-6.766c-.015-.016-.015-.016-.03-.016-7.108-2.578-14.95 1.094-17.518 8.188-2.583 7.094 1.096 14.937 8.187 17.515zm0 0" transform="matrix(.24953 0 0 .25 -15.734 -39.471)" fill="none" stroke="#3f3d56" stroke-miterlimit="10"></path><path d="M4.945 131.133a3.417 3.417 0 003.246 2.824 3.415 3.415 0 003.426-2.598 3.422 3.422 0 00-1.832-3.898 3.405 3.405 0 00-4.18.996l1.52 2.29-2.078-1.216a3.422 3.422 0 00-.102 1.602zm0 0" fill="#57b894"></path><path d="M83.436 680.603c1.127 6.36 6.543 11.078 13.008 11.297 6.45.219 12.18-4.125 13.729-10.39 1.534-6.282-1.518-12.782-7.342-15.579a13.638 13.638 0 00-16.75 3.97l6.09 9.171-8.328-4.875a13.665 13.665 0 00-.407 6.406zm0 0" transform="matrix(.24953 0 0 .25 -15.734 -39.471)" fill="none" stroke="#3f3d56" stroke-miterlimit="10"></path><path d="M124.254 79.777c0-3.035-1.899-5.5-4.242-5.5-2.344 0-4.242 2.465-4.242 5.5 0 3.04 1.898 5.5 4.242 5.5 2.343 0 4.242-2.46 4.242-5.5zm0 0M147.336 79.902c0-3.035-1.899-5.5-4.242-5.5-2.344 0-4.242 2.465-4.242 5.5 0 3.04 1.898 5.5 4.242 5.5 2.344 0 4.242-2.46 4.242-5.5zm0 0M139.852 96.152c0 2.489-3.465 4.5-7.739 4.5-4.27 0-7.734-2.011-7.734-4.5 0-2.152 2.598-3.949 6.07-4.39.551-.075 1.11-.11 1.664-.11.938 0 1.867.098 2.778.301 2.902.649 4.96 2.285 4.96 4.2zm0 0" fill="#2f2e41"></path><path d="M501.95 314.11c0-12.141-7.608-22-17-22-9.393 0-17 9.859-17 22 0 12.156 7.607 22 17 22 9.392 0 17-9.844 17-22zm0 0M594.45 314.61c0-12.141-7.623-22-17-22-9.392 0-17 9.859-17 22 0 12.156 7.608 22 17 22 9.377 0 17-9.844 17-22zm0 0M564.442 379.61c0-9.938-13.87-18-30.995-18-17.126 0-30.996 8.062-30.996 18 0 9.952 13.87 18 30.996 18 17.125 0 30.995-8.048 30.995-18zm0 0" transform="scale(.24953 .25)" fill="none" stroke="#3f3d56" stroke-miterlimit="10"></path><path d="M134.984 92.328c.004.317-.117.617-.328.848a1.077 1.077 0 01-.793.351h-2.496a1.164 1.164 0 01-1.125-1.199c0-.242.07-.48.207-.683a12.071 12.071 0 014.441.203c.063.152.094.316.094.48zm0 0M122.258 77.027a1.248 1.248 0 11-2.496 0c0-.687.558-1.25 1.25-1.25a1.25 1.25 0 011.246 1.25zm0 0M145.465 77.027a1.248 1.248 0 11-2.496 0c0-.687.558-1.25 1.25-1.25a1.25 1.25 0 011.246 1.25zm0 0" fill="#fff"></path><use xlink:href="#s" mask="url(#t)"></use><use xlink:href="#u" mask="url(#v)"></use></svg>