<svg id="color" enable-background="new 0 0 24 24" height="512" viewBox="0 0 24 24" width="512" xmlns="http://www.w3.org/2000/svg"><path d="m8.989 3c-4.962 0-9 4.037-9 9s4.038 9 9 9 9-4.037 9-9-4.037-9-9-9z" fill="#fafafa"/><g fill="#f44336"><path d="m8.989 21c-4.962 0-9-4.037-9-9s4.038-9 9-9 9 4.037 9 9-4.037 9-9 9zm0-16.5c-4.136 0-7.5 3.364-7.5 7.5s3.364 7.5 7.5 7.5 7.5-3.364 7.5-7.5-3.364-7.5-7.5-7.5z"/><path d="m8.989 17.5c-3.033 0-5.5-2.467-5.5-5.5s2.467-5.5 5.5-5.5 5.5 2.467 5.5 5.5-2.467 5.5-5.5 5.5zm0-9.5c-2.206 0-4 1.795-4 4s1.794 4 4 4 4-1.795 4-4-1.794-4-4-4z"/><path d="m8.989 14c-1.103 0-2-.896-2-2s.897-2 2-2 2 .896 2 2-.897 2-2 2zm0-2.5c-.276 0-.5.225-.5.5s.224.5.5.5.5-.225.5-.5-.224-.5-.5-.5z"/></g><path d="m8.989 3c-4.962 0-9 4.037-9 9 0 4.963 4.038 9 9 9v-1.5c-4.136 0-7.5-3.364-7.5-7.5s3.364-7.5 7.5-7.5z" fill="#d43a2f"/><path d="m8.989 6.5c-3.033 0-5.5 2.467-5.5 5.5s2.467 5.5 5.5 5.5v-1.5c-2.206 0-4-1.795-4-4s1.794-4 4-4z" fill="#d43a2f"/><path d="m8.989 10c-1.103 0-2 .896-2 2s.897 2 2 2v-1.5c-.276 0-.5-.225-.5-.5s.224-.5.5-.5z" fill="#d43a2f"/><path d="m8.989 8c-2.206 0-4 1.795-4 4s1.794 4 4 4v-2c-1.103 0-2-.896-2-2s.897-2 2-2zm0-3.5c-4.136 0-7.5 3.364-7.5 7.5s3.364 7.5 7.5 7.5v-2c-3.033 0-5.5-2.467-5.5-5.5s2.467-5.5 5.5-5.5z" fill="#dadada"/><path d="m9 12.75c-.192 0-.384-.073-.53-.22-.293-.293-.293-.768 0-1.061l6.5-6.5c.293-.293.768-.293 1.061 0s.293.768 0 1.061l-6.5 6.5c-.147.147-.339.22-.531.22z" fill="#607d8b"/><path d="m18.25 6h-2.5c-.414 0-.75-.336-.75-.75v-2.5c0-.199.079-.39.22-.53l2-2c.215-.214.538-.279.817-.163.28.117.463.39.463.693v1.75h1.75c.303 0 .577.183.693.463s.052.604-.163.817l-2 2c-.14.141-.331.22-.53.22z" fill="#2196f3"/><path d="m15.22 5.78-6.75 6.75c.147.147.338.22.53.22s.384-.073.53-.22l6.5-6.5c.01-.01.02-.02.029-.03h-.309c-.207 0-.395-.084-.53-.22z" fill="#546d79"/><path d="m20.25 2.5h-1.75l-3.28 3.28c.135.136.323.22.53.22h.309 2.191c.199 0 .39-.079.53-.22l2-2c.214-.214.279-.537.163-.817s-.39-.463-.693-.463z" fill="#1d83d4"/><path d="m17.5 24c-3.584 0-6.5-2.916-6.5-6.5s2.916-6.5 6.5-6.5 6.5 2.916 6.5 6.5-2.916 6.5-6.5 6.5z" fill="#2196f3"/><path d="m17.5 11c-3.584 0-6.5 2.916-6.5 6.5s2.916 6.5 6.5 6.5z" fill="#1d83d4"/><path d="m16.5 20c-.173 0-.347-.06-.488-.181l-1.75-1.5c-.314-.27-.351-.743-.081-1.058.27-.314.742-.352 1.058-.081l1.203 1.03 2.758-2.97c.282-.305.756-.322 1.06-.04s.321.757.04 1.06l-3.25 3.5c-.148.159-.349.24-.55.24z" fill="#fafafa"/><path d="m20.26 15.2-3.771 4.101-2.309-2.039c-.27.314-.233.788.081 1.058l1.75 1.5c.142.12.316.18.489.18.201 0 .402-.081.55-.24l3.25-3.5c.282-.303.264-.778-.04-1.06z" fill="#dadada"/></svg>