<?xml version="1.0" encoding="UTF-8"?>
<svg xmlns="http://www.w3.org/2000/svg" xmlns:xlink="http://www.w3.org/1999/xlink" width="96pt" height="96pt" viewBox="0 0 96 96" version="1.1">
<g id="surface1">
<path style=" stroke:none;fill-rule:nonzero;fill:rgb(98.039216%,98.039216%,98.039216%);fill-opacity:1;" d="M 35.957031 12 C 16.109375 12 -0.0429688 28.148438 -0.0429688 48 C -0.0429688 67.851562 16.109375 84 35.957031 84 C 55.804688 84 71.957031 67.851562 71.957031 48 C 71.957031 28.148438 55.808594 12 35.957031 12 Z M 35.957031 12 "/>
<path style=" stroke:none;fill-rule:nonzero;fill:rgb(95.686275%,26.27451%,21.176471%);fill-opacity:1;" d="M 35.957031 84 C 16.109375 84 -0.0429688 67.851562 -0.0429688 48 C -0.0429688 28.148438 16.109375 12 35.957031 12 C 55.804688 12 71.957031 28.148438 71.957031 48 C 71.957031 67.851562 55.808594 84 35.957031 84 Z M 35.957031 18 C 19.414062 18 5.957031 31.457031 5.957031 48 C 5.957031 64.542969 19.414062 78 35.957031 78 C 52.5 78 65.957031 64.542969 65.957031 48 C 65.957031 31.457031 52.5 18 35.957031 18 Z M 35.957031 18 "/>
<path style=" stroke:none;fill-rule:nonzero;fill:rgb(95.686275%,26.27451%,21.176471%);fill-opacity:1;" d="M 35.957031 70 C 23.824219 70 13.957031 60.132812 13.957031 48 C 13.957031 35.867188 23.824219 26 35.957031 26 C 48.085938 26 57.957031 35.867188 57.957031 48 C 57.957031 60.132812 48.085938 70 35.957031 70 Z M 35.957031 32 C 27.132812 32 19.957031 39.179688 19.957031 48 C 19.957031 56.820312 27.132812 64 35.957031 64 C 44.78125 64 51.957031 56.820312 51.957031 48 C 51.957031 39.179688 44.78125 32 35.957031 32 Z M 35.957031 32 "/>
<path style=" stroke:none;fill-rule:nonzero;fill:rgb(95.686275%,26.27451%,21.176471%);fill-opacity:1;" d="M 35.957031 56 C 31.542969 56 27.957031 52.414062 27.957031 48 C 27.957031 43.585938 31.542969 40 35.957031 40 C 40.367188 40 43.957031 43.585938 43.957031 48 C 43.957031 52.414062 40.367188 56 35.957031 56 Z M 35.957031 46 C 34.851562 46 33.957031 46.898438 33.957031 48 C 33.957031 49.101562 34.851562 50 35.957031 50 C 37.058594 50 37.957031 49.101562 37.957031 48 C 37.957031 46.898438 37.058594 46 35.957031 46 Z M 35.957031 46 "/>
<path style=" stroke:none;fill-rule:nonzero;fill:rgb(83.137255%,22.745098%,18.431373%);fill-opacity:1;" d="M 35.957031 12 C 16.109375 12 -0.0429688 28.148438 -0.0429688 48 C -0.0429688 67.851562 16.109375 84 35.957031 84 L 35.957031 78 C 19.414062 78 5.957031 64.542969 5.957031 48 C 5.957031 31.457031 19.414062 18 35.957031 18 Z M 35.957031 12 "/>
<path style=" stroke:none;fill-rule:nonzero;fill:rgb(83.137255%,22.745098%,18.431373%);fill-opacity:1;" d="M 35.957031 26 C 23.824219 26 13.957031 35.867188 13.957031 48 C 13.957031 60.132812 23.824219 70 35.957031 70 L 35.957031 64 C 27.132812 64 19.957031 56.820312 19.957031 48 C 19.957031 39.179688 27.132812 32 35.957031 32 Z M 35.957031 26 "/>
<path style=" stroke:none;fill-rule:nonzero;fill:rgb(83.137255%,22.745098%,18.431373%);fill-opacity:1;" d="M 35.957031 40 C 31.542969 40 27.957031 43.585938 27.957031 48 C 27.957031 52.414062 31.542969 56 35.957031 56 L 35.957031 50 C 34.851562 50 33.957031 49.101562 33.957031 48 C 33.957031 46.898438 34.851562 46 35.957031 46 Z M 35.957031 40 "/>
<path style=" stroke:none;fill-rule:nonzero;fill:rgb(85.490196%,85.490196%,85.490196%);fill-opacity:1;" d="M 35.957031 32 C 27.132812 32 19.957031 39.179688 19.957031 48 C 19.957031 56.820312 27.132812 64 35.957031 64 L 35.957031 56 C 31.542969 56 27.957031 52.414062 27.957031 48 C 27.957031 43.585938 31.542969 40 35.957031 40 Z M 35.957031 18 C 19.414062 18 5.957031 31.457031 5.957031 48 C 5.957031 64.542969 19.414062 78 35.957031 78 L 35.957031 70 C 23.824219 70 13.957031 60.132812 13.957031 48 C 13.957031 35.867188 23.824219 26 35.957031 26 Z M 35.957031 18 "/>
<path style=" stroke:none;fill-rule:nonzero;fill:rgb(37.647059%,49.019608%,54.509804%);fill-opacity:1;" d="M 36 51 C 35.234375 51 34.464844 50.707031 33.878906 50.121094 C 32.707031 48.949219 32.707031 47.046875 33.878906 45.875 L 59.878906 19.875 C 61.050781 18.703125 62.953125 18.703125 64.125 19.875 C 65.296875 21.046875 65.296875 22.949219 64.125 24.121094 L 38.125 50.121094 C 37.535156 50.707031 36.765625 51 36 51 Z M 36 51 "/>
<path style=" stroke:none;fill-rule:nonzero;fill:rgb(12.941176%,58.823529%,95.294118%);fill-opacity:1;" d="M 73 24 L 63 24 C 61.34375 24 60 22.65625 60 21 L 60 11 C 60 10.203125 60.316406 9.441406 60.878906 8.878906 L 68.878906 0.878906 C 69.742188 0.0234375 71.03125 -0.234375 72.148438 0.226562 C 73.265625 0.695312 74 1.789062 74 3 L 74 10 L 81 10 C 82.210938 10 83.308594 10.734375 83.773438 11.851562 C 84.234375 12.972656 83.980469 14.265625 83.121094 15.121094 L 75.121094 23.121094 C 74.558594 23.683594 73.796875 24 73 24 Z M 73 24 "/>
<path style=" stroke:none;fill-rule:nonzero;fill:rgb(32.941176%,42.745098%,47.45098%);fill-opacity:1;" d="M 60.878906 23.121094 L 33.878906 50.121094 C 34.46875 50.707031 35.234375 51 36 51 C 36.765625 51 37.535156 50.707031 38.121094 50.121094 L 64.121094 24.121094 C 64.160156 24.078125 64.199219 24.039062 64.234375 24 L 63 24 C 62.171875 24 61.421875 23.664062 60.878906 23.121094 Z M 60.878906 23.121094 "/>
<path style=" stroke:none;fill-rule:nonzero;fill:rgb(11.372549%,51.372549%,83.137255%);fill-opacity:1;" d="M 81 10 L 74 10 L 60.878906 23.121094 C 61.421875 23.664062 62.171875 24 63 24 L 73 24 C 73.796875 24 74.558594 23.683594 75.121094 23.121094 L 83.121094 15.121094 C 83.976562 14.265625 84.234375 12.972656 83.773438 11.851562 C 83.308594 10.734375 82.210938 10 81 10 Z M 81 10 "/>
<path style=" stroke:none;fill-rule:nonzero;fill:rgb(12.941176%,58.823529%,95.294118%);fill-opacity:1;" d="M 70 96 C 55.664062 96 44 84.335938 44 70 C 44 55.664062 55.664062 44 70 44 C 84.335938 44 96 55.664062 96 70 C 96 84.335938 84.335938 96 70 96 Z M 70 96 "/>
<path style=" stroke:none;fill-rule:nonzero;fill:rgb(11.372549%,51.372549%,83.137255%);fill-opacity:1;" d="M 70 44 C 55.664062 44 44 55.664062 44 70 C 44 84.335938 55.664062 96 70 96 Z M 70 44 "/>
<path style=" stroke:none;fill-rule:nonzero;fill:rgb(98.039216%,98.039216%,98.039216%);fill-opacity:1;" d="M 66 80 C 65.308594 80 64.613281 79.757812 64.046875 79.277344 L 57.046875 73.277344 C 55.792969 72.195312 55.644531 70.304688 56.722656 69.042969 C 57.804688 67.789062 59.691406 67.636719 60.957031 68.71875 L 65.765625 72.839844 L 76.800781 60.960938 C 77.929688 59.742188 79.824219 59.671875 81.039062 60.800781 C 82.257812 61.929688 82.324219 63.828125 81.199219 65.039062 L 68.199219 79.039062 C 67.609375 79.675781 66.804688 80 66 80 Z M 66 80 "/>
<path style=" stroke:none;fill-rule:nonzero;fill:rgb(85.490196%,85.490196%,85.490196%);fill-opacity:1;" d="M 81.039062 60.800781 L 65.957031 77.203125 L 56.71875 69.046875 C 55.640625 70.304688 55.789062 72.199219 57.042969 73.28125 L 64.042969 79.28125 C 64.613281 79.757812 65.308594 80 66 80 C 66.804688 80 67.609375 79.675781 68.199219 79.039062 L 81.199219 65.039062 C 82.328125 63.828125 82.257812 61.929688 81.039062 60.800781 Z M 81.039062 60.800781 "/>
</g>
</svg>
