<?xml version="1.0" encoding="UTF-8"?>
<svg xmlns="http://www.w3.org/2000/svg" xmlns:xlink="http://www.w3.org/1999/xlink" width="131pt" height="73pt" viewBox="0 0 131 73" version="1.1">
<g id="surface1">
<path style=" stroke:none;fill-rule:nonzero;fill:rgb(90.196078%,90.196078%,90.196078%);fill-opacity:1;" d="M 83.367188 62.421875 L 11.242188 62.421875 C 10.363281 62.421875 9.648438 61.707031 9.648438 60.824219 L 9.648438 18.601562 C 9.648438 17.71875 10.363281 17.003906 11.242188 17 L 83.367188 17 C 84.246094 17.003906 84.957031 17.71875 84.957031 18.601562 L 84.957031 60.824219 C 84.957031 61.707031 84.246094 62.421875 83.367188 62.421875 Z M 83.367188 62.421875 "/>
<path style=" stroke:none;fill-rule:nonzero;fill:rgb(80%,80%,80%);fill-opacity:1;" d="M 87.863281 68.332031 L 6.746094 68.332031 L 6.746094 14.363281 C 6.746094 13.375 7.542969 12.574219 8.523438 12.574219 L 86.082031 12.574219 C 87.066406 12.574219 87.859375 13.375 87.863281 14.363281 Z M 7.121094 67.957031 L 87.488281 67.957031 L 87.488281 14.363281 C 87.484375 13.585938 86.859375 12.953125 86.082031 12.949219 L 8.523438 12.949219 C 7.75 12.953125 7.121094 13.585938 7.121094 14.363281 Z M 7.121094 67.957031 "/>
<path style=" stroke:none;fill-rule:nonzero;fill:rgb(90.196078%,90.196078%,90.196078%);fill-opacity:1;" d="M 48.054688 14.929688 C 48.054688 15.347656 47.71875 15.683594 47.300781 15.683594 C 46.890625 15.683594 46.554688 15.347656 46.554688 14.929688 C 46.554688 14.511719 46.890625 14.175781 47.300781 14.175781 C 47.71875 14.175781 48.054688 14.511719 48.054688 14.929688 Z M 48.054688 14.929688 "/>
<path style=" stroke:none;fill-rule:nonzero;fill:rgb(100%,100%,100%);fill-opacity:1;" d="M 65.382812 53.464844 L 29.226562 53.464844 C 28.347656 53.460938 27.632812 52.746094 27.632812 51.863281 L 27.632812 27.5625 C 27.632812 26.679688 28.347656 25.960938 29.226562 25.960938 L 65.382812 25.960938 C 66.261719 25.960938 66.972656 26.679688 66.972656 27.5625 L 66.972656 51.863281 C 66.972656 52.746094 66.261719 53.460938 65.382812 53.464844 Z M 65.382812 53.464844 "/>
<path style=" stroke:none;fill-rule:nonzero;fill:rgb(80%,80%,80%);fill-opacity:1;" d="M 35.171875 36.320312 C 34.34375 36.320312 33.675781 35.648438 33.675781 34.816406 C 33.675781 33.980469 34.34375 33.308594 35.171875 33.308594 C 36 33.308594 36.671875 33.980469 36.671875 34.816406 C 36.671875 35.648438 36 36.320312 35.171875 36.320312 Z M 35.171875 36.320312 "/>
<path style=" stroke:none;fill-rule:nonzero;fill:rgb(33.333333%,65.882353%,99.215686%);fill-opacity:1;" d="M 35.171875 41.21875 C 34.34375 41.21875 33.675781 40.542969 33.675781 39.710938 C 33.675781 38.878906 34.34375 38.207031 35.171875 38.207031 C 36 38.207031 36.671875 38.878906 36.671875 39.710938 C 36.671875 40.542969 36 41.21875 35.171875 41.21875 Z M 35.171875 41.21875 "/>
<path style=" stroke:none;fill-rule:nonzero;fill:rgb(33.333333%,65.882353%,99.215686%);fill-opacity:1;" d="M 35.171875 46.117188 C 34.34375 46.117188 33.675781 45.441406 33.675781 44.609375 C 33.675781 43.777344 34.34375 43.101562 35.171875 43.101562 C 36 43.101562 36.671875 43.777344 36.671875 44.609375 C 36.671875 45.441406 36 46.117188 35.171875 46.117188 Z M 35.171875 46.117188 "/>
<path style=" stroke:none;fill-rule:nonzero;fill:rgb(80%,80%,80%);fill-opacity:1;" d="M 42.292969 33.589844 C 41.621094 33.589844 41.074219 34.136719 41.074219 34.816406 C 41.074219 35.492188 41.621094 36.039062 42.292969 36.039062 L 59.714844 36.039062 C 60.386719 36.039062 60.933594 35.492188 60.933594 34.816406 C 60.933594 34.136719 60.386719 33.589844 59.714844 33.589844 Z M 42.292969 33.589844 "/>
<path style=" stroke:none;fill-rule:nonzero;fill:rgb(33.333333%,65.882353%,99.215686%);fill-opacity:1;" d="M 42.292969 38.488281 C 41.621094 38.488281 41.074219 39.035156 41.074219 39.710938 C 41.074219 40.386719 41.621094 40.9375 42.292969 40.9375 L 59.714844 40.9375 C 60.386719 40.9375 60.933594 40.386719 60.933594 39.710938 C 60.933594 39.035156 60.386719 38.488281 59.714844 38.488281 Z M 42.292969 38.488281 "/>
<path style=" stroke:none;fill-rule:nonzero;fill:rgb(33.333333%,65.882353%,99.215686%);fill-opacity:1;" d="M 42.292969 43.386719 C 41.621094 43.386719 41.074219 43.933594 41.074219 44.609375 C 41.074219 45.285156 41.621094 45.835938 42.292969 45.835938 L 59.714844 45.835938 C 60.386719 45.835938 60.933594 45.285156 60.933594 44.609375 C 60.933594 43.933594 60.386719 43.386719 59.714844 43.386719 Z M 42.292969 43.386719 "/>
<path style=" stroke:none;fill-rule:nonzero;fill:rgb(100%,72.156863%,72.156863%);fill-opacity:1;" d="M 124.261719 70.699219 L 121.964844 70.660156 L 121.019531 61.738281 L 124.410156 61.792969 Z M 124.261719 70.699219 "/>
<path style=" stroke:none;fill-rule:nonzero;fill:rgb(18.431373%,18.039216%,25.490196%);fill-opacity:1;" d="M 120.335938 69.972656 L 124.761719 70.050781 L 124.714844 72.851562 L 117.5 72.730469 C 117.523438 71.183594 118.792969 69.949219 120.335938 69.972656 Z M 120.335938 69.972656 "/>
<path style=" stroke:none;fill-rule:nonzero;fill:rgb(100%,72.156863%,72.156863%);fill-opacity:1;" d="M 101.46875 70.679688 L 99.339844 69.8125 L 101.652344 61.144531 L 104.792969 62.421875 Z M 101.46875 70.679688 "/>
<path style=" stroke:none;fill-rule:nonzero;fill:rgb(18.431373%,18.039216%,25.490196%);fill-opacity:1;" d="M 98.066406 68.582031 L 102.171875 70.253906 L 101.125 72.851562 L 94.433594 70.128906 C 95.011719 68.695312 96.640625 68 98.066406 68.582031 Z M 98.066406 68.582031 "/>
<path style=" stroke:none;fill-rule:nonzero;fill:rgb(18.431373%,18.039216%,25.490196%);fill-opacity:1;" d="M 109.144531 37.285156 L 102.402344 55.179688 L 99.59375 67.609375 L 102.589844 69.117188 L 116.265625 42.371094 L 121.324219 69.210938 L 124.320312 69.210938 C 124.320312 69.210938 125.691406 37.375 123.695312 34.878906 Z M 109.144531 37.285156 "/>
<path style=" stroke:none;fill-rule:nonzero;fill:rgb(33.333333%,65.882353%,99.215686%);fill-opacity:1;" d="M 106.0625 51.570312 C 106.0625 54.5 103.699219 56.875 100.785156 56.875 C 97.871094 56.875 95.507812 54.5 95.507812 51.570312 C 95.507812 48.636719 97.871094 46.261719 100.785156 46.261719 C 103.699219 46.261719 106.0625 48.636719 106.0625 51.570312 Z M 106.0625 51.570312 "/>
<path style=" stroke:none;fill-rule:nonzero;fill:rgb(100%,100%,100%);fill-opacity:1;" d="M 100.34375 53.914062 L 98.671875 51.75 L 99.644531 50.988281 L 100.4375 52.011719 L 103.117188 49.167969 L 104.011719 50.023438 Z M 100.34375 53.914062 "/>
<path style=" stroke:none;fill-rule:nonzero;fill:rgb(18.431373%,18.039216%,25.490196%);fill-opacity:1;" d="M 118.605469 6.296875 C 118.605469 9.730469 115.839844 12.511719 112.425781 12.511719 C 109.011719 12.511719 106.242188 9.730469 106.242188 6.296875 C 106.242188 2.863281 109.011719 0.0820312 112.425781 0.0820312 C 115.839844 0.0820312 118.605469 2.863281 118.605469 6.296875 Z M 118.605469 6.296875 "/>
<path style=" stroke:none;fill-rule:nonzero;fill:rgb(100%,72.156863%,72.156863%);fill-opacity:1;" d="M 103.796875 48.597656 C 104.332031 48.332031 104.71875 47.839844 104.855469 47.257812 C 104.996094 46.675781 104.871094 46.058594 104.515625 45.578125 L 109.207031 19.484375 L 104.828125 19.425781 L 101.574219 45.230469 C 100.792969 45.898438 100.632812 47.046875 101.199219 47.90625 C 101.765625 48.765625 102.882812 49.0625 103.796875 48.597656 Z M 103.796875 48.597656 "/>
<path style=" stroke:none;fill-rule:nonzero;fill:rgb(100%,72.156863%,72.156863%);fill-opacity:1;" d="M 130.671875 43.5 C 131.003906 42.988281 131.089844 42.347656 130.902344 41.765625 C 130.714844 41.179688 130.273438 40.714844 129.703125 40.496094 L 121.328125 20.042969 C 120.914062 19.03125 120.078125 18.253906 119.039062 17.914062 C 118.003906 17.578125 116.871094 17.71875 115.945312 18.296875 L 127.035156 41.796875 C 126.742188 42.769531 127.203125 43.808594 128.117188 44.238281 C 129.03125 44.667969 130.121094 44.351562 130.671875 43.5 Z M 130.671875 43.5 "/>
<path style=" stroke:none;fill-rule:nonzero;fill:rgb(100%,72.156863%,72.156863%);fill-opacity:1;" d="M 117.148438 8.636719 C 117.148438 11.191406 115.089844 13.265625 112.546875 13.265625 C 110.003906 13.265625 107.945312 11.191406 107.945312 8.636719 C 107.945312 6.082031 110.003906 4.011719 112.546875 4.011719 C 115.089844 4.011719 117.148438 6.082031 117.148438 8.636719 Z M 117.148438 8.636719 "/>
<path style=" stroke:none;fill-rule:nonzero;fill:rgb(80%,80%,80%);fill-opacity:1;" d="M 106.953125 15.953125 C 109.605469 14.84375 114.1875 13.746094 119.277344 16.136719 C 120.480469 16.703125 121.386719 17.757812 121.769531 19.035156 L 123.945312 26.359375 L 121.136719 29.183594 L 123.757812 35.023438 C 123.757812 35.023438 113.734375 41.144531 109.238281 37.378906 L 106.523438 27.675781 L 102.964844 26.734375 L 104.179688 19.480469 C 104.4375 17.902344 105.484375 16.570312 106.953125 15.953125 Z M 106.953125 15.953125 "/>
<path style=" stroke:none;fill-rule:nonzero;fill:rgb(18.431373%,18.039216%,25.490196%);fill-opacity:1;" d="M 108.242188 5.21875 C 110.042969 6.320312 112.066406 6.992188 114.164062 7.179688 L 113.539062 6.425781 C 113.992188 6.597656 114.472656 6.691406 114.957031 6.710938 C 115.449219 6.722656 115.917969 6.503906 116.21875 6.113281 C 116.46875 5.710938 116.503906 5.210938 116.316406 4.773438 C 116.125 4.347656 115.832031 3.972656 115.457031 3.691406 C 114.113281 2.621094 112.324219 2.300781 110.695312 2.835938 C 110.144531 3.003906 109.648438 3.320312 109.269531 3.753906 C 108.890625 4.199219 108.761719 4.804688 108.921875 5.367188 "/>
<path style=" stroke:none;fill-rule:nonzero;fill:rgb(18.431373%,18.039216%,25.490196%);fill-opacity:1;" d="M 107.382812 1.101562 C 107.308594 0.308594 106.34375 -0.175781 105.589844 0.0625 C 104.835938 0.300781 104.34375 1.0625 104.191406 1.84375 C 104.046875 2.507812 104.171875 3.203125 104.535156 3.773438 C 104.917969 4.34375 105.59375 4.640625 106.269531 4.53125 C 107.015625 4.371094 107.53125 3.636719 107.679688 2.886719 C 107.828125 2.132812 107.679688 1.359375 107.535156 0.605469 "/>
<path style=" stroke:none;fill-rule:nonzero;fill:rgb(18.431373%,18.039216%,25.490196%);fill-opacity:1;" d="M 120.121094 1.476562 C 120.046875 0.683594 119.082031 0.199219 118.328125 0.4375 C 117.574219 0.675781 117.082031 1.441406 116.929688 2.21875 C 116.785156 2.882812 116.910156 3.578125 117.273438 4.152344 C 117.65625 4.722656 118.332031 5.015625 119.007812 4.90625 C 119.753906 4.746094 120.269531 4.015625 120.417969 3.261719 C 120.566406 2.511719 120.417969 1.734375 120.273438 0.984375 "/>
<path style=" stroke:none;fill-rule:nonzero;fill:rgb(24.705882%,23.921569%,33.72549%);fill-opacity:1;" d="M 89.265625 65.882812 L 85.988281 65.882812 L 85.988281 65.316406 C 85.988281 64.902344 85.652344 64.566406 85.238281 64.566406 L 81.304688 64.566406 C 80.890625 64.566406 80.554688 64.902344 80.554688 65.316406 L 80.554688 65.882812 L 79.996094 65.882812 L 79.996094 65.316406 C 79.996094 64.902344 79.65625 64.566406 79.242188 64.566406 L 75.308594 64.566406 C 74.898438 64.566406 74.5625 64.902344 74.5625 65.316406 L 74.5625 65.882812 L 74 65.882812 L 74 65.316406 C 74 64.902344 73.664062 64.566406 73.25 64.566406 L 69.316406 64.566406 C 68.902344 64.566406 68.566406 64.902344 68.566406 65.316406 L 68.566406 65.882812 L 68.003906 65.882812 L 68.003906 65.316406 C 68.003906 64.902344 67.667969 64.566406 67.253906 64.566406 L 63.320312 64.566406 C 62.90625 64.566406 62.570312 64.902344 62.570312 65.316406 L 62.570312 65.882812 L 62.007812 65.882812 L 62.007812 65.316406 C 62.007812 64.902344 61.671875 64.566406 61.257812 64.566406 L 57.324219 64.566406 C 56.910156 64.566406 56.578125 64.902344 56.578125 65.316406 L 56.578125 65.882812 L 56.015625 65.882812 L 56.015625 65.316406 C 56.015625 64.902344 55.679688 64.566406 55.265625 64.566406 L 51.332031 64.566406 C 50.917969 64.566406 50.582031 64.902344 50.582031 65.316406 L 50.582031 65.882812 L 50.019531 65.882812 L 50.019531 65.316406 C 50.019531 64.902344 49.683594 64.566406 49.269531 64.566406 L 45.335938 64.566406 C 44.921875 64.566406 44.585938 64.902344 44.585938 65.316406 L 44.585938 65.882812 L 44.023438 65.882812 L 44.023438 65.316406 C 44.023438 64.902344 43.6875 64.566406 43.273438 64.566406 L 39.339844 64.566406 C 38.925781 64.566406 38.59375 64.902344 38.59375 65.316406 L 38.59375 65.882812 L 38.03125 65.882812 L 38.03125 65.316406 C 38.03125 64.902344 37.695312 64.566406 37.28125 64.566406 L 33.347656 64.566406 C 32.933594 64.566406 32.597656 64.902344 32.597656 65.316406 L 32.597656 65.882812 L 32.035156 65.882812 L 32.035156 65.316406 C 32.035156 64.902344 31.699219 64.566406 31.285156 64.566406 L 27.351562 64.566406 C 26.9375 64.566406 26.601562 64.902344 26.601562 65.316406 L 26.601562 65.882812 L 26.039062 65.882812 L 26.039062 65.316406 C 26.039062 64.902344 25.703125 64.566406 25.289062 64.566406 L 21.355469 64.566406 C 20.941406 64.566406 20.609375 64.902344 20.609375 65.316406 L 20.609375 65.882812 L 20.046875 65.882812 L 20.046875 65.316406 C 20.046875 64.902344 19.710938 64.566406 19.296875 64.566406 L 15.363281 64.566406 C 14.949219 64.566406 14.613281 64.902344 14.613281 65.316406 L 14.613281 65.882812 L 14.050781 65.882812 L 14.050781 65.316406 C 14.050781 64.902344 13.714844 64.566406 13.300781 64.566406 L 9.367188 64.566406 C 8.953125 64.566406 8.617188 64.902344 8.617188 65.316406 L 8.617188 65.882812 L 5.339844 65.882812 C 2.390625 65.882812 0 68.289062 0 71.25 C 0 72.136719 0.714844 72.851562 1.59375 72.851562 L 93.015625 72.851562 C 93.894531 72.851562 94.605469 72.136719 94.605469 71.25 C 94.605469 68.289062 92.214844 65.882812 89.265625 65.882812 Z M 89.265625 65.882812 "/>
</g>
</svg>
