<?xml version="1.0" encoding="UTF-8"?>
<svg xmlns="http://www.w3.org/2000/svg" xmlns:xlink="http://www.w3.org/1999/xlink" width="96pt" height="96pt" viewBox="0 0 96 96" version="1.1">
<g id="surface1">
<path style=" stroke:none;fill-rule:nonzero;fill:rgb(35.294118%,25.490196%,27.45098%);fill-opacity:1;" d="M 69.679688 42.578125 L 69.679688 43.667969 C 69.679688 45 69.890625 46.320312 70.3125 47.585938 L 72.773438 54.96875 L 77.417969 54.96875 L 77.417969 37.9375 L 74.320312 37.9375 C 71.757812 37.9375 69.679688 40.015625 69.679688 42.578125 Z M 69.679688 42.578125 "/>
<path style=" stroke:none;fill-rule:nonzero;fill:rgb(41.176471%,29.411765%,29.411765%);fill-opacity:1;" d="M 90.878906 45.796875 L 88.257812 54.96875 L 75.871094 44.128906 C 74.160156 44.128906 72.773438 42.742188 72.773438 41.03125 C 72.773438 38.46875 74.851562 36.386719 77.417969 36.386719 L 88.257812 36.386719 C 89.96875 36.386719 91.355469 37.773438 91.355469 39.484375 L 91.355469 42.394531 C 91.355469 43.546875 91.195312 44.691406 90.878906 45.796875 Z M 90.878906 45.796875 "/>
<path style=" stroke:none;fill-rule:nonzero;fill:rgb(90.196078%,68.627451%,47.058824%);fill-opacity:1;" d="M 75.871094 59.613281 L 85.160156 59.613281 L 85.160156 66.46875 L 75.871094 66.46875 Z M 75.871094 59.613281 "/>
<path style=" stroke:none;fill-rule:nonzero;fill:rgb(82.352941%,60.784314%,43.137255%);fill-opacity:1;" d="M 75.871094 62.457031 C 77.304688 63.039062 78.875 63.367188 80.515625 63.367188 C 82.160156 63.367188 83.726562 63.039062 85.160156 62.457031 L 85.160156 59.613281 L 75.871094 59.613281 Z M 75.871094 62.457031 "/>
<path style=" stroke:none;fill-rule:nonzero;fill:rgb(83.529412%,86.27451%,92.941176%);fill-opacity:1;" d="M 92.632812 65.503906 L 85.160156 63.367188 L 80.515625 66.453125 L 75.871094 63.367188 L 68.402344 65.503906 C 66.40625 66.074219 65.03125 67.894531 65.03125 69.96875 L 65.03125 81.289062 C 65.03125 82.144531 65.726562 82.839844 66.582031 82.839844 L 94.453125 82.839844 C 95.304688 82.839844 96 82.144531 96 81.289062 L 96 69.96875 C 96 67.894531 94.625 66.074219 92.632812 65.503906 Z M 92.632812 65.503906 "/>
<path style=" stroke:none;fill-rule:nonzero;fill:rgb(68.627451%,72.54902%,82.352941%);fill-opacity:1;" d="M 82.0625 82.839844 L 78.96875 82.839844 L 79.742188 66.464844 L 81.289062 66.464844 Z M 82.0625 82.839844 "/>
<path style=" stroke:none;fill-rule:nonzero;fill:rgb(94.117647%,75.294118%,52.941176%);fill-opacity:1;" d="M 80.515625 61.160156 C 75.382812 61.160156 71.226562 57 71.226562 51.871094 L 71.226562 50.054688 C 71.226562 49.234375 71.550781 48.449219 72.132812 47.867188 L 74.941406 45.058594 C 75.535156 44.464844 76.347656 44.125 77.1875 44.148438 C 82.136719 44.304688 86.519531 45.367188 88.914062 47.703125 C 89.5 48.277344 89.804688 49.078125 89.804688 49.898438 L 89.804688 51.871094 C 89.804688 57 85.648438 61.160156 80.515625 61.160156 Z M 80.515625 61.160156 "/>
<path style=" stroke:none;fill-rule:nonzero;fill:rgb(90.196078%,68.627451%,47.058824%);fill-opacity:1;" d="M 75.871094 50.441406 C 75.871094 48.65625 77.371094 47.234375 79.152344 47.347656 C 82.28125 47.546875 86.917969 48.070312 89.765625 49.4375 C 89.671875 48.785156 89.390625 48.167969 88.914062 47.703125 C 86.519531 45.367188 82.136719 44.304688 77.1875 44.148438 C 76.347656 44.125 75.535156 44.464844 74.941406 45.058594 L 72.132812 47.867188 C 71.550781 48.445312 71.226562 49.234375 71.226562 50.054688 L 71.226562 51.871094 C 71.226562 56.109375 74.0625 59.675781 77.941406 60.792969 C 76.652344 59.199219 75.871094 57.179688 75.871094 54.96875 Z M 75.871094 50.441406 "/>
<path style=" stroke:none;fill-rule:nonzero;fill:rgb(78.039216%,81.176471%,88.627451%);fill-opacity:1;" d="M 89.804688 74.585938 C 89.804688 73.351562 90.296875 72.171875 91.167969 71.296875 L 95.152344 67.3125 C 95.6875 68.074219 96 68.992188 96 69.96875 L 96 81.289062 C 96 82.144531 95.304688 82.839844 94.453125 82.839844 L 89.804688 82.839844 Z M 89.804688 74.585938 "/>
<path style=" stroke:none;fill-rule:nonzero;fill:rgb(58.431373%,61.176471%,70.980392%);fill-opacity:1;" d="M 81.289062 69.5625 L 79.742188 69.5625 C 79.3125 69.5625 78.96875 69.214844 78.96875 68.789062 L 78.96875 66.464844 L 82.0625 66.464844 L 82.0625 68.789062 C 82.0625 69.214844 81.71875 69.5625 81.289062 69.5625 Z M 81.289062 69.5625 "/>
<path style=" stroke:none;fill-rule:nonzero;fill:rgb(78.039216%,81.176471%,88.627451%);fill-opacity:1;" d="M 80.515625 66.453125 L 77.890625 68.457031 C 77.4375 68.800781 76.785156 68.664062 76.511719 68.164062 L 74.15625 63.867188 L 75.105469 62.417969 C 75.316406 62.097656 75.765625 62.042969 76.046875 62.304688 Z M 80.515625 66.453125 "/>
<path style=" stroke:none;fill-rule:nonzero;fill:rgb(78.039216%,81.176471%,88.627451%);fill-opacity:1;" d="M 80.515625 66.453125 L 83.140625 68.457031 C 83.59375 68.800781 84.246094 68.664062 84.519531 68.164062 L 86.875 63.867188 L 85.925781 62.421875 C 85.714844 62.097656 85.265625 62.042969 84.984375 62.304688 Z M 80.515625 66.453125 "/>
<path style=" stroke:none;fill-rule:nonzero;fill:rgb(35.294118%,25.490196%,27.45098%);fill-opacity:1;" d="M 27.71875 60.515625 C 26.394531 57.007812 25.34375 50.984375 25.117188 47.84375 C 24.6875 41.875 20.1875 37.007812 14.101562 37.007812 C 8.019531 37.007812 3.519531 41.875 3.089844 47.84375 C 2.863281 50.980469 1.8125 57.007812 0.492188 60.515625 C 0.199219 61.289062 0.535156 62.140625 1.296875 62.484375 C 2.714844 63.125 5.738281 64.386719 9.382812 64.875 L 18.824219 64.875 C 22.453125 64.382812 25.496094 63.125 26.910156 62.484375 C 27.671875 62.140625 28.007812 61.289062 27.71875 60.515625 Z M 27.71875 60.515625 "/>
<path style=" stroke:none;fill-rule:nonzero;fill:rgb(41.176471%,29.411765%,29.411765%);fill-opacity:1;" d="M 26.910156 62.484375 C 27.671875 62.140625 28.007812 61.289062 27.71875 60.515625 C 26.394531 57.007812 25.34375 50.984375 25.117188 47.84375 C 24.6875 41.875 20.1875 37.007812 14.101562 37.007812 C 14.085938 37.007812 14.074219 37.007812 14.058594 37.007812 C 9.390625 37.023438 7.742188 43.390625 11.757812 45.765625 C 12 45.90625 12.15625 45.976562 12.15625 45.976562 L 15.671875 64.875 L 18.824219 64.875 C 22.453125 64.382812 25.496094 63.125 26.910156 62.484375 Z M 26.910156 62.484375 "/>
<path style=" stroke:none;fill-rule:nonzero;fill:rgb(90.196078%,68.627451%,47.058824%);fill-opacity:1;" d="M 25.304688 67.984375 L 20.292969 65.480469 C 19.242188 64.953125 18.578125 63.882812 18.578125 62.710938 L 18.582031 58.0625 L 9.289062 58.0625 L 9.289062 62.710938 C 9.289062 63.882812 8.628906 64.953125 7.578125 65.480469 L 2.566406 67.984375 C 0.992188 68.773438 0 70.382812 0 72.140625 L 0 81.289062 C 0 82.144531 0.695312 82.839844 1.546875 82.839844 L 26.320312 82.839844 C 27.179688 82.839844 27.871094 82.144531 27.871094 81.289062 L 27.871094 72.140625 C 27.871094 70.382812 26.875 68.773438 25.304688 67.984375 Z M 25.304688 67.984375 "/>
<path style=" stroke:none;fill-rule:nonzero;fill:rgb(82.352941%,60.784314%,43.137255%);fill-opacity:1;" d="M 13.9375 64.257812 C 15.601562 64.257812 17.199219 63.914062 18.664062 63.304688 C 18.625 63.109375 18.578125 62.914062 18.578125 62.710938 L 18.582031 58.0625 L 9.289062 58.0625 L 9.289062 62.710938 C 9.289062 62.914062 9.246094 63.109375 9.207031 63.304688 C 10.671875 63.914062 12.265625 64.257812 13.9375 64.257812 Z M 13.9375 64.257812 "/>
<path style=" stroke:none;fill-rule:nonzero;fill:rgb(83.529412%,86.27451%,92.941176%);fill-opacity:1;" d="M 25.304688 67.984375 L 21.734375 66.199219 C 20.078125 68.757812 17.207031 70.453125 13.9375 70.453125 C 10.664062 70.453125 7.792969 68.757812 6.136719 66.199219 L 2.566406 67.984375 C 0.992188 68.773438 0 70.382812 0 72.140625 L 0 81.289062 C 0 82.144531 0.695312 82.839844 1.546875 82.839844 L 26.320312 82.839844 C 27.179688 82.839844 27.871094 82.144531 27.871094 81.289062 L 27.871094 72.140625 C 27.871094 70.382812 26.875 68.773438 25.304688 67.984375 Z M 25.304688 67.984375 "/>
<path style=" stroke:none;fill-rule:nonzero;fill:rgb(94.117647%,75.294118%,52.941176%);fill-opacity:1;" d="M 13.9375 61.160156 C 9.210938 61.160156 5.3125 57.636719 4.722656 53.074219 C 4.636719 52.414062 4.953125 51.765625 5.550781 51.464844 C 6.261719 51.105469 7.296875 50.5 8.289062 49.613281 C 9.394531 48.625 10.042969 47.585938 10.410156 46.824219 C 10.726562 46.167969 11.449219 45.796875 12.15625 45.976562 C 17.605469 47.367188 21.320312 50.203125 22.664062 51.359375 C 23.027344 51.671875 23.234375 52.132812 23.195312 52.605469 C 22.820312 57.394531 18.820312 61.160156 13.9375 61.160156 Z M 13.9375 61.160156 "/>
<path style=" stroke:none;fill-rule:nonzero;fill:rgb(90.196078%,68.627451%,47.058824%);fill-opacity:1;" d="M 22.664062 51.359375 C 21.320312 50.203125 17.605469 47.367188 12.15625 45.976562 C 11.449219 45.796875 10.722656 46.167969 10.410156 46.824219 C 10.132812 47.402344 9.671875 48.140625 8.992188 48.890625 C 8.992188 48.890625 8.992188 48.894531 8.992188 48.894531 C 8.78125 49.132812 8.558594 49.375 8.289062 49.613281 C 7.296875 50.5 6.261719 51.105469 5.550781 51.464844 C 4.953125 51.765625 4.636719 52.414062 4.722656 53.074219 C 5.25 57.171875 8.460938 60.433594 12.527344 61.054688 C 10.671875 59.792969 9.289062 58.058594 9.289062 54.96875 L 9.289062 52.757812 C 9.640625 52.5 9.996094 52.242188 10.351562 51.921875 C 11.210938 51.15625 11.964844 50.265625 12.566406 49.3125 C 16.738281 50.613281 19.5625 52.78125 20.636719 53.703125 C 20.929688 53.960938 21.65625 54.632812 22.511719 55.429688 C 22.875 54.546875 23.117188 53.601562 23.195312 52.605469 C 23.234375 52.132812 23.027344 51.671875 22.664062 51.359375 Z M 22.664062 51.359375 "/>
<path style=" stroke:none;fill-rule:nonzero;fill:rgb(78.039216%,81.176471%,88.627451%);fill-opacity:1;" d="M 0.945312 69.347656 C 0.347656 70.140625 0 71.109375 0 72.140625 L 0 81.289062 C 0 82.144531 0.695312 82.839844 1.546875 82.839844 L 6.195312 82.839844 L 6.195312 75.035156 C 6.195312 74.09375 5.765625 73.207031 5.03125 72.617188 Z M 0.945312 69.347656 "/>
<path style=" stroke:none;fill-rule:nonzero;fill:rgb(100%,31.372549%,49.019608%);fill-opacity:1;" d="M 70.246094 65.871094 L 57.289062 61.160156 L 48 64.257812 L 38.710938 61.160156 L 25.753906 65.871094 C 23.304688 66.761719 21.679688 69.089844 21.679688 71.695312 L 21.679688 81.289062 C 21.679688 82.144531 22.371094 82.839844 23.226562 82.839844 L 72.773438 82.839844 C 73.628906 82.839844 74.320312 82.144531 74.320312 81.289062 L 74.320312 71.695312 C 74.320312 69.085938 72.695312 66.761719 70.246094 65.871094 Z M 70.246094 65.871094 "/>
<path style=" stroke:none;fill-rule:nonzero;fill:rgb(43.921569%,45.490196%,52.941176%);fill-opacity:1;" d="M 46.378906 67.355469 L 44.902344 82.839844 L 51.097656 82.839844 L 49.621094 67.355469 Z M 46.378906 67.355469 "/>
<path style=" stroke:none;fill-rule:nonzero;fill:rgb(35.686275%,36.470588%,43.137255%);fill-opacity:1;" d="M 49.625 69.484375 L 46.375 69.484375 C 45.773438 69.484375 45.289062 68.996094 45.289062 68.398438 L 45.289062 64.257812 L 50.710938 64.257812 L 50.710938 68.398438 C 50.710938 68.996094 50.226562 69.484375 49.625 69.484375 Z M 49.625 69.484375 "/>
<path style=" stroke:none;fill-rule:nonzero;fill:rgb(82.352941%,23.529412%,41.176471%);fill-opacity:1;" d="M 72.65625 67.472656 C 73.703125 68.59375 74.320312 70.089844 74.320312 71.691406 L 74.320312 81.289062 C 74.320312 82.144531 73.628906 82.839844 72.773438 82.839844 L 65.03125 82.839844 L 65.03125 77.664062 C 65.03125 76.019531 65.683594 74.445312 66.847656 73.28125 Z M 72.65625 67.472656 "/>
<path style=" stroke:none;fill-rule:nonzero;fill:rgb(35.294118%,25.490196%,27.45098%);fill-opacity:1;" d="M 65.03125 29.230469 L 65.03125 16.257812 C 65.03125 14.546875 63.644531 13.160156 61.9375 13.160156 L 43.355469 13.160156 C 36.515625 13.160156 30.96875 18.707031 30.96875 25.546875 L 30.96875 29.230469 C 30.96875 30.894531 31.234375 32.546875 31.761719 34.125 L 32.277344 35.671875 C 32.4375 36.144531 32.515625 36.640625 32.515625 37.140625 L 32.515625 37.9375 L 63.484375 37.9375 L 63.484375 37.140625 C 63.484375 36.640625 63.5625 36.144531 63.722656 35.671875 L 64.238281 34.125 C 64.765625 32.546875 65.03125 30.894531 65.03125 29.230469 Z M 65.03125 29.230469 "/>
<path style=" stroke:none;fill-rule:nonzero;fill:rgb(41.176471%,29.411765%,29.411765%);fill-opacity:1;" d="M 38.710938 19.453125 C 38.710938 22.925781 41.527344 25.742188 45 25.742188 L 45.871094 25.742188 L 46.289062 37.9375 L 63.484375 37.9375 L 63.484375 37.140625 C 63.484375 36.640625 63.5625 36.144531 63.722656 35.671875 L 64.238281 34.125 C 64.765625 32.546875 65.03125 30.894531 65.03125 29.226562 L 65.03125 16.257812 C 65.03125 14.546875 63.644531 13.160156 61.9375 13.160156 L 45 13.160156 C 41.527344 13.160156 38.710938 15.976562 38.710938 19.453125 Z M 38.710938 19.453125 "/>
<path style=" stroke:none;fill-rule:nonzero;fill:rgb(90.196078%,68.627451%,47.058824%);fill-opacity:1;" d="M 38.710938 50.324219 L 57.289062 50.324219 L 57.289062 64.257812 L 38.710938 64.257812 Z M 38.710938 50.324219 "/>
<path style=" stroke:none;fill-rule:nonzero;fill:rgb(82.352941%,60.784314%,43.137255%);fill-opacity:1;" d="M 38.710938 55.558594 C 41.445312 57.140625 44.609375 58.0625 48 58.0625 C 51.390625 58.0625 54.554688 57.140625 57.289062 55.558594 L 57.289062 50.320312 L 38.710938 50.320312 Z M 38.710938 55.558594 "/>
<path style=" stroke:none;fill-rule:nonzero;fill:rgb(82.352941%,23.529412%,41.176471%);fill-opacity:1;" d="M 48 64.257812 L 43.0625 69.195312 C 42.398438 69.859375 41.300781 69.785156 40.734375 69.039062 L 35.613281 62.289062 L 36.953125 59.46875 C 37.347656 58.632812 38.378906 58.328125 39.164062 58.8125 Z M 48 64.257812 "/>
<path style=" stroke:none;fill-rule:nonzero;fill:rgb(82.352941%,23.529412%,41.176471%);fill-opacity:1;" d="M 48 64.257812 L 52.9375 69.195312 C 53.601562 69.859375 54.699219 69.785156 55.265625 69.039062 L 60.386719 62.289062 L 59.046875 59.46875 C 58.652344 58.632812 57.621094 58.328125 56.835938 58.8125 Z M 48 64.257812 "/>
<path style=" stroke:none;fill-rule:nonzero;fill:rgb(94.117647%,75.294118%,52.941176%);fill-opacity:1;" d="M 48 54.96875 C 39.449219 54.96875 32.515625 48.035156 32.515625 39.484375 L 32.515625 37.671875 C 32.515625 36.847656 32.84375 36.0625 33.421875 35.480469 L 34.707031 34.195312 C 35.285156 33.617188 35.613281 32.828125 35.613281 32.007812 L 35.613281 28.296875 C 35.613281 27.578125 36.09375 26.957031 36.792969 26.789062 C 40.453125 25.925781 51.851562 23.875 59.605469 29.582031 C 60.109375 29.953125 60.386719 30.558594 60.386719 31.183594 L 60.386719 32.007812 C 60.386719 32.828125 60.710938 33.617188 61.292969 34.195312 L 62.578125 35.480469 C 63.15625 36.0625 63.484375 36.847656 63.484375 37.671875 L 63.484375 39.484375 C 63.484375 48.035156 56.550781 54.96875 48 54.96875 Z M 48 54.96875 "/>
<path style=" stroke:none;fill-rule:nonzero;fill:rgb(90.196078%,68.627451%,47.058824%);fill-opacity:1;" d="M 59.605469 29.582031 C 54.148438 25.570312 46.90625 25.394531 41.804688 25.945312 C 39.65625 26.175781 37.878906 26.535156 36.792969 26.789062 C 36.09375 26.957031 35.613281 27.578125 35.613281 28.296875 L 35.613281 32.007812 C 35.613281 32.828125 35.289062 33.617188 34.707031 34.195312 L 33.421875 35.480469 C 32.84375 36.0625 32.515625 36.847656 32.515625 37.671875 L 32.515625 39.484375 C 32.515625 47.402344 38.460938 53.917969 46.128906 54.84375 C 43.457031 52.0625 41.804688 48.289062 41.804688 44.128906 L 41.804688 32.8125 C 41.804688 31.242188 42.972656 29.929688 44.53125 29.734375 C 48.246094 29.269531 55.050781 28.988281 60.386719 32.007812 L 60.386719 31.183594 C 60.386719 30.558594 60.109375 29.953125 59.605469 29.582031 Z M 59.605469 29.582031 "/>
<path style=" stroke:none;fill-rule:nonzero;fill:rgb(82.352941%,23.529412%,41.176471%);fill-opacity:1;" d="M 23.34375 67.472656 C 22.296875 68.59375 21.679688 70.089844 21.679688 71.691406 L 21.679688 81.289062 C 21.679688 82.144531 22.371094 82.839844 23.226562 82.839844 L 30.96875 82.839844 L 30.96875 77.664062 C 30.96875 76.019531 30.316406 74.445312 29.152344 73.28125 Z M 23.34375 67.472656 "/>
</g>
</svg>
