<?xml version="1.0" encoding="UTF-8"?>
<svg xmlns="http://www.w3.org/2000/svg" xmlns:xlink="http://www.w3.org/1999/xlink" width="159pt" height="88pt" viewBox="0 0 159 88" version="1.1">
<g id="surface1">
<path style=" stroke:none;fill-rule:nonzero;fill:rgb(94.901961%,94.901961%,94.901961%);fill-opacity:1;" d="M 81.8125 87.632812 C 79.296875 88.003906 76.753906 88.125 74.214844 88 C 68.097656 87.691406 62.082031 85.90625 56.9375 82.554688 C 54.65625 81.070312 52.484375 79.246094 51.300781 76.792969 C 49.699219 73.460938 50.261719 69.246094 52.550781 66.34375 C 53.382812 65.296875 54.410156 64.421875 55.574219 63.761719 C 55.746094 63.664062 55.921875 63.570312 56.097656 63.480469 C 58.039062 62.503906 60.214844 62.105469 62.371094 62.328125 C 66.039062 62.730469 69.425781 64.976562 71.378906 68.109375 C 73.121094 70.90625 73.730469 74.203125 74.085938 77.511719 C 74.15625 78.132812 74.210938 78.757812 74.269531 79.378906 C 73.957031 81.179688 73.46875 82.945312 72.804688 84.644531 C 72.773438 84.726562 72.746094 84.8125 72.722656 84.898438 C 73.097656 85.714844 73.453125 86.535156 73.792969 87.367188 C 74.109375 87.539062 74.46875 87.628906 74.828125 87.628906 L 81.796875 87.628906 Z M 81.8125 87.632812 "/>
<path style=" stroke:none;fill-rule:nonzero;fill:rgb(100%,100%,100%);fill-opacity:1;" d="M 73.648438 87.792969 C 73.554688 87.832031 73.449219 87.835938 73.355469 87.796875 C 73.257812 87.761719 73.183594 87.6875 73.144531 87.59375 C 73.113281 87.523438 73.085938 87.449219 73.054688 87.378906 C 72.785156 86.722656 72.503906 86.070312 72.207031 85.429688 C 68.417969 77.113281 62.765625 69.789062 55.6875 64.019531 C 55.605469 63.960938 55.5625 63.863281 55.574219 63.761719 C 55.59375 63.648438 55.664062 63.546875 55.769531 63.492188 C 55.871094 63.4375 55.992188 63.433594 56.097656 63.480469 C 56.128906 63.492188 56.152344 63.507812 56.175781 63.53125 C 59.203125 66 61.984375 68.761719 64.46875 71.773438 C 66.957031 74.789062 69.144531 78.03125 71.007812 81.46875 C 71.515625 82.40625 72 83.359375 72.457031 84.320312 C 72.546875 84.515625 72.636719 84.707031 72.722656 84.898438 C 73.097656 85.714844 73.453125 86.535156 73.792969 87.367188 C 73.796875 87.378906 73.804688 87.394531 73.808594 87.40625 C 73.84375 87.476562 73.847656 87.5625 73.816406 87.636719 C 73.785156 87.710938 73.726562 87.765625 73.648438 87.792969 Z M 73.648438 87.792969 "/>
<path style=" stroke:none;fill-rule:nonzero;fill:rgb(33.333333%,65.882353%,99.215686%);fill-opacity:1;" d="M 56.109375 55.726562 C 56.109375 59.769531 52.835938 63.046875 48.800781 63.046875 C 44.765625 63.046875 41.496094 59.769531 41.496094 55.726562 C 41.496094 51.6875 44.765625 48.410156 48.800781 48.410156 C 52.835938 48.410156 56.109375 51.6875 56.109375 55.726562 Z M 56.109375 55.726562 "/>
<path style=" stroke:none;fill-rule:nonzero;fill:rgb(100%,100%,100%);fill-opacity:1;" d="M 48.078125 58.519531 C 47.914062 58.519531 47.753906 58.464844 47.621094 58.367188 L 47.613281 58.359375 L 45.894531 57.042969 C 45.5625 56.789062 45.5 56.308594 45.753906 55.972656 C 46.011719 55.636719 46.492188 55.574219 46.824219 55.832031 L 47.9375 56.6875 L 50.566406 53.25 C 50.820312 52.917969 51.300781 52.855469 51.632812 53.109375 L 51.617188 53.132812 L 51.636719 53.109375 C 51.96875 53.367188 52.03125 53.847656 51.777344 54.183594 L 48.683594 58.21875 C 48.539062 58.410156 48.316406 58.519531 48.078125 58.519531 Z M 48.078125 58.519531 "/>
<path style=" stroke:none;fill-rule:nonzero;fill:rgb(24.705882%,23.921569%,33.72549%);fill-opacity:1;" d="M 158.765625 88.082031 L 0.222656 88.082031 C 0.101562 88.082031 0 87.984375 0 87.859375 C 0 87.734375 0.101562 87.636719 0.222656 87.636719 L 158.765625 87.636719 C 158.890625 87.636719 158.988281 87.734375 158.988281 87.859375 C 158.988281 87.984375 158.890625 88.082031 158.765625 88.082031 Z M 158.765625 88.082031 "/>
<path style=" stroke:none;fill-rule:nonzero;fill:rgb(18.431373%,18.039216%,25.490196%);fill-opacity:1;" d="M 36.433594 20.078125 C 36.433594 23.078125 34.007812 25.507812 31.011719 25.507812 C 28.019531 25.507812 25.59375 23.078125 25.59375 20.078125 C 25.59375 17.078125 28.019531 14.648438 31.011719 14.648438 C 34.007812 14.648438 36.433594 17.078125 36.433594 20.078125 Z M 36.433594 20.078125 "/>
<path style=" stroke:none;fill-rule:nonzero;fill:rgb(18.431373%,18.039216%,25.490196%);fill-opacity:1;" d="M 27.175781 14.367188 C 26.519531 13.710938 25.277344 13.890625 24.402344 14.765625 C 23.527344 15.644531 23.347656 16.890625 24.003906 17.546875 C 24.664062 18.203125 25.90625 18.027344 26.78125 17.148438 C 27.65625 16.273438 27.835938 15.027344 27.175781 14.367188 Z M 27.175781 14.367188 "/>
<path style=" stroke:none;fill-rule:nonzero;fill:rgb(18.431373%,18.039216%,25.490196%);fill-opacity:1;" d="M 35.261719 12.992188 C 34.121094 12.507812 32.902344 12.804688 32.539062 13.660156 C 32.171875 14.515625 32.800781 15.605469 33.941406 16.09375 C 35.078125 16.578125 36.300781 16.28125 36.664062 15.425781 C 37.027344 14.570312 36.402344 13.480469 35.261719 12.992188 Z M 35.261719 12.992188 "/>
<path style=" stroke:none;fill-rule:nonzero;fill:rgb(100%,72.156863%,72.156863%);fill-opacity:1;" d="M 46.109375 51.429688 C 46.386719 50.898438 46.417969 50.277344 46.191406 49.726562 C 45.964844 49.171875 45.507812 48.75 44.9375 48.570312 L 37.105469 31.96875 L 33.519531 34.488281 L 42.347656 50.011719 C 42.101562 51.007812 42.640625 52.03125 43.601562 52.390625 C 44.558594 52.753906 45.636719 52.339844 46.109375 51.429688 Z M 46.109375 51.429688 "/>
<path style=" stroke:none;fill-rule:nonzero;fill:rgb(80%,80%,80%);fill-opacity:1;" d="M 38.902344 34.738281 L 34.742188 36.601562 C 34.5 36.710938 34.226562 36.707031 33.988281 36.597656 C 33.75 36.484375 33.574219 36.273438 33.503906 36.023438 L 32.277344 31.640625 C 31.71875 30.375 32.292969 28.894531 33.554688 28.335938 C 34.816406 27.773438 36.292969 28.339844 36.859375 29.605469 L 39.292969 33.429688 C 39.433594 33.648438 39.472656 33.921875 39.398438 34.171875 C 39.320312 34.425781 39.140625 34.632812 38.902344 34.738281 Z M 38.902344 34.738281 "/>
<path style=" stroke:none;fill-rule:nonzero;fill:rgb(100%,72.156863%,72.156863%);fill-opacity:1;" d="M 19.6875 53.074219 C 20.265625 52.9375 20.757812 52.554688 21.027344 52.019531 C 21.296875 51.488281 21.316406 50.863281 21.082031 50.316406 L 28.5 33.527344 L 24.253906 32.457031 L 18.296875 49.296875 C 17.382812 49.761719 16.964844 50.839844 17.316406 51.804688 C 17.671875 52.765625 18.6875 53.3125 19.6875 53.074219 Z M 19.6875 53.074219 "/>
<path style=" stroke:none;fill-rule:nonzero;fill:rgb(100%,72.156863%,72.156863%);fill-opacity:1;" d="M 17.664062 83.503906 L 19.820312 84.289062 L 23.878906 76.328125 L 20.695312 75.164062 Z M 17.664062 83.503906 "/>
<path style=" stroke:none;fill-rule:nonzero;fill:rgb(18.431373%,18.039216%,25.490196%);fill-opacity:1;" d="M 23.253906 87.8125 L 16.472656 85.34375 L 17.425781 82.71875 L 21.589844 84.234375 C 23.035156 84.761719 23.78125 86.367188 23.253906 87.8125 Z M 23.253906 87.8125 "/>
<path style=" stroke:none;fill-rule:nonzero;fill:rgb(18.431373%,18.039216%,25.490196%);fill-opacity:1;" d="M 22.769531 78.921875 C 22.636719 78.921875 22.507812 78.890625 22.386719 78.835938 L 19.90625 77.65625 C 19.484375 77.460938 19.285156 76.972656 19.441406 76.535156 L 26.441406 57.121094 C 26.5625 56.792969 26.859375 56.5625 27.203125 56.527344 C 27.550781 56.492188 27.886719 56.664062 28.066406 56.960938 L 31.769531 63.140625 C 31.933594 63.421875 31.9375 63.773438 31.777344 64.054688 L 23.554688 78.464844 C 23.394531 78.75 23.09375 78.921875 22.769531 78.921875 Z M 22.769531 78.921875 "/>
<path style=" stroke:none;fill-rule:nonzero;fill:rgb(100%,72.156863%,72.156863%);fill-opacity:1;" d="M 35.785156 21.375 C 35.785156 23.917969 33.726562 25.984375 31.183594 25.984375 C 28.644531 25.984375 26.582031 23.917969 26.582031 21.375 C 26.582031 18.828125 28.644531 16.765625 31.183594 16.765625 C 33.726562 16.765625 35.785156 18.828125 35.785156 21.375 Z M 35.785156 21.375 "/>
<path style=" stroke:none;fill-rule:nonzero;fill:rgb(80%,80%,80%);fill-opacity:1;" d="M 37.695312 42.328125 L 29.546875 40.082031 L 25.214844 31.402344 C 24.792969 30.554688 24.835938 29.546875 25.335938 28.742188 C 25.832031 27.9375 26.710938 27.445312 27.65625 27.445312 L 34.140625 27.445312 C 34.8125 27.445312 35.460938 27.695312 35.960938 28.144531 C 37.699219 29.703125 41.351562 34.203125 37.730469 42.25 Z M 37.695312 42.328125 "/>
<path style=" stroke:none;fill-rule:nonzero;fill:rgb(80%,80%,80%);fill-opacity:1;" d="M 27.496094 36.53125 L 23.367188 34.59375 C 23.128906 34.484375 22.953125 34.273438 22.882812 34.023438 C 22.8125 33.769531 22.851562 33.496094 23 33.277344 L 25.507812 29.484375 C 26.097656 28.234375 27.589844 27.699219 28.839844 28.289062 C 30.089844 28.882812 30.625 30.371094 30.039062 31.625 L 28.742188 35.972656 C 28.667969 36.222656 28.488281 36.429688 28.246094 36.539062 C 28.007812 36.644531 27.734375 36.640625 27.496094 36.53125 Z M 27.496094 36.53125 "/>
<path style=" stroke:none;fill-rule:nonzero;fill:rgb(100%,72.156863%,72.156863%);fill-opacity:1;" d="M 32.488281 85.679688 L 34.785156 85.679688 L 35.878906 76.804688 L 32.488281 76.804688 Z M 32.488281 85.679688 "/>
<path style=" stroke:none;fill-rule:nonzero;fill:rgb(18.431373%,18.039216%,25.490196%);fill-opacity:1;" d="M 39.214844 87.8125 L 31.996094 87.8125 L 31.996094 85.023438 L 36.425781 85.023438 C 37.96875 85.023438 39.214844 86.273438 39.214844 87.8125 Z M 39.214844 87.8125 "/>
<path style=" stroke:none;fill-rule:nonzero;fill:rgb(18.431373%,18.039216%,25.490196%);fill-opacity:1;" d="M 33.355469 82.296875 C 32.929688 82.296875 32.5625 82 32.476562 81.582031 C 31.816406 78.46875 28.386719 62.507812 25.710938 54.289062 C 22.988281 45.925781 27.625 42.117188 28.582031 41.4375 C 28.6875 41.367188 28.765625 41.269531 28.816406 41.15625 L 29.511719 39.621094 C 29.660156 39.296875 29.984375 39.09375 30.335938 39.09375 L 30.34375 39.09375 C 35.554688 39.125 37.308594 40.769531 37.820312 41.476562 C 37.972656 41.6875 38.023438 41.957031 37.960938 42.210938 L 34.664062 55.84375 C 34.640625 55.925781 34.636719 56.015625 34.648438 56.101562 L 37.929688 80.851562 C 37.964844 81.089844 37.898438 81.332031 37.75 81.523438 C 37.597656 81.714844 37.378906 81.839844 37.140625 81.867188 L 33.460938 82.292969 C 33.425781 82.296875 33.390625 82.296875 33.355469 82.296875 Z M 33.355469 82.296875 "/>
<path style=" stroke:none;fill-rule:nonzero;fill:rgb(18.431373%,18.039216%,25.490196%);fill-opacity:1;" d="M 26.351562 18.476562 C 27.402344 19.203125 28.648438 19.585938 29.925781 19.582031 C 29.472656 19.898438 28.953125 20.113281 28.40625 20.210938 C 30.105469 20.574219 31.859375 20.582031 33.5625 20.238281 C 33.941406 20.175781 34.304688 20.050781 34.640625 19.867188 C 34.976562 19.675781 35.21875 19.351562 35.304688 18.976562 C 35.417969 18.328125 34.917969 17.738281 34.390625 17.34375 C 32.769531 16.132812 30.691406 15.71875 28.730469 16.210938 C 28.097656 16.375 27.464844 16.648438 27.054688 17.160156 C 26.640625 17.667969 26.519531 18.453125 26.914062 18.976562 Z M 26.351562 18.476562 "/>
<path style=" stroke:none;fill-rule:nonzero;fill:rgb(33.333333%,65.882353%,99.215686%);fill-opacity:1;" d="M 113.246094 36.023438 C 113.246094 37.375 112.15625 38.464844 110.8125 38.464844 C 109.464844 38.464844 108.375 37.375 108.375 36.023438 C 108.375 34.679688 109.464844 33.585938 110.8125 33.585938 C 112.15625 33.585938 113.246094 34.679688 113.246094 36.023438 Z M 113.246094 36.023438 "/>
<path style=" stroke:none;fill-rule:nonzero;fill:rgb(100%,100%,100%);fill-opacity:1;" d="M 110.570312 36.957031 C 110.515625 36.957031 110.460938 36.9375 110.417969 36.90625 L 110.414062 36.902344 L 109.84375 36.464844 C 109.769531 36.410156 109.734375 36.320312 109.746094 36.230469 C 109.757812 36.140625 109.816406 36.0625 109.898438 36.027344 C 109.984375 35.992188 110.078125 36.003906 110.152344 36.0625 L 110.523438 36.34375 L 111.398438 35.203125 C 111.484375 35.089844 111.644531 35.070312 111.753906 35.152344 L 111.75 35.160156 L 111.753906 35.152344 C 111.867188 35.238281 111.886719 35.398438 111.800781 35.511719 L 110.773438 36.855469 C 110.722656 36.921875 110.648438 36.957031 110.570312 36.957031 Z M 110.570312 36.957031 "/>
<path style=" stroke:none;fill-rule:nonzero;fill:rgb(33.333333%,65.882353%,99.215686%);fill-opacity:1;" d="M 113.246094 43.15625 C 113.246094 44.503906 112.15625 45.59375 110.8125 45.59375 C 109.464844 45.59375 108.375 44.503906 108.375 43.15625 C 108.375 41.808594 109.464844 40.71875 110.8125 40.71875 C 112.15625 40.71875 113.246094 41.808594 113.246094 43.15625 Z M 113.246094 43.15625 "/>
<path style=" stroke:none;fill-rule:nonzero;fill:rgb(100%,100%,100%);fill-opacity:1;" d="M 110.570312 44.085938 C 110.515625 44.085938 110.460938 44.070312 110.417969 44.035156 L 110.414062 44.03125 L 109.84375 43.59375 C 109.769531 43.539062 109.734375 43.449219 109.746094 43.359375 C 109.757812 43.269531 109.816406 43.191406 109.898438 43.15625 C 109.984375 43.121094 110.078125 43.132812 110.152344 43.191406 L 110.523438 43.476562 L 111.398438 42.332031 C 111.484375 42.21875 111.644531 42.199219 111.753906 42.28125 L 111.75 42.289062 L 111.753906 42.285156 C 111.867188 42.367188 111.886719 42.53125 111.800781 42.640625 L 110.773438 43.984375 C 110.722656 44.050781 110.648438 44.085938 110.570312 44.085938 Z M 110.570312 44.085938 "/>
<path style=" stroke:none;fill-rule:nonzero;fill:rgb(33.333333%,65.882353%,99.215686%);fill-opacity:1;" d="M 114.558594 51.410156 C 114.558594 52.757812 113.46875 53.851562 112.121094 53.851562 C 110.777344 53.851562 109.6875 52.757812 109.6875 51.410156 C 109.6875 50.0625 110.777344 48.972656 112.121094 48.972656 C 113.46875 48.972656 114.558594 50.0625 114.558594 51.410156 Z M 114.558594 51.410156 "/>
<path style=" stroke:none;fill-rule:nonzero;fill:rgb(100%,100%,100%);fill-opacity:1;" d="M 111.878906 52.34375 C 111.824219 52.34375 111.773438 52.324219 111.730469 52.289062 L 111.726562 52.289062 L 111.152344 51.851562 C 111.082031 51.796875 111.042969 51.703125 111.054688 51.617188 C 111.066406 51.523438 111.125 51.445312 111.210938 51.414062 C 111.292969 51.378906 111.390625 51.390625 111.464844 51.445312 L 111.832031 51.730469 L 112.710938 50.585938 C 112.796875 50.476562 112.953125 50.453125 113.066406 50.539062 L 113.0625 50.546875 L 113.066406 50.539062 C 113.179688 50.625 113.199219 50.785156 113.113281 50.898438 L 112.082031 52.242188 C 112.035156 52.304688 111.960938 52.34375 111.878906 52.34375 Z M 111.878906 52.34375 "/>
<path style=" stroke:none;fill-rule:nonzero;fill:rgb(90.196078%,90.196078%,90.196078%);fill-opacity:1;" d="M 135.605469 71.777344 C 135.582031 71.777344 135.566406 71.777344 135.558594 71.777344 L 132.535156 71.777344 L 132.535156 71.328125 L 135.570312 71.328125 C 135.640625 71.332031 137.074219 71.375 138.394531 69.765625 C 140.363281 67.375 141.980469 61.453125 138.503906 46.828125 C 133.828125 27.160156 137.726562 9.785156 139.621094 3.226562 C 139.808594 2.570312 139.679688 1.859375 139.265625 1.3125 C 138.855469 0.765625 138.210938 0.445312 137.527344 0.445312 L 92.375 0.445312 C 91.675781 0.445312 91.023438 0.78125 90.613281 1.34375 C 89.8125 2.449219 88.710938 4.570312 88.019531 8.410156 L 87.582031 8.332031 C 88.285156 4.410156 89.421875 2.226562 90.25 1.082031 C 90.746094 0.402344 91.535156 0 92.375 0 L 137.527344 0 C 138.351562 0 139.128906 0.386719 139.625 1.046875 C 140.117188 1.703125 140.277344 2.558594 140.046875 3.351562 C 138.164062 9.875 134.285156 27.160156 138.9375 46.722656 C 142.460938 61.554688 140.765625 67.605469 138.722656 70.070312 C 137.378906 71.695312 135.890625 71.777344 135.605469 71.777344 Z M 135.605469 71.777344 "/>
<path style=" stroke:none;fill-rule:nonzero;fill:rgb(80%,80%,80%);fill-opacity:1;" d="M 127.46875 79.925781 C 127.445312 79.925781 127.429688 79.925781 127.421875 79.925781 L 124.398438 79.925781 L 124.398438 79.476562 L 127.433594 79.476562 C 127.503906 79.480469 128.9375 79.523438 130.257812 77.917969 C 132.226562 75.523438 133.84375 69.601562 130.367188 54.976562 C 125.691406 35.308594 129.589844 17.933594 131.484375 11.375 C 131.671875 10.71875 131.542969 10.007812 131.132812 9.460938 C 130.71875 8.914062 130.074219 8.59375 129.390625 8.59375 L 84.238281 8.59375 C 83.542969 8.597656 82.886719 8.929688 82.476562 9.492188 C 81.675781 10.597656 80.574219 12.722656 79.886719 16.5625 L 79.445312 16.480469 C 80.148438 12.558594 81.285156 10.375 82.117188 9.230469 C 82.609375 8.550781 83.398438 8.148438 84.238281 8.148438 L 129.390625 8.148438 C 130.214844 8.148438 130.992188 8.535156 131.488281 9.195312 C 131.984375 9.851562 132.140625 10.707031 131.914062 11.5 C 130.027344 18.023438 126.148438 35.308594 130.800781 54.875 C 134.324219 69.703125 132.632812 75.753906 130.585938 78.21875 C 129.242188 79.84375 127.757812 79.925781 127.46875 79.925781 Z M 127.46875 79.925781 "/>
<path style=" stroke:none;fill-rule:nonzero;fill:rgb(24.705882%,23.921569%,33.72549%);fill-opacity:1;" d="M 122.664062 63.023438 C 118.011719 43.457031 121.890625 26.171875 123.777344 19.648438 C 124.003906 18.855469 123.847656 18.003906 123.351562 17.34375 C 122.855469 16.6875 122.078125 16.296875 121.257812 16.296875 L 76.101562 16.296875 C 75.261719 16.296875 74.476562 16.699219 73.980469 17.378906 C 72.15625 19.890625 68.375 28.214844 72.601562 51.25 C 74.859375 63.574219 74.824219 71.976562 74.085938 77.511719 C 73.671875 80.628906 73.035156 82.835938 72.457031 84.320312 L 72.394531 84.480469 C 72.269531 84.78125 72.207031 85.101562 72.207031 85.429688 C 72.199219 86.171875 72.507812 86.878906 73.054688 87.378906 C 73.230469 87.546875 73.433594 87.683594 73.648438 87.792969 C 73.828125 87.882812 74.019531 87.953125 74.214844 88 C 74.417969 88.046875 74.621094 88.074219 74.828125 88.074219 L 119.289062 88.074219 C 119.292969 88.074219 119.308594 88.074219 119.335938 88.074219 C 119.621094 88.074219 121.105469 87.992188 122.453125 86.367188 C 124.492188 83.90625 126.191406 77.855469 122.664062 63.023438 Z M 122.121094 86.066406 C 120.800781 87.671875 119.367188 87.628906 119.300781 87.628906 L 74.828125 87.628906 C 74.105469 87.628906 73.429688 87.269531 73.023438 86.671875 C 72.667969 86.152344 72.558594 85.507812 72.722656 84.898438 C 72.746094 84.8125 72.773438 84.726562 72.804688 84.644531 C 73.46875 82.945312 73.957031 81.179688 74.269531 79.378906 C 75.324219 73.609375 75.523438 64.707031 73.039062 51.171875 C 68.84375 28.304688 72.554688 20.105469 74.339844 17.640625 C 74.75 17.078125 75.40625 16.746094 76.101562 16.742188 L 121.257812 16.742188 C 121.941406 16.742188 122.582031 17.066406 122.996094 17.609375 C 123.40625 18.15625 123.535156 18.867188 123.347656 19.523438 C 121.453125 26.082031 117.554688 43.457031 122.230469 63.125 C 125.707031 77.75 124.089844 83.671875 122.121094 86.066406 Z M 122.121094 86.066406 "/>
<path style=" stroke:none;fill-rule:nonzero;fill:rgb(80%,80%,80%);fill-opacity:1;" d="M 101.210938 37.601562 L 77.945312 37.601562 C 76.960938 37.601562 76.164062 36.800781 76.164062 35.816406 C 76.164062 34.828125 76.960938 34.03125 77.945312 34.03125 L 101.210938 34.03125 C 102.195312 34.03125 102.996094 34.828125 102.996094 35.816406 C 102.996094 36.800781 102.195312 37.601562 101.210938 37.601562 Z M 101.210938 37.601562 "/>
<path style=" stroke:none;fill-rule:nonzero;fill:rgb(80%,80%,80%);fill-opacity:1;" d="M 101.210938 45.296875 L 77.945312 45.296875 C 76.960938 45.296875 76.164062 44.496094 76.164062 43.507812 C 76.164062 42.523438 76.960938 41.722656 77.945312 41.722656 L 101.210938 41.722656 C 102.195312 41.722656 102.996094 42.523438 102.996094 43.507812 C 102.996094 44.496094 102.195312 45.296875 101.210938 45.296875 Z M 101.210938 45.296875 "/>
<path style=" stroke:none;fill-rule:nonzero;fill:rgb(80%,80%,80%);fill-opacity:1;" d="M 103.085938 53.175781 L 79.820312 53.175781 C 78.835938 53.175781 78.035156 52.375 78.035156 51.390625 C 78.035156 50.402344 78.835938 49.601562 79.820312 49.601562 L 103.085938 49.601562 C 104.070312 49.601562 104.867188 50.402344 104.867188 51.390625 C 104.867188 52.375 104.070312 53.175781 103.085938 53.175781 Z M 103.085938 53.175781 "/>
<path style=" stroke:none;fill-rule:nonzero;fill:rgb(80%,80%,80%);fill-opacity:1;" d="M 104.394531 61.429688 L 81.132812 61.429688 C 80.148438 61.429688 79.347656 60.632812 79.347656 59.644531 C 79.347656 58.660156 80.148438 57.859375 81.132812 57.859375 L 104.394531 57.859375 C 105.382812 57.859375 106.179688 58.660156 106.179688 59.644531 C 106.179688 60.632812 105.382812 61.429688 104.394531 61.429688 Z M 104.394531 61.429688 "/>
<path style=" stroke:none;fill-rule:nonzero;fill:rgb(33.333333%,65.882353%,99.215686%);fill-opacity:1;" d="M 104.40625 23.734375 L 87.6875 23.734375 C 87.050781 23.734375 86.460938 23.394531 86.144531 22.84375 C 85.824219 22.289062 85.824219 21.609375 86.144531 21.054688 C 86.460938 20.5 87.050781 20.160156 87.6875 20.164062 L 104.40625 20.164062 C 105.390625 20.164062 106.191406 20.960938 106.191406 21.949219 C 106.191406 22.933594 105.390625 23.734375 104.40625 23.734375 Z M 104.40625 23.734375 "/>
<path style=" stroke:none;fill-rule:nonzero;fill:rgb(80%,80%,80%);fill-opacity:1;" d="M 116.054688 59.644531 C 116.054688 60.992188 114.964844 62.085938 113.621094 62.085938 C 112.277344 62.085938 111.183594 60.992188 111.183594 59.644531 C 111.183594 58.296875 112.277344 57.207031 113.621094 57.207031 C 114.964844 57.207031 116.054688 58.296875 116.054688 59.644531 Z M 116.054688 59.644531 "/>
<path style=" stroke:none;fill-rule:nonzero;fill:rgb(80%,80%,80%);fill-opacity:1;" d="M 105.519531 69.5 L 82.257812 69.5 C 81.269531 69.5 80.472656 68.699219 80.472656 67.714844 C 80.472656 66.726562 81.269531 65.929688 82.257812 65.929688 L 105.519531 65.929688 C 106.503906 65.929688 107.304688 66.726562 107.304688 67.714844 C 107.304688 68.699219 106.503906 69.5 105.519531 69.5 Z M 105.519531 69.5 "/>
<path style=" stroke:none;fill-rule:nonzero;fill:rgb(80%,80%,80%);fill-opacity:1;" d="M 117.179688 67.710938 C 117.179688 69.0625 116.089844 70.152344 114.746094 70.152344 C 113.398438 70.152344 112.308594 69.0625 112.308594 67.710938 C 112.308594 66.367188 113.398438 65.273438 114.746094 65.273438 C 116.089844 65.273438 117.179688 66.367188 117.179688 67.710938 Z M 117.179688 67.710938 "/>
</g>
</svg>
